<svg width="302" height="289" viewBox="0 0 302 289" fill="none" xmlns="http://www.w3.org/2000/svg">
<g clip-path="url(#clip0_3_102)">
<mask id="mask0_3_102" style="mask-type:luminance" maskUnits="userSpaceOnUse" x="0" y="0" width="302" height="289">
<path d="M0 0H302V289H0V0Z" fill="white"/>
</mask>
<g mask="url(#mask0_3_102)">
<path d="M68.13 74.569C67.893 75.371 63.792 81.825 57.886 84.019C51.979 86.211 47.584 88.636 49.226 91.538C50.869 94.438 58.124 92.854 58.124 92.854C58.124 92.854 43.401 108.851 57.258 117.994C74.188 129.141 91.832 89.238 91.832 89.238L68.13 74.569Z" fill="#E7E7E7"/>
<path d="M89.036 94.733C88.986 94.808 83.393 91.487 76.583 87.32C69.774 83.153 64.256 79.707 64.307 79.632C64.357 79.556 69.95 82.877 76.753 87.045C83.556 91.212 89.099 94.658 89.036 94.733ZM86.433 99.514C86.389 99.59 80.37 96.062 72.99 91.632C65.61 87.202 59.66 83.548 59.704 83.485C59.748 83.423 65.774 86.945 73.154 91.375C80.534 95.805 86.477 99.439 86.434 99.515L86.433 99.514ZM83.273 104.051C83.23 104.127 76.47 100.154 68.175 95.172C59.88 90.19 53.195 86.099 53.245 86.023C53.296 85.948 60.049 89.921 68.345 94.896C76.64 99.872 83.324 103.976 83.273 104.051ZM79.33 109.66C79.286 109.735 74.044 106.527 67.63 102.529C61.215 98.531 56.055 95.203 56.099 95.129C56.143 95.053 61.385 98.261 67.799 102.259C74.213 106.257 79.38 109.585 79.33 109.66ZM74.696 115.08C74.646 115.155 69.768 112.01 63.805 108.056C57.842 104.101 53.033 100.837 53.083 100.762C53.133 100.686 58.011 103.832 63.955 107.78C69.899 111.728 74.746 115.005 74.696 115.08ZM68.783 118.84C68.5255 118.75 68.2776 118.634 68.043 118.495C67.579 118.251 66.908 117.868 66.093 117.43C63.9738 116.226 61.8832 114.972 59.823 113.67C57.759 112.362 55.7369 110.989 53.76 109.553C53.1591 109.121 52.5657 108.678 51.98 108.225C51.7531 108.071 51.5426 107.895 51.352 107.698C51.6 107.815 51.836 107.958 52.054 108.124L53.891 109.378C55.441 110.43 57.591 111.884 59.992 113.413C62.0498 114.721 64.1213 116.008 66.206 117.273L68.087 118.42C68.332 118.538 68.565 118.678 68.783 118.84ZM54.92 93.236C53.748 92.936 52.64 92.429 51.647 91.738C50.6002 91.1356 49.6718 90.3478 48.907 89.413C48.969 89.344 50.161 90.423 51.817 91.469C53.471 92.515 54.951 93.148 54.92 93.236Z" fill="#DEDEDE"/>
<path d="M90.735 88.423C90.679 88.547 90.608 88.663 90.522 88.768L89.895 89.727C89.318 90.554 88.472 91.738 87.387 93.192C84.6198 96.9788 81.7745 100.708 78.853 104.377C75.436 108.67 72.232 112.523 69.881 115.224C68.9535 116.303 68.0127 117.37 67.059 118.426L66.282 119.285C66.1953 119.388 66.0985 119.483 65.993 119.567C66.057 119.447 66.137 119.338 66.231 119.241L66.965 118.345L69.705 115.08C72.7124 111.482 75.6783 107.849 78.602 104.183C81.5183 100.511 84.3862 96.8012 87.205 93.054L89.775 89.651L90.478 88.731C90.554 88.621 90.64 88.517 90.735 88.423ZM85.944 85.008C86.014 85.064 80.138 92.722 72.827 102.109C65.517 111.496 59.566 119.059 59.459 119.021C59.353 118.984 65.265 111.308 72.576 101.914C79.888 92.521 85.901 84.952 85.944 85.008ZM79.26 81.223C79.208 81.3545 79.143 81.4804 79.066 81.599C78.916 81.875 78.715 82.226 78.439 82.659C77.6877 83.95 76.9018 85.2204 76.082 86.469C74.032 89.645 70.978 93.9 67.385 98.412C63.792 102.923 60.387 106.89 57.935 109.766C56.719 111.176 55.729 112.329 55.008 113.156L54.23 114.046C54.1413 114.159 54.0408 114.262 53.93 114.353C54.004 114.232 54.088 114.117 54.18 114.008L54.939 113.056L57.785 109.603C60.193 106.689 63.566 102.71 67.191 98.193C70.815 93.674 73.856 89.47 75.969 86.324C76.8065 85.0868 77.6197 83.8332 78.408 82.564C78.678 82.138 78.897 81.8 79.035 81.537C79.1 81.425 79.175 81.32 79.26 81.223ZM73.774 78.084C73.844 78.134 68.84 84.757 62.594 92.866C56.35 100.975 51.234 107.516 51.164 107.46C51.095 107.404 56.099 100.787 62.344 92.672C68.589 84.557 73.705 78.028 73.774 78.084ZM69.648 75.396C69.4976 75.7045 69.3216 75.9998 69.122 76.279C68.946 76.561 68.72 76.906 68.438 77.276C68.156 77.646 67.861 78.103 67.478 78.529C66.6133 79.6156 65.684 80.6492 64.695 81.624C63.4802 82.8217 62.1856 83.9356 60.82 84.958C59.4416 85.96 57.9962 86.8664 56.494 87.671C55.2778 88.3266 54.0213 88.9044 52.732 89.401C52.186 89.633 51.672 89.789 51.227 89.94C50.782 90.09 50.393 90.203 50.067 90.29C49.74 90.393 49.407 90.472 49.07 90.529C49.38 90.38 49.703 90.26 50.035 90.172C50.349 90.072 50.731 89.94 51.164 89.771C51.597 89.601 52.111 89.432 52.65 89.194C53.9346 88.6676 55.1903 88.0734 56.412 87.414C57.8909 86.6002 59.317 85.6941 60.682 84.701C62.0384 83.6968 63.3306 82.6087 64.551 81.443C65.5445 80.4846 66.4843 79.4721 67.366 78.41C67.755 77.971 68.068 77.539 68.356 77.157C68.646 76.774 68.89 76.467 69.078 76.197C69.248 75.917 69.438 75.648 69.648 75.396ZM98.334 66.58H19.701V74.876H98.334V66.58Z" fill="#DEDEDE"/>
<path d="M44.63 74.569C44.393 75.371 40.292 81.825 34.385 84.019C28.479 86.211 24.084 88.636 25.72 91.538C27.357 94.438 34.624 92.854 34.624 92.854C34.624 92.854 19.895 108.851 33.758 117.994C50.688 129.141 68.332 89.238 68.332 89.238L44.63 74.569Z" fill="#EFEEEE"/>
<path d="M65.548 94.733C65.504 94.808 59.905 91.487 53.102 87.32C46.299 83.153 40.756 79.707 40.818 79.632C40.881 79.556 46.462 82.877 53.271 87.045C60.081 91.212 65.598 94.658 65.548 94.733ZM62.933 99.514C62.889 99.59 56.863 96.062 49.484 91.632C42.104 87.202 36.16 83.548 36.204 83.485C36.248 83.423 42.267 86.945 49.654 91.375C57.039 95.805 62.977 99.439 62.934 99.515L62.933 99.514ZM59.773 104.051C59.729 104.127 52.97 100.154 44.674 95.172C36.379 90.19 29.695 86.099 29.739 86.023C29.783 85.948 36.549 89.921 44.837 94.896C53.127 99.872 59.817 103.976 59.773 104.051ZM55.804 109.66C55.76 109.735 50.518 106.527 44.104 102.529C37.69 98.531 32.548 95.203 32.604 95.129C32.661 95.053 37.89 98.261 44.304 102.259C50.719 106.257 55.879 109.585 55.804 109.66ZM51.196 115.08C51.146 115.155 46.267 112.01 40.298 108.056C34.328 104.101 29.532 100.837 29.582 100.762C29.632 100.686 34.486 103.832 40.48 107.78C46.474 111.728 51.246 115.005 51.196 115.08ZM45.276 118.84C45.0132 118.749 44.7594 118.633 44.518 118.495C44.048 118.251 43.383 117.868 42.568 117.43C40.4488 116.226 38.3582 114.972 36.298 113.67C34.2358 112.362 32.2158 110.989 30.241 109.553C29.6398 109.121 29.046 108.678 28.46 108.225C28.2335 108.071 28.0234 107.895 27.833 107.698C28.079 107.816 28.312 107.959 28.529 108.124L30.366 109.378C31.921 110.43 34.066 111.884 36.473 113.413C38.5308 114.721 40.6023 116.008 42.687 117.273L44.567 118.42C44.819 118.533 45.056 118.673 45.276 118.84ZM31.413 93.236C30.243 92.936 29.137 92.428 28.147 91.738C27.1012 91.1343 26.1729 90.3466 25.407 89.413C25.476 89.344 26.661 90.423 28.322 91.469C29.984 92.515 31.452 93.148 31.413 93.236Z" fill="#DEDEDE"/>
<path d="M67.234 88.423C67.175 88.545 67.104 88.661 67.021 88.768L66.394 89.727C65.824 90.554 64.971 91.738 63.886 93.192C61.1165 96.9786 58.2692 100.708 55.346 104.377C51.923 108.67 48.731 112.523 46.374 115.224C45.45 116.304 44.5112 117.372 43.558 118.426C43.238 118.783 42.975 119.053 42.775 119.285C42.69 119.39 42.594 119.485 42.486 119.567C42.5566 119.45 42.6387 119.341 42.731 119.241L43.464 118.345L46.204 115.08C49.2114 111.483 52.1756 107.851 55.096 104.183C58.0118 100.509 60.8813 96.7995 63.704 93.054L66.269 89.651C66.564 89.276 66.796 88.969 66.977 88.731C67.051 88.618 67.137 88.515 67.234 88.423ZM62.444 85.008C62.513 85.064 56.638 92.722 49.327 102.109C42.016 111.496 36.028 119.072 35.959 119.028C35.89 118.984 41.759 111.314 49.076 101.921C56.393 92.528 62.369 84.951 62.444 85.008ZM55.754 81.223C55.706 81.356 55.643 81.482 55.566 81.599C55.409 81.875 55.214 82.226 54.939 82.659C54.1851 83.9486 53.3988 85.219 52.581 86.469C50.531 89.645 47.477 93.9 43.878 98.412C40.279 102.923 36.912 106.89 34.486 109.766L31.564 113.156L30.724 114.046C30.6358 114.158 30.537 114.26 30.429 114.353C30.501 114.23 30.585 114.115 30.679 114.008L31.439 113.056L34.285 109.603C36.693 106.689 40.065 102.71 43.652 98.193C47.239 93.674 50.324 89.47 52.431 86.324C53.2685 85.0868 54.0817 83.8332 54.87 82.564C55.14 82.138 55.359 81.8 55.497 81.537C55.573 81.425 55.659 81.32 55.754 81.223ZM50.274 78.084C50.343 78.134 45.339 84.757 39.094 92.866C32.849 100.975 27.733 107.516 27.664 107.46C27.594 107.404 32.604 100.787 38.874 92.672C45.144 84.557 50.199 78.028 50.274 78.084ZM46.142 75.396C45.992 75.704 45.818 75.999 45.622 76.279C45.4101 76.6221 45.1818 76.9548 44.938 77.276C44.656 77.646 44.355 78.103 43.978 78.529C43.1134 79.6157 42.184 80.6492 41.195 81.624C39.975 82.8133 38.6761 83.9188 37.307 84.933C35.9306 85.9349 34.4872 86.8413 32.987 87.646C31.7703 88.3005 30.5138 88.8782 29.225 89.376C28.673 89.608 28.159 89.764 27.714 89.915C27.269 90.065 26.88 90.178 26.56 90.265C26.2316 90.3677 25.8965 90.4476 25.557 90.504C25.867 90.356 26.191 90.237 26.523 90.146C26.836 90.046 27.219 89.915 27.658 89.746C28.096 89.576 28.598 89.407 29.138 89.169C30.4227 88.6437 31.6782 88.0495 32.899 87.389C34.377 86.5737 35.8031 85.6677 37.169 84.676C38.5241 83.6702 39.8162 82.5822 41.038 81.418C42.0282 80.4564 42.9678 79.444 43.853 78.385C44.243 77.946 44.556 77.514 44.844 77.131C45.132 76.749 45.377 76.442 45.565 76.173C45.741 75.903 45.934 75.643 46.142 75.396ZM61.573 25.059H56.543V30.084H61.573V25.059Z" fill="#DEDEDE"/>
<path d="M82.615 36.777H35.746V66.34H82.616L82.615 36.777ZM35.74 36.777C35.74 36.777 42.913 29.257 60.902 29.583C78.891 29.909 82.602 36.777 82.602 36.777H35.74Z" fill="#EFEEEE"/>
<path d="M82.433 37.253C82.433 37.347 71.893 37.416 58.901 37.416C45.91 37.416 35.37 37.346 35.37 37.253C35.37 37.159 45.903 37.096 58.901 37.096C71.899 37.096 82.433 37.166 82.433 37.253ZM82.433 37.26H92.986C93.4446 37.2603 93.8843 37.4425 94.2086 37.7667C94.533 38.0908 94.7155 38.5304 94.716 38.989V39.572C94.7157 40.0307 94.5333 40.4704 94.2089 40.7947C93.8845 41.1189 93.4446 41.301 92.986 41.301H82.433V37.26Z" fill="#DEDEDE"/>
<path d="M35.915 41.301H25.362C24.9032 41.3007 24.4634 41.1184 24.139 40.794C23.8146 40.4696 23.6323 40.0297 23.632 39.571V38.989C23.6319 38.7618 23.6765 38.5367 23.7634 38.3268C23.8503 38.1168 23.9777 37.9261 24.1384 37.7654C24.2991 37.6047 24.4898 37.4773 24.6998 37.3904C24.9097 37.3035 25.1348 37.2589 25.362 37.259H35.915V41.301ZM64.281 23.611H54.08C53.394 23.611 52.838 24.167 52.838 24.852V25.266C52.838 25.951 53.394 26.506 54.08 26.506H64.28C64.966 26.506 65.522 25.951 65.522 25.266V24.852C65.522 24.167 64.966 23.612 64.28 23.612L64.281 23.611Z" fill="#DEDEDE"/>
<path d="M287.629 216.148H16.917V288.724H287.629V216.148Z" fill="#EFEEEE"/>
<path d="M289.504 213.134H13.474V221.963H289.504V213.134Z" fill="#DEDEDE"/>
<path d="M98.83 233.801H27.625V255.776H98.828V233.801H98.83Z" fill="#E7E7E7"/>
<path d="M63.228 246.628C63.4728 246.634 63.7162 246.59 63.9441 246.501C64.1719 246.411 64.3794 246.277 64.5546 246.106C64.7297 245.934 64.8689 245.73 64.9639 245.504C65.0589 245.279 65.1079 245.036 65.1079 244.792C65.1079 244.547 65.0589 244.304 64.9639 244.079C64.8689 243.853 64.7297 243.649 64.5546 243.477C64.3794 243.306 64.1719 243.172 63.9441 243.082C63.7162 242.993 63.4728 242.949 63.228 242.955C62.7484 242.966 62.2921 243.165 61.9568 243.508C61.6216 243.851 61.4339 244.312 61.4339 244.792C61.4339 245.271 61.6216 245.732 61.9568 246.075C62.2921 246.418 62.7484 246.617 63.228 246.628Z" fill="#DEDEDE"/>
<path d="M98.83 260.413H27.625V282.389H98.828V260.413H98.83Z" fill="#E7E7E7"/>
<path d="M63.228 273.234C63.4728 273.24 63.7162 273.196 63.9441 273.107C64.1719 273.017 64.3794 272.883 64.5546 272.712C64.7297 272.54 64.8689 272.336 64.9639 272.11C65.0589 271.885 65.1079 271.642 65.1079 271.398C65.1079 271.153 65.0589 270.91 64.9639 270.685C64.8689 270.459 64.7297 270.255 64.5546 270.083C64.3794 269.912 64.1719 269.778 63.9441 269.688C63.7162 269.599 63.4728 269.555 63.228 269.561C62.7484 269.572 62.2921 269.771 61.9568 270.114C61.6216 270.457 61.4339 270.918 61.4339 271.398C61.4339 271.877 61.6216 272.338 61.9568 272.681C62.2921 273.024 62.7484 273.223 63.228 273.234Z" fill="#DEDEDE"/>
<path d="M273.245 233.801H202.042V255.776H273.245V233.801Z" fill="#E7E7E7"/>
<path d="M237.644 246.628C238.131 246.628 238.598 246.434 238.943 246.09C239.287 245.745 239.481 245.278 239.481 244.791C239.481 244.304 239.287 243.837 238.943 243.492C238.598 243.148 238.131 242.954 237.644 242.954C237.157 242.954 236.69 243.148 236.345 243.492C236.001 243.837 235.807 244.304 235.807 244.791C235.807 245.278 236.001 245.745 236.345 246.09C236.69 246.434 237.157 246.628 237.644 246.628Z" fill="#DEDEDE"/>
<path d="M273.245 260.413H202.042V282.389H273.245V260.413Z" fill="#E7E7E7"/>
<path d="M237.644 273.234C237.885 273.234 238.124 273.186 238.347 273.094C238.57 273.002 238.772 272.867 238.943 272.696C239.114 272.525 239.249 272.323 239.341 272.1C239.433 271.877 239.481 271.638 239.481 271.397C239.481 271.156 239.433 270.917 239.341 270.694C239.249 270.471 239.114 270.269 238.943 270.098C238.772 269.927 238.57 269.792 238.347 269.7C238.124 269.608 237.885 269.56 237.644 269.56C237.157 269.56 236.69 269.754 236.345 270.098C236.001 270.443 235.807 270.91 235.807 271.397C235.807 271.884 236.001 272.351 236.345 272.696C236.69 273.04 237.157 273.234 237.644 273.234Z" fill="#DEDEDE"/>
<path d="M101.037 288.875V274.049C101.037 264.493 100.999 250.719 100.968 233.826V233.7H101.093L194.06 233.663H194.229V289.025H194.079L127.089 288.95L107.846 288.875H101.018H107.94L127.133 288.831L194.023 288.756L193.872 288.912V233.863L194.035 234.026L101.068 233.995L101.2 233.863C101.2 250.726 101.15 264.468 101.131 274.011C101.131 278.78 101.131 282.502 101.099 285.033V287.916C101.049 288.505 101.037 288.875 101.037 288.875Z" fill="#E7E7E7"/>
<path d="M59.134 186.779C59.1364 188.154 58.7306 189.499 57.9679 190.644C57.2053 191.788 56.1202 192.681 54.85 193.208C53.5802 193.735 52.1827 193.874 50.8341 193.607C49.4855 193.34 48.2462 192.679 47.2729 191.708C46.2996 190.737 45.6359 189.5 45.3658 188.152C45.0956 186.804 45.231 185.406 45.755 184.135C46.2806 182.864 47.1717 181.777 48.3155 181.013C49.4594 180.248 50.8043 179.841 52.18 179.842C54.0212 179.843 55.7871 180.573 57.0906 181.873C58.3942 183.174 59.129 184.938 59.134 186.779Z" fill="#DEDEDE"/>
<path d="M65.742 193.615C66.6549 193.615 67.5589 193.436 68.4025 193.087C69.246 192.738 70.0126 192.226 70.6583 191.581C71.3041 190.936 71.8164 190.169 72.166 189.326C72.5156 188.483 72.6957 187.579 72.696 186.666C72.6957 185.753 72.5157 184.849 72.166 184.006C71.8164 183.162 71.3041 182.396 70.6584 181.751C70.0127 181.105 69.2461 180.594 68.4026 180.244C67.559 179.895 66.6549 179.716 65.742 179.716C63.8984 179.716 62.1302 180.448 60.8263 181.751C59.5223 183.054 58.7895 184.822 58.789 186.666C58.7893 187.579 58.9693 188.483 59.3189 189.326C59.6684 190.169 60.1807 190.935 60.8263 191.581C61.472 192.226 62.2384 192.738 63.0818 193.087C63.9253 193.436 64.8292 193.615 65.742 193.615ZM38.618 193.615C39.5308 193.615 40.4348 193.436 41.2782 193.087C42.1216 192.738 42.888 192.226 43.5337 191.581C44.1793 190.935 44.6916 190.169 45.0411 189.326C45.3907 188.483 45.5707 187.579 45.571 186.666C45.5705 184.822 44.8377 183.054 43.5337 181.751C42.2298 180.448 40.4616 179.716 38.618 179.716C37.7051 179.716 36.801 179.895 35.9574 180.244C35.1139 180.594 34.3473 181.105 33.7016 181.751C33.0559 182.396 32.5436 183.162 32.194 184.006C31.8443 184.849 31.6643 185.753 31.664 186.666C31.6643 187.579 31.8443 188.483 32.194 189.326C32.5436 190.169 33.0559 190.936 33.7017 191.581C34.3474 192.226 35.114 192.738 35.9575 193.087C36.8011 193.436 37.7051 193.615 38.618 193.615Z" fill="#EFEEEE"/>
<path d="M29.375 188.157H74.784C74.784 188.157 74.314 206.874 62.124 209.162L61.936 213.134H41.483V209.093C41.483 209.093 29.375 205.991 29.375 188.157Z" fill="#E7E7E7"/>
<path d="M62.124 209.162C62.124 209.224 57.491 209.281 51.772 209.281C46.054 209.281 41.42 209.224 41.42 209.162C41.42 209.099 46.054 209.042 51.772 209.042C57.491 209.042 62.124 209.099 62.124 209.162ZM73.022 197.801C73.022 197.801 72.928 197.801 72.733 197.838L71.88 197.914C70.7785 198.016 69.6681 197.961 68.582 197.751C67.7934 197.594 67.0407 197.292 66.362 196.861C65.546 196.349 64.8936 195.614 64.482 194.743C64.2647 194.252 64.1575 193.72 64.168 193.183C64.1834 192.601 64.383 192.039 64.738 191.578C64.929 191.339 65.171 191.146 65.448 191.015C65.739 190.888 66.061 190.847 66.375 190.895C66.6953 190.958 66.9979 191.09 67.2612 191.283C67.5246 191.476 67.7423 191.725 67.899 192.011C68.209 192.617 68.301 193.313 68.156 193.978C68.0203 194.663 67.7567 195.315 67.379 195.902C66.5749 197.154 65.387 198.113 63.993 198.634C62.4912 199.179 60.8428 199.161 59.353 198.584C58.5798 198.285 57.8662 197.85 57.246 197.3C56.5823 196.745 56.0836 196.019 55.804 195.2C55.6785 194.77 55.6785 194.314 55.804 193.884C55.8666 193.661 55.9725 193.453 56.1156 193.272C56.2587 193.09 56.4362 192.938 56.638 192.825C57.0629 192.641 57.5356 192.597 57.9869 192.701C58.4382 192.805 58.8444 193.051 59.146 193.402C59.7344 194.117 60.1027 194.988 60.206 195.908C60.346 196.827 60.316 197.764 60.118 198.672C59.7349 200.554 58.6944 202.238 57.183 203.422C56.406 204.01 55.5192 204.436 54.575 204.675C53.6166 204.915 52.6227 204.981 51.641 204.869C49.6645 204.676 47.8374 203.732 46.537 202.231C45.8989 201.498 45.4663 200.61 45.283 199.656C45.1091 198.701 45.3158 197.716 45.859 196.911C46.1182 196.506 46.4764 196.174 46.8999 195.946C47.3234 195.717 47.7981 195.601 48.279 195.608C48.751 195.633 49.2077 195.784 49.6016 196.045C49.9955 196.306 50.3123 196.668 50.519 197.093C50.709 197.523 50.74 198.008 50.606 198.459C50.473 198.897 50.226 199.293 49.891 199.606C49.2369 200.194 48.4464 200.61 47.591 200.815C46.018 201.248 44.3599 201.268 42.777 200.872C41.1942 200.477 39.74 199.68 38.555 198.559C38.0172 198.027 37.6001 197.386 37.332 196.679C37.0804 195.988 37.0369 195.239 37.207 194.524C37.3616 193.828 37.7568 193.209 38.323 192.775C38.882 192.375 39.573 192.207 40.254 192.305C40.9003 192.389 41.4912 192.714 41.909 193.214C42.302 193.692 42.523 194.288 42.536 194.906C42.5411 195.487 42.3536 196.053 42.003 196.516C41.6793 196.946 41.2722 197.306 40.806 197.575C39.9747 198.04 39.0784 198.378 38.147 198.578C37.369 198.76 36.579 198.89 35.783 198.966C34.6863 199.074 33.5817 199.074 32.485 198.966C32.1019 198.93 31.7213 198.871 31.345 198.791L31.633 198.822C31.827 198.854 32.115 198.885 32.485 198.916C33.58 199.023 34.682 199.023 35.777 198.916C36.565 198.834 37.347 198.697 38.116 198.509C39.0347 198.308 39.9179 197.97 40.736 197.506C41.1857 197.244 41.5784 196.895 41.891 196.479C42.231 196.017 42.4054 195.454 42.386 194.881C42.374 194.299 42.1662 193.738 41.796 193.289C41.4043 192.82 40.8487 192.517 40.242 192.443C39.6069 192.35 38.9606 192.51 38.442 192.888C37.912 193.3 37.542 193.886 37.402 194.542C37.2376 195.222 37.2787 195.935 37.52 196.592C37.7813 197.273 38.1881 197.889 38.712 198.396C39.8734 199.487 41.2962 200.261 42.8435 200.643C44.3907 201.025 46.0101 201.002 47.546 200.577C48.3648 200.383 49.1216 199.987 49.747 199.424C50.043 199.133 50.259 198.77 50.374 198.371C50.492 197.971 50.464 197.542 50.292 197.162C50.1025 196.784 49.8166 196.463 49.4634 196.231C49.1102 195.999 48.702 195.864 48.28 195.84C47.84 195.822 47.405 195.93 47.026 196.153C46.645 196.381 46.3195 196.691 46.073 197.061C45.5625 197.816 45.3686 198.741 45.533 199.637C45.7058 200.55 46.1194 201.4 46.731 202.1C47.9949 203.55 49.764 204.464 51.678 204.656C52.6306 204.764 53.5949 204.7 54.525 204.468C55.4363 204.222 56.2891 203.796 57.033 203.215C58.5066 202.08 59.5304 200.459 59.923 198.641C60.115 197.759 60.145 196.851 60.011 195.959C59.9126 195.085 59.5644 194.258 59.008 193.577C58.7392 193.259 58.3755 193.036 57.9702 192.94C57.565 192.844 57.1397 192.881 56.757 193.045C56.5795 193.142 56.4235 193.275 56.2986 193.434C56.1736 193.593 56.0822 193.776 56.03 193.972C55.9141 194.363 55.9141 194.778 56.03 195.169C56.2956 195.947 56.7682 196.638 57.397 197.168C57.997 197.703 58.687 198.127 59.434 198.421C60.8778 198.987 62.4783 199.007 63.936 198.478C65.2915 197.977 66.4471 197.049 67.228 195.833C67.599 195.26 67.858 194.623 67.993 193.953C68.1352 193.318 68.051 192.653 67.755 192.074C67.6143 191.807 67.4158 191.575 67.1739 191.395C66.932 191.215 66.6529 191.091 66.357 191.033C66.0725 190.989 65.7814 191.026 65.517 191.14C65.271 191.261 65.057 191.437 64.889 191.654C64.5507 192.089 64.3579 192.619 64.338 193.17C64.331 193.687 64.433 194.2 64.638 194.674C65.0329 195.527 65.6668 196.248 66.463 196.748C67.1275 197.177 67.865 197.481 68.639 197.644C69.716 197.86 70.817 197.927 71.912 197.845L72.771 197.795L73.022 197.801Z" fill="white"/>
<path d="M236.672 0H188.26V36.933H236.672V0ZM131.026 77.232L188.26 36.933H236.672L296.369 77.232V82.852H131.026V77.232Z" fill="#EFEEEE"/>
<path d="M296.369 77.232H131.026V82.852H296.369V77.232Z" fill="#E7E7E7"/>
<path d="M198.468 37.29L173.745 77.232H214.839L207.547 37.291V0H198.267L198.468 37.29Z" fill="white"/>
<path d="M235.982 37.29C235.982 37.378 225.147 37.453 211.779 37.453C198.411 37.453 187.57 37.378 187.57 37.291C187.57 37.203 198.411 37.128 211.779 37.128C225.147 37.128 235.982 37.196 235.982 37.29Z" fill="#DEDEDE"/>
<path d="M16.917 131.93H0V148.836H16.917V131.93ZM16.917 150.873H0V167.779H16.917V150.873ZM35.978 131.93H19.06V148.836H35.977L35.978 131.93ZM35.978 150.873H19.06V167.779H35.977L35.978 150.873ZM55.045 131.93H38.128V148.836H55.045V131.93ZM55.045 150.873H38.128V167.779H55.045V150.873ZM74.107 131.93H57.19V148.836H74.107V131.93ZM74.107 150.873H57.19V167.779H74.107V150.873ZM92.88 131.93H75.961V148.836H92.88V131.93ZM92.88 150.873H75.961V167.779H92.88V150.873ZM111.947 131.93H95.03V148.836H111.947V131.93ZM111.947 150.873H95.03V167.779H111.947V150.873ZM131.008 131.93H114.091V148.836H131.008V131.93ZM131.008 150.873H114.091V167.779H131.008V150.873ZM150.075 131.93H133.158V148.836H150.075V131.93ZM150.075 150.873H133.158V167.779H150.075V150.873ZM168.842 131.93H151.925V148.836H168.842V131.93ZM168.842 150.873H151.925V167.779H168.842V150.873ZM187.909 131.93H170.992V148.836H187.909V131.93ZM187.909 150.873H170.992V167.779H187.909V150.873ZM206.97 131.93H190.053V148.836H206.97V131.93ZM206.97 150.873H190.053V167.779H206.97V150.873ZM226.037 131.93H209.121V148.836H226.037V131.93ZM226.037 150.873H209.121V167.779H226.037V150.873ZM244.81 131.93H227.894V148.836H244.81V131.93ZM244.81 150.873H227.894V167.779H244.81V150.873ZM263.871 131.93H246.955V148.836H263.871V131.93ZM263.871 150.873H246.955V167.779H263.871V150.873ZM282.932 131.93H266.016V148.836H282.932V131.93ZM282.932 150.873H266.016V167.779H282.932V150.873ZM302 131.93H285.083V148.836H302V131.93ZM302 150.873H285.083V167.779H302V150.873Z" fill="white"/>
<path d="M288.858 288.724C288.858 288.812 227.48 288.887 151.781 288.887C76.081 288.887 14.697 288.812 14.697 288.724C14.697 288.636 76.063 288.561 151.781 288.561C227.499 288.561 288.858 288.63 288.858 288.724Z" fill="#3D3D3D"/>
<path d="M165.983 82.364L171.852 82.332C174.748 86.0161 178.917 88.4846 183.54 89.2528C188.163 90.021 192.906 89.0334 196.838 86.484C200.769 83.9358 203.605 80.0083 204.785 75.4745C205.966 70.9407 205.407 66.1292 203.218 61.987C201.029 57.8445 197.369 54.6705 192.959 53.089C188.547 51.5066 183.703 51.6308 179.378 53.437C175.054 55.2428 171.563 58.6005 169.589 62.85C167.616 67.0985 167.305 71.9316 168.717 76.398L165.983 82.364Z" fill="white"/>
<path d="M165.983 82.364C165.983 82.364 166.052 82.226 166.171 81.969L166.704 80.829L168.76 76.411H168.666C168.678 76.4198 168.692 76.4245 168.707 76.4245C168.722 76.4245 168.736 76.4198 168.748 76.411C168.755 76.4007 168.758 76.3884 168.758 76.376C167.815 73.3877 167.639 70.2102 168.246 67.136C168.433 66.193 168.693 65.265 169.024 64.361C169.391 63.398 169.829 62.464 170.334 61.566C172.678 57.4148 176.532 54.3267 181.094 52.944C183.649 52.1784 186.337 51.9647 188.981 52.317C193.381 52.906 197.425 55.048 200.381 58.357C203.337 61.6648 205.012 65.9216 205.102 70.357C205.152 73.2461 204.538 76.1081 203.309 78.723C202.143 81.1783 200.447 83.3444 198.343 85.065C196.4 86.6591 194.157 87.8478 191.747 88.561C189.562 89.204 187.277 89.441 185.006 89.257L184.21 89.182C183.948 89.1637 183.688 89.1259 183.432 89.069L181.928 88.768C180.994 88.506 180.075 88.1942 179.175 87.834C176.318 86.6194 173.81 84.7111 171.877 82.282C171.87 82.2786 171.863 82.2769 171.855 82.2769C171.847 82.2769 171.84 82.2786 171.833 82.282L167.488 82.339H165.964H171.833H171.789C173.719 84.8023 176.237 86.7415 179.112 87.979C180.018 88.347 180.943 88.665 181.884 88.931L183.401 89.238C183.659 89.296 183.921 89.336 184.185 89.357L184.987 89.439C189.865 89.8455 194.71 88.3349 198.493 85.228C200.624 83.4913 202.338 81.2984 203.509 78.811C204.761 76.1647 205.387 73.266 205.34 70.339C205.282 67.2653 204.47 64.2528 202.976 61.566C202.802 61.2275 202.605 60.9011 202.387 60.589L201.76 59.642L201.051 58.759C200.83 58.4553 200.585 58.1704 200.318 57.907L199.54 57.105C199.283 56.829 198.976 56.615 198.7 56.365C198.43 56.1139 198.145 55.8795 197.847 55.663L196.938 55.037C194.554 53.4344 191.83 52.4086 188.981 52.041C185.259 51.5442 181.473 52.1742 178.113 53.8498C174.752 55.5253 171.97 58.1694 170.127 61.441C169.619 62.3492 169.179 63.2937 168.811 64.267C168.479 65.183 168.221 66.124 168.039 67.08C167.452 70.2054 167.668 73.4287 168.666 76.448L168.773 76.398C168.761 76.3892 168.747 76.3845 168.732 76.3845C168.717 76.3845 168.703 76.3892 168.691 76.398C167.814 78.353 167.143 79.858 166.685 80.885L166.183 82.019C166.033 82.239 165.983 82.364 165.983 82.364Z" fill="#3D3D3D"/>
<path d="M177.018 71.555L179.633 68.665L185.182 73.115L193.421 63.659L196.111 66.279L185.056 78.441L177.018 71.555Z" fill="#7BB93F"/>
<path d="M147.442 80.415L100.172 83.235C97.225 93.725 96.799 103.845 100.021 114.24C100.937 117.204 102.291 120.337 105.414 122.061C108.204 123.602 111.822 123.696 115.22 123.659C131.652 123.488 148.019 121.568 164.045 117.931C160.91 116.195 159.117 113.012 159.531 109.948C160.885 112.949 164.729 114.999 168.692 115.124C170.599 115.179 172.497 114.844 174.27 114.14C176.042 113.435 177.652 112.375 179 111.026C165.531 104.916 147.762 92.91 147.442 80.415Z" fill="#3D3D3D"/>
<path d="M178.699 100.26C178.561 100.274 178.423 100.274 178.285 100.26C178.015 100.26 177.62 100.26 177.112 100.223C175.669 100.148 174.23 100.011 172.798 99.815C168.046 99.2105 163.448 97.723 159.242 95.429C156.946 94.1269 154.846 92.5065 153.004 90.616C151.502 89.0765 150.213 87.3419 149.173 85.459C148.468 84.1917 147.905 82.851 147.492 81.461C147.335 80.973 147.273 80.578 147.204 80.321C147.165 80.1885 147.142 80.0519 147.135 79.914C147.166 79.914 147.298 80.459 147.618 81.424C148.072 82.7861 148.66 84.0998 149.373 85.346C150.429 87.1952 151.724 88.8977 153.223 90.41C155.057 92.2601 157.135 93.8514 159.399 95.14C163.576 97.4038 168.125 98.9002 172.83 99.558C174.629 99.834 176.103 99.984 177.118 100.066L178.291 100.166C178.43 100.182 178.567 100.213 178.699 100.26ZM186.9 191.66C186.724 191.71 172.955 187.336 172.955 187.336L168.628 190.751L180.435 195.877C180.435 195.877 185.646 196.466 188.141 197.939C190.637 199.411 186.9 191.66 186.9 191.66Z" fill="#3D3D3D"/>
<path d="M184.78 192.512C184.78 192.512 184.78 192.65 184.874 192.894C185.269 194.329 187.232 199.455 195.383 202.413C204.926 205.872 225.73 206.837 229.185 206.298C235.863 205.245 242.102 200.032 241.845 198.735" fill="#3D3D3D"/>
<path d="M241.845 198.734C241.613 200.852 228.678 201.178 212.896 199.461C197.114 197.744 184.549 194.63 184.781 192.512C185.012 190.394 197.948 190.062 213.73 191.779C229.511 193.496 242.077 196.61 241.845 198.734Z" fill="#455A64"/>
<path d="M221.831 197.256C222.884 196.203 224.339 195.576 223.593 194.354C223.379 194.768 222.339 194.755 221.969 195.075C221.599 195.394 220.589 195.018 220.088 194.887C219.807 194.801 219.564 194.622 219.398 194.38C219.233 194.137 219.156 193.845 219.179 193.552C219.268 192.986 219.501 192.453 219.856 192.004C220.516 191.019 221.206 190.056 221.925 189.116C222.222 188.803 222.438 188.422 222.552 188.007C222.587 187.791 222.543 187.57 222.428 187.385C222.312 187.199 222.134 187.062 221.925 186.998C221.509 186.941 221.087 187.046 220.746 187.292C219.179 188.176 217.655 189.297 217.078 190.845C216.721 191.823 216.771 192.894 216.332 193.84C215.893 194.787 214.645 195.614 213.592 195.15C213.301 194.994 213.05 194.774 212.855 194.507C212.661 194.241 212.529 193.934 212.469 193.609C212.372 192.972 212.137 192.365 211.78 191.829C211.561 191.555 211.252 191.368 210.909 191.298C210.565 191.228 210.208 191.281 209.899 191.447C208.971 192.155 210.162 193.696 209.36 194.511C209.162 194.677 208.926 194.79 208.672 194.84C208.419 194.889 208.157 194.873 207.911 194.793C207.43 194.634 206.988 194.376 206.613 194.035C204.043 191.985 202.126 189.23 201.096 186.108C200.999 185.71 200.833 185.332 200.606 184.992C200.473 184.814 200.299 184.671 200.097 184.577C199.896 184.484 199.675 184.441 199.453 184.454C199.128 184.532 198.842 184.725 198.649 184.999C198.456 185.272 198.37 185.606 198.406 185.939C198.406 187.737 199.722 189.304 200.989 190.726L205.347 195.645L207.328 197.932L215.849 199.812L221.611 198.622L221.831 197.256Z" fill="#7BB93F"/>
<path opacity="0.6" d="M221.831 197.256C222.884 196.203 224.339 195.576 223.593 194.354C223.379 194.768 222.339 194.755 221.969 195.075C221.599 195.394 220.589 195.018 220.088 194.887C219.807 194.801 219.564 194.622 219.398 194.38C219.233 194.137 219.156 193.845 219.179 193.552C219.268 192.986 219.501 192.453 219.856 192.004C220.516 191.019 221.206 190.056 221.925 189.116C222.222 188.803 222.438 188.422 222.552 188.007C222.587 187.791 222.543 187.57 222.428 187.385C222.312 187.199 222.134 187.062 221.925 186.998C221.509 186.941 221.087 187.046 220.746 187.292C219.179 188.176 217.655 189.297 217.078 190.845C216.721 191.823 216.771 192.894 216.332 193.84C215.893 194.787 214.645 195.614 213.592 195.15C213.301 194.994 213.05 194.774 212.855 194.507C212.661 194.241 212.529 193.934 212.469 193.609C212.372 192.972 212.137 192.365 211.78 191.829C211.561 191.555 211.252 191.368 210.909 191.298C210.565 191.228 210.208 191.281 209.899 191.447C208.971 192.155 210.162 193.696 209.36 194.511C209.162 194.677 208.926 194.79 208.672 194.84C208.419 194.889 208.157 194.873 207.911 194.793C207.43 194.634 206.988 194.376 206.613 194.035C204.043 191.985 202.126 189.23 201.096 186.108C200.999 185.71 200.833 185.332 200.606 184.992C200.473 184.814 200.299 184.671 200.097 184.577C199.896 184.484 199.675 184.441 199.453 184.454C199.128 184.532 198.842 184.725 198.649 184.999C198.456 185.272 198.37 185.606 198.406 185.939C198.406 187.737 199.722 189.304 200.989 190.726L205.347 195.645L207.328 197.932L215.849 199.812L221.611 198.622L221.831 197.256Z" fill="white"/>
<path d="M224.251 200.583C224.387 199.978 224.697 199.427 225.143 198.996C225.588 198.565 226.15 198.274 226.759 198.158C227.201 198.109 227.635 198.006 228.051 197.851C228.439 197.657 228.678 197.224 228.458 196.873C228.239 196.522 227.674 196.579 227.236 196.641L224.251 197.068L226.659 194.655C226.972 194.342 227.286 193.903 227.079 193.533C226.872 193.164 226.276 193.164 225.825 193.245C224.295 193.499 222.899 194.273 221.875 195.438C221.028 196.441 220.552 197.694 219.473 198.509C218.956 198.882 218.364 199.138 217.738 199.259C217.113 199.381 216.468 199.364 215.849 199.211C215.256 199.078 214.703 198.804 214.239 198.411C213.775 198.018 213.413 197.518 213.184 196.955C213.084 196.474 212.881 196.021 212.589 195.626C211.905 194.943 210.507 195.238 209.911 195.977C209.398 196.747 209.209 197.688 209.385 198.597C206.651 195.037 203.591 191.309 199.02 189.742C198.224 189.426 197.364 189.306 196.512 189.391C196.106 189.424 195.719 189.576 195.398 189.828C195.078 190.08 194.84 190.421 194.712 190.808C194.549 191.672 195.339 192.462 196.13 192.969C197.691 193.941 199.603 194.361 201.29 195.15C202.976 195.94 204.807 197.118 204.701 198.785C204.701 198.785 212.927 200.038 217.003 200.138C221.078 200.238 224.251 200.583 224.251 200.583Z" fill="#7BB93F"/>
<path opacity="0.8" d="M224.251 200.583C224.387 199.978 224.697 199.427 225.143 198.996C225.588 198.565 226.15 198.274 226.759 198.158C227.201 198.109 227.635 198.006 228.051 197.851C228.439 197.657 228.678 197.224 228.458 196.873C228.239 196.522 227.674 196.579 227.236 196.641L224.251 197.068L226.659 194.655C226.972 194.342 227.286 193.903 227.079 193.533C226.872 193.164 226.276 193.164 225.825 193.245C224.295 193.499 222.899 194.273 221.875 195.438C221.028 196.441 220.552 197.694 219.473 198.509C218.956 198.882 218.364 199.138 217.738 199.259C217.113 199.381 216.468 199.364 215.849 199.211C215.256 199.078 214.703 198.804 214.239 198.411C213.775 198.018 213.413 197.518 213.184 196.955C213.084 196.474 212.881 196.021 212.589 195.626C211.905 194.943 210.507 195.238 209.911 195.977C209.398 196.747 209.209 197.688 209.385 198.597C206.651 195.037 203.591 191.309 199.02 189.742C198.224 189.426 197.364 189.306 196.512 189.391C196.106 189.424 195.719 189.576 195.398 189.828C195.078 190.08 194.84 190.421 194.712 190.808C194.549 191.672 195.339 192.462 196.13 192.969C197.691 193.941 199.603 194.361 201.29 195.15C202.976 195.94 204.807 197.118 204.701 198.785C204.701 198.785 212.927 200.038 217.003 200.138C221.078 200.238 224.251 200.583 224.251 200.583Z" fill="white"/>
<path d="M194.104 205.734C193.7 205.744 193.297 205.676 192.919 205.533C191.985 205.259 191.102 204.836 190.304 204.28C189.501 203.725 188.796 203.041 188.216 202.256C187.951 201.952 187.749 201.598 187.621 201.216C188.458 202.263 189.42 203.204 190.486 204.017C191.619 204.732 192.834 205.308 194.104 205.734ZM192.549 207.213C192.145 207.223 191.742 207.155 191.364 207.012C189.481 206.451 187.83 205.297 186.655 203.722C186.393 203.416 186.191 203.063 186.06 202.682C186.902 203.727 187.866 204.667 188.931 205.483C190.063 206.204 191.277 206.785 192.549 207.213ZM247.67 200.978C247.643 201.149 247.588 201.314 247.507 201.467C247.327 201.899 247.118 202.317 246.88 202.72C246.128 204.058 245.186 205.28 244.083 206.348C242.982 207.417 241.729 208.319 240.365 209.024C239.96 209.242 239.541 209.432 239.111 209.594C238.957 209.667 238.792 209.716 238.622 209.738C238.622 209.682 239.249 209.4 240.271 208.823C242.899 207.317 245.108 205.178 246.698 202.601C247.325 201.611 247.632 200.959 247.67 200.978ZM250.692 202.269C250.621 202.662 250.48 203.04 250.278 203.384C249.407 205.101 248.112 206.568 246.516 207.645C246.2 207.886 245.846 208.073 245.469 208.197C246.514 207.381 247.501 206.493 248.422 205.54C249.259 204.508 250.018 203.414 250.692 202.269Z" fill="#3D3D3D"/>
<path d="M235.594 160.987L241.419 159.37C241.419 159.37 246.222 160.097 247.463 159.176C248.705 158.255 248.09 157.722 248.09 157.722C250.711 156.732 249.777 155.573 249.777 155.573C249.777 155.573 252.379 155.372 252.429 153.323C252.429 152.126 242.497 150.146 242.497 150.146C242.538 149.753 242.658 149.372 242.848 149.025C243.039 148.678 243.297 148.374 243.607 148.128C244.623 147.401 250.504 148.811 252.291 148.266C252.791 148.125 253.228 147.82 253.532 147.399C253.836 146.978 253.989 146.467 253.965 145.948C253.965 145.948 241.651 143.441 239.055 144.525C236.459 145.609 224.007 150.791 222.125 153.298L226.264 161.933C227.023 162.202 227.795 162.432 228.577 162.622C230.659 163.186 235.594 160.987 235.594 160.987Z" fill="#FFBF9D"/>
<path d="M228.903 158.85C228.903 158.806 229.386 158.812 230.226 158.699C231.415 158.534 232.567 158.165 233.631 157.609C234.359 157.226 235.038 156.755 235.65 156.205C235.987 155.899 236.304 155.57 236.597 155.222C236.905 154.819 237.238 154.436 237.594 154.075C237.798 153.866 238.042 153.699 238.311 153.583C238.58 153.468 238.869 153.407 239.161 153.404C239.723 153.431 240.281 153.508 240.829 153.636C241.933 153.868 243.011 154.263 244.115 154.075C244.821 153.994 245.487 153.703 246.027 153.241C246.541 152.822 246.855 152.114 246.591 151.675L246.748 151.794C243.829 151.128 240.878 150.612 237.907 150.246L235.311 149.864C234.995 149.839 234.683 149.773 234.383 149.67C234.7 149.629 235.02 149.629 235.336 149.67C235.963 149.714 236.835 149.789 237.945 149.895C240.948 150.159 243.93 150.617 246.873 151.268H246.98L247.036 151.355C247.14 151.546 247.199 151.758 247.209 151.975C247.218 152.193 247.179 152.409 247.093 152.609C246.939 152.989 246.696 153.326 246.384 153.592C245.763 154.126 244.997 154.462 244.184 154.557C243.577 154.627 242.964 154.601 242.365 154.482L240.716 154.106C240.207 153.977 239.686 153.899 239.161 153.874C238.927 153.869 238.695 153.912 238.479 154.002C238.263 154.091 238.068 154.225 237.907 154.394C237.561 154.735 237.236 155.097 236.935 155.478C236.624 155.841 236.284 156.178 235.92 156.487C234.324 157.865 232.328 158.695 230.226 158.856C229.788 158.932 229.34 158.93 228.903 158.85Z" fill="#FF9A6C"/>
<path d="M240.81 154.037C240.948 154.081 240.666 155.247 240.033 156.544C239.4 157.841 238.666 158.812 238.547 158.737C238.428 158.662 238.929 157.603 239.544 156.312C240.158 155.021 240.666 153.987 240.81 154.037ZM247.569 157.484C247.569 157.628 245.927 157.44 243.939 157.221C241.951 157.001 240.34 156.826 240.346 156.675C240.352 156.525 241.995 156.456 244.002 156.675C246.008 156.895 247.594 157.34 247.569 157.484ZM250.56 155.679C250.56 155.829 248.478 155.679 245.958 155.297C243.437 154.915 241.412 154.532 241.431 154.382C241.45 154.232 243.512 154.382 246.033 154.764C248.554 155.146 250.579 155.535 250.56 155.679ZM242.302 147.32C242.447 147.32 242.559 148.072 242.447 148.987C242.334 149.902 242.052 150.603 241.907 150.566C241.763 150.528 241.807 149.801 241.907 148.918C242.008 148.034 242.146 147.314 242.302 147.32Z" fill="#FF9A6C"/>
<path d="M173.105 150.133L190.16 159.163L223.454 152.702L228.182 162.49C228.182 162.49 197.753 175.812 189.257 175.957C180.761 176.101 165.318 166.093 165.318 166.093L173.105 150.133Z" fill="#FFBF9D"/>
<path d="M214.231 159.627C214.231 159.627 210.187 158.844 209.459 161.864C208.732 164.884 212.35 165.624 212.35 165.624C212.35 165.624 211.685 167.71 215.178 168.801C218.67 169.891 219.36 166.1 219.36 166.1C219.36 166.1 222.645 167.178 222.89 165.06C223.26 161.927 220.708 161.67 220.708 161.67C220.708 161.67 223.216 158.599 219.109 157.383C215.002 156.168 214.231 159.627 214.231 159.627ZM218.62 158.731C220.996 159.232 219.435 162.196 219.435 162.196C219.435 162.196 222.125 162.823 221.592 164.395C221.059 165.968 218.413 164.947 218.413 164.947C218.413 164.947 219.385 167.654 216.125 167.685C212.864 167.717 214.212 164.916 214.212 164.916C214.212 164.916 211.566 165.16 211.008 162.647C210.45 160.134 215.015 160.88 215.015 160.88C215.134 158.75 216.219 158.229 218.601 158.731H218.62Z" fill="#7BB93F"/>
<path opacity="0.3" d="M214.231 159.627C214.231 159.627 210.187 158.844 209.459 161.864C208.732 164.884 212.35 165.624 212.35 165.624C212.35 165.624 211.685 167.71 215.178 168.801C218.67 169.891 219.36 166.1 219.36 166.1C219.36 166.1 222.645 167.178 222.89 165.06C223.26 161.927 220.708 161.67 220.708 161.67C220.708 161.67 223.216 158.599 219.109 157.383C215.002 156.168 214.231 159.627 214.231 159.627ZM218.62 158.731C220.996 159.232 219.435 162.196 219.435 162.196C219.435 162.196 222.125 162.823 221.592 164.395C221.059 165.968 218.413 164.947 218.413 164.947C218.413 164.947 219.385 167.654 216.125 167.685C212.864 167.717 214.212 164.916 214.212 164.916C214.212 164.916 211.566 165.16 211.008 162.647C210.45 160.134 215.015 160.88 215.015 160.88C215.134 158.75 216.219 158.229 218.601 158.731H218.62Z" fill="black"/>
<path d="M214.294 158.843C214.294 158.843 210.249 158.06 209.516 161.074C208.782 164.088 212.413 164.834 212.413 164.834C212.413 164.834 211.742 166.921 215.24 168.011C218.739 169.101 219.423 165.31 219.423 165.31C219.423 165.31 222.708 166.388 222.953 164.27C223.329 161.137 220.771 160.88 220.771 160.88C220.771 160.88 223.279 157.816 219.172 156.594C215.065 155.372 214.294 158.843 214.294 158.843ZM218.683 157.947C221.065 158.455 219.498 161.419 219.498 161.419C219.498 161.419 222.188 162.046 221.661 163.612C221.134 165.179 218.476 164.164 218.476 164.164C218.476 164.164 219.448 166.871 216.194 166.902C212.939 166.933 214.281 164.126 214.281 164.126C214.281 164.126 211.635 164.377 211.071 161.864C210.507 159.351 215.084 160.097 215.084 160.097C215.203 157.966 216.306 157.446 218.683 157.947ZM216.137 130.827C216.137 130.827 212.068 131.454 212.407 134.555C212.745 137.657 216.42 137.125 216.42 137.125C216.42 137.125 216.507 139.312 220.182 139.149C223.856 138.986 223.185 135.182 223.185 135.182C223.185 135.182 226.646 135.076 226.157 133.001C225.43 129.925 222.947 130.558 222.947 130.558C222.947 130.558 224.264 126.798 219.981 127.074C215.699 127.349 216.137 130.827 216.137 130.827ZM219.937 128.496C222.345 128.158 221.881 131.479 221.881 131.479C221.881 131.479 224.621 131.134 224.665 132.807C224.709 134.48 221.862 134.411 221.862 134.411C221.862 134.411 223.699 136.623 220.646 137.764C217.592 138.904 217.906 135.809 217.906 135.809C217.906 135.809 215.504 136.943 214.144 134.775C212.783 132.607 217.279 131.748 217.279 131.748C216.683 129.712 217.523 128.834 219.937 128.496Z" fill="#7BB93F"/>
<path opacity="0.3" d="M216.137 130.827C216.137 130.827 212.068 131.454 212.407 134.555C212.745 137.657 216.42 137.125 216.42 137.125C216.42 137.125 216.507 139.312 220.182 139.149C223.856 138.986 223.185 135.182 223.185 135.182C223.185 135.182 226.646 135.076 226.157 133.001C225.43 129.925 222.947 130.558 222.947 130.558C222.947 130.558 224.264 126.798 219.981 127.074C215.699 127.349 216.137 130.827 216.137 130.827ZM219.937 128.496C222.345 128.158 221.881 131.479 221.881 131.479C221.881 131.479 224.621 131.134 224.665 132.807C224.709 134.48 221.862 134.411 221.862 134.411C221.862 134.411 223.699 136.623 220.646 137.764C217.592 138.904 217.906 135.809 217.906 135.809C217.906 135.809 215.504 136.943 214.144 134.775C212.783 132.607 217.279 131.748 217.279 131.748C216.683 129.712 217.523 128.834 219.937 128.496Z" fill="black"/>
<path d="M215.924 130.075C215.924 130.075 211.855 130.702 212.199 133.797C212.544 136.893 216.206 136.366 216.206 136.366C216.206 136.366 216.294 138.553 219.968 138.39C223.642 138.228 222.978 134.43 222.978 134.43C222.978 134.43 226.439 134.317 225.95 132.243C225.222 129.166 222.74 129.806 222.74 129.806C222.74 129.806 224.056 126.046 219.774 126.315C215.491 126.585 215.924 130.075 215.924 130.075ZM219.724 127.738C222.138 127.406 221.674 130.727 221.674 130.727C221.674 130.727 224.407 130.382 224.451 132.049C224.495 133.716 221.649 133.653 221.649 133.653C221.649 133.653 223.486 135.865 220.438 137.012C217.391 138.159 217.692 135.051 217.692 135.051C217.692 135.051 215.291 136.185 213.93 134.017C212.569 131.848 217.071 130.965 217.071 130.965C216.444 128.922 217.316 128.057 219.724 127.713V127.738Z" fill="#7BB93F"/>
<path d="M209.773 145.697C209.773 145.697 207.202 145.81 207.046 147.671C206.889 149.532 207.616 152.577 212.062 153.242C216.507 153.906 217.078 148.36 217.078 148.36C217.078 148.36 215.786 145.446 209.773 145.697Z" fill="#DEDEDE"/>
<path opacity="0.21" d="M212.3 150.716C213.159 150.793 214.024 150.677 214.832 150.377C215.64 150.077 216.371 149.599 216.971 148.98C217.053 148.598 217.078 148.354 217.078 148.354C217.078 148.354 215.786 145.44 209.773 145.691C209.773 145.691 207.202 145.803 207.045 147.664C207.055 147.792 207.055 147.919 207.045 148.047C208.379 149.591 210.266 150.549 212.3 150.716Z" fill="#3D3D3D"/>
<path d="M210.262 144.487L209.529 147.702C209.924 148.143 210.407 148.496 210.947 148.738C211.487 148.98 212.072 149.105 212.664 149.106C214.545 149.005 214.545 148.304 214.545 148.304L215.31 145.014C214.287 144.298 213.093 143.865 211.849 143.76C210.049 143.704 210.262 144.487 210.262 144.487ZM196.361 167.366C196.361 167.366 194.737 169.352 196.023 170.706C197.308 172.059 200.061 173.557 203.547 170.706C207.033 167.854 203.233 163.725 203.233 163.725C203.233 163.725 200.186 162.716 196.361 167.366Z" fill="#DEDEDE"/>
<path opacity="0.21" d="M201.791 168.826C202.421 168.237 202.911 167.516 203.227 166.714C203.543 165.911 203.676 165.049 203.616 164.189C203.378 163.875 203.221 163.694 203.221 163.694C203.221 163.694 200.186 162.716 196.361 167.366C196.361 167.366 194.737 169.352 196.023 170.706C196.119 170.791 196.209 170.883 196.292 170.981C198.336 171.01 200.311 170.236 201.791 168.826Z" fill="#3D3D3D"/>
<path d="M195.785 166.187L197.697 168.882C198.289 168.879 198.874 168.752 199.414 168.509C199.954 168.266 200.437 167.913 200.832 167.472C201.998 166.018 201.459 165.555 201.459 165.555L199.515 162.785C198.298 163.07 197.178 163.671 196.268 164.527C195.051 165.843 195.785 166.187 195.785 166.187ZM225.216 167.228C225.216 167.228 226.959 168.45 228 167.309C229.041 166.169 230.113 163.806 227.517 161.112C224.922 158.417 221.768 161.789 221.768 161.789C221.768 161.789 221.147 164.351 225.216 167.228Z" fill="#DEDEDE"/>
<path opacity="0.21" d="M226.094 162.66C225.573 162.169 224.948 161.801 224.265 161.584C223.583 161.367 222.86 161.306 222.151 161.406C222.018 161.52 221.89 161.639 221.768 161.764C221.768 161.764 221.141 164.326 225.217 167.203C225.217 167.203 226.96 168.425 228.001 167.284C228.074 167.204 228.143 167.121 228.208 167.034C228.101 165.356 227.342 163.786 226.094 162.66Z" fill="#3D3D3D"/>
<path d="M224.276 167.792L226.389 166.056C226.353 165.566 226.214 165.09 225.98 164.658C225.747 164.226 225.425 163.848 225.035 163.549C223.781 162.678 223.411 163.136 223.411 163.136L221.235 164.909C221.541 165.897 222.103 166.786 222.865 167.485C224.038 168.406 224.276 167.792 224.276 167.792Z" fill="#DEDEDE"/>
<path d="M215.065 188.752C215.065 188.752 210.638 190.519 207.673 184.905C204.707 179.29 205.165 174.039 209.178 172.842C213.19 171.645 214.513 173.663 215.341 175.111C216.169 176.558 218.131 179.817 218.476 182.749C218.67 184.404 217.749 187.925 215.065 188.752Z" fill="#AE7461"/>
<path opacity="0.3" d="M214.996 187.129C215.857 186.744 216.566 186.082 217.009 185.249V185.287V185.237L217.078 185.13C217.12 185.056 217.155 184.979 217.184 184.899L217.222 184.836L217.191 184.892C217.444 184.153 217.508 183.363 217.379 182.593C217.33 182.132 217.216 181.681 217.04 181.252C216.859 180.824 216.527 180.478 216.106 180.28C215.868 180.188 215.613 180.153 215.359 180.177C215.106 180.201 214.861 180.283 214.645 180.418C214.21 180.691 213.875 181.098 213.692 181.577C213.51 182.01 213.435 182.486 213.272 182.931C213.135 183.388 212.824 183.773 212.406 184.002C212.055 184.165 211.635 184.14 211.265 184.278C210.952 184.406 210.695 184.643 210.541 184.944C210.387 185.245 210.346 185.591 210.425 185.92C210.539 186.218 210.72 186.486 210.954 186.703C211.187 186.92 211.468 187.081 211.773 187.173C212.812 187.581 213.969 187.565 214.996 187.129ZM210.45 173.488C209.52 173.623 208.662 174.064 208.011 174.741V174.71V174.753L207.93 174.847C207.878 174.916 207.821 174.981 207.76 175.042L207.723 175.104L207.76 175.054C207.307 175.685 207.02 176.42 206.926 177.191C206.844 177.644 206.827 178.106 206.876 178.563C206.931 179.024 207.154 179.448 207.503 179.754C207.708 179.906 207.945 180.009 208.196 180.056C208.448 180.102 208.706 180.091 208.952 180.023C209.45 179.88 209.889 179.581 210.206 179.171C210.5 178.801 210.701 178.369 210.971 177.981C211.096 177.78 211.259 177.605 211.452 177.467C211.644 177.329 211.862 177.231 212.093 177.178C212.475 177.128 212.877 177.26 213.265 177.229C213.6 177.19 213.91 177.033 214.14 176.786C214.37 176.539 214.504 176.218 214.519 175.881C214.494 175.559 214.395 175.247 214.23 174.97C214.065 174.693 213.837 174.458 213.566 174.283C212.671 173.622 211.553 173.337 210.45 173.488ZM211.178 180.832C211.001 180.836 210.827 180.872 210.664 180.938L209.648 181.283C209.384 181.377 209.09 181.496 209.021 181.772C208.995 181.859 208.997 181.953 209.026 182.039C209.056 182.125 209.111 182.2 209.184 182.254C209.258 182.306 209.342 182.342 209.431 182.358C209.519 182.374 209.611 182.371 209.698 182.348H209.654C210.211 182.326 210.753 182.155 211.222 181.853C211.36 181.778 211.479 181.671 211.566 181.54C211.613 181.478 211.642 181.405 211.651 181.327C211.66 181.25 211.648 181.172 211.617 181.101C211.576 181.02 211.513 180.952 211.435 180.905C211.358 180.857 211.269 180.832 211.178 180.832Z" fill="#6F4439"/>
<path d="M206.87 175.593C206.87 175.593 206.764 175.925 206.626 176.464C206.265 177.884 206.302 179.375 206.732 180.775C206.895 181.314 207.04 181.634 207.021 181.64C206.971 181.574 206.929 181.503 206.895 181.427C206.799 181.224 206.715 181.015 206.645 180.801C206.152 179.386 206.113 177.853 206.532 176.414C206.594 176.201 206.669 175.991 206.757 175.788C206.784 175.717 206.822 175.651 206.87 175.593ZM208.068 174.089C208.099 174.089 207.967 174.29 207.779 174.484C207.591 174.678 207.428 174.804 207.39 174.779C207.353 174.754 207.491 174.578 207.679 174.384C207.867 174.19 208.043 174.064 208.068 174.089ZM209.14 185.864C208.93 185.738 208.748 185.572 208.604 185.373C208.461 185.175 208.359 184.95 208.306 184.711C208.453 184.897 208.589 185.091 208.714 185.293C208.868 185.474 209.011 185.664 209.14 185.864Z" fill="white"/>
<path d="M220.784 146.004C220.784 146.004 217.304 144.375 218.972 139.55C220.639 134.725 223.988 132.087 226.884 133.785C229.781 135.483 229.342 137.363 228.941 138.647C228.54 139.932 227.718 142.877 226.195 144.701C225.323 145.703 222.746 147.101 220.784 146.004Z" fill="#AE7461"/>
<path opacity="0.3" d="M221.699 145.051C222.401 145.339 223.178 145.39 223.912 145.196H223.881H224.025C224.091 145.179 224.156 145.158 224.219 145.133H224.276H224.226C224.799 144.876 225.299 144.48 225.68 143.98C225.925 143.699 226.126 143.382 226.276 143.04C226.431 142.701 226.453 142.317 226.339 141.962C226.261 141.772 226.14 141.602 225.985 141.466C225.831 141.33 225.647 141.232 225.448 141.179C225.049 141.073 224.626 141.102 224.244 141.26C223.887 141.392 223.567 141.605 223.216 141.755C223.047 141.842 222.863 141.895 222.673 141.91C222.484 141.925 222.293 141.902 222.113 141.843C221.818 141.724 221.605 141.467 221.323 141.323C221.074 141.211 220.794 141.191 220.532 141.267C220.27 141.343 220.043 141.509 219.893 141.737C219.777 141.968 219.716 142.224 219.716 142.482C219.716 142.741 219.777 142.997 219.893 143.228C220.237 144.046 220.884 144.7 221.699 145.051ZM227.204 134.869C226.611 134.395 225.875 134.134 225.116 134.129H224.746H224.79C224.172 134.216 223.584 134.453 223.078 134.819C222.767 135.022 222.486 135.269 222.245 135.552C222.006 135.838 221.881 136.201 221.893 136.573C221.914 136.776 221.982 136.972 222.09 137.145C222.199 137.317 222.346 137.463 222.52 137.57C222.876 137.779 223.289 137.869 223.699 137.826C224.075 137.795 224.445 137.676 224.822 137.613C225.199 137.542 225.589 137.623 225.906 137.839C226.151 138.033 226.289 138.34 226.533 138.553C226.739 138.732 227.003 138.83 227.276 138.83C227.549 138.83 227.813 138.732 228.019 138.553C228.195 138.363 228.325 138.134 228.396 137.885C228.468 137.635 228.481 137.373 228.433 137.118C228.331 136.237 227.89 135.431 227.204 134.869ZM223.291 139.337C223.192 139.237 223.075 139.157 222.947 139.099L222.182 138.691C222.093 138.625 221.99 138.581 221.882 138.562C221.773 138.542 221.661 138.548 221.555 138.578C221.489 138.612 221.436 138.665 221.401 138.73C221.366 138.795 221.352 138.869 221.36 138.942C221.37 139.015 221.396 139.085 221.436 139.147C221.476 139.208 221.529 139.26 221.592 139.299C221.918 139.602 222.315 139.818 222.746 139.926C222.868 139.954 222.994 139.954 223.116 139.926C223.179 139.919 223.238 139.896 223.289 139.858C223.339 139.821 223.379 139.771 223.404 139.713C223.42 139.646 223.418 139.576 223.398 139.51C223.379 139.444 223.341 139.384 223.291 139.337Z" fill="#6F4439"/>
<path d="M224 133.923C224 133.923 223.743 134.042 223.373 134.261C222.342 134.834 221.486 135.677 220.896 136.699C220.677 137.093 220.57 137.325 220.551 137.325C220.562 137.26 220.582 137.197 220.608 137.137C220.67 136.969 220.746 136.805 220.833 136.648C221.394 135.586 222.27 134.724 223.341 134.18C223.501 134.095 223.667 134.022 223.837 133.96C223.89 133.943 223.945 133.931 224 133.923ZM225.543 133.797C225.543 133.797 225.367 133.847 225.148 133.847C224.928 133.847 224.765 133.847 224.759 133.785C224.753 133.722 224.935 133.728 225.154 133.735C225.287 133.72 225.421 133.742 225.543 133.797ZM219.21 140.916C219.17 140.724 219.168 140.526 219.206 140.333C219.243 140.14 219.319 139.957 219.429 139.794C219.405 139.983 219.365 140.17 219.31 140.352C219.292 140.542 219.258 140.731 219.21 140.916Z" fill="white"/>
<path d="M206.318 146.211C205.591 146.599 204.766 146.763 203.946 146.684C203.125 146.604 202.347 146.284 201.708 145.764C201.069 145.244 200.599 144.546 200.356 143.759C200.114 142.971 200.11 142.129 200.346 141.34C200.581 140.55 201.045 139.848 201.679 139.321C202.313 138.795 203.089 138.468 203.908 138.381C204.591 138.309 205.282 138.406 205.918 138.665C206.555 138.923 207.117 139.335 207.557 139.863C207.996 140.391 208.298 141.02 208.436 141.693C208.574 142.366 208.544 143.062 208.348 143.721C208.191 144.25 207.93 144.742 207.582 145.169C207.234 145.596 206.804 145.951 206.318 146.211Z" fill="#FF9A6C"/>
<path opacity="0.5" d="M206.318 146.211C205.591 146.599 204.766 146.763 203.946 146.684C203.125 146.604 202.347 146.284 201.708 145.764C201.069 145.244 200.599 144.546 200.356 143.759C200.114 142.971 200.11 142.129 200.346 141.34C200.581 140.55 201.045 139.848 201.679 139.321C202.313 138.795 203.089 138.468 203.908 138.381C204.591 138.309 205.282 138.406 205.918 138.665C206.555 138.923 207.117 139.335 207.557 139.863C207.996 140.391 208.298 141.02 208.436 141.693C208.574 142.366 208.544 143.062 208.348 143.721C208.191 144.25 207.93 144.742 207.582 145.169C207.234 145.596 206.804 145.951 206.318 146.211Z" fill="#7BB93F"/>
<path d="M205.936 145.496C205.024 145.989 203.961 146.125 202.953 145.878C201.946 145.631 201.067 145.019 200.486 144.159C199.905 143.3 199.665 142.256 199.811 141.229C199.957 140.203 200.48 139.267 201.277 138.604C201.752 138.209 202.308 137.924 202.906 137.769C203.504 137.615 204.128 137.595 204.735 137.71C205.342 137.826 205.915 138.074 206.414 138.438C206.913 138.802 207.326 139.271 207.622 139.813C207.887 140.296 208.053 140.827 208.111 141.375C208.169 141.923 208.118 142.477 207.962 143.005C207.805 143.533 207.546 144.025 207.198 144.453C206.85 144.88 206.421 145.235 205.936 145.496Z" fill="#FF9A6C"/>
<path opacity="0.3" d="M205.115 144.005C204.798 144.178 204.447 144.279 204.087 144.299C203.726 144.32 203.366 144.26 203.031 144.125C202.697 143.989 202.396 143.781 202.152 143.515C201.908 143.249 201.726 142.933 201.619 142.588C201.494 142.186 201.475 141.758 201.565 141.346C201.655 140.934 201.849 140.552 202.13 140.238C202.411 139.924 202.769 139.688 203.168 139.553C203.567 139.418 203.994 139.389 204.408 139.468C204.822 139.547 205.209 139.732 205.53 140.005C205.851 140.278 206.096 140.63 206.241 141.026C206.385 141.421 206.425 141.848 206.356 142.264C206.287 142.679 206.112 143.07 205.847 143.398C205.645 143.646 205.396 143.852 205.115 144.005Z" fill="white"/>
<path d="M204.695 143.209C203.522 143.441 202.581 143.159 202.594 142.582C202.447 142.313 202.384 142.006 202.412 141.7C202.44 141.395 202.559 141.105 202.752 140.867C203.012 140.549 203.387 140.345 203.796 140.301C203.999 140.28 204.204 140.299 204.399 140.356C204.594 140.414 204.776 140.51 204.935 140.638C205.093 140.767 205.224 140.925 205.322 141.104C205.516 141.466 205.56 141.889 205.444 142.283C205.385 142.478 205.289 142.66 205.161 142.818C205.032 142.975 204.874 143.106 204.695 143.203V143.209ZM228.759 148.592C229.253 148.351 229.793 148.222 230.343 148.215C230.892 148.207 231.436 148.321 231.936 148.549C232.436 148.776 232.88 149.111 233.235 149.53C233.591 149.949 233.849 150.441 233.992 150.971C234.183 151.68 234.16 152.431 233.925 153.127C233.689 153.823 233.253 154.434 232.671 154.882C232.09 155.332 231.388 155.599 230.655 155.65C229.921 155.702 229.189 155.534 228.551 155.17C227.912 154.806 227.396 154.262 227.066 153.605C226.846 153.165 226.715 152.686 226.682 152.195C226.648 151.705 226.711 151.212 226.869 150.746C227.026 150.28 227.274 149.85 227.598 149.48C227.923 149.11 228.317 148.809 228.759 148.592Z" fill="#FF9A6C"/>
<path opacity="0.5" d="M228.759 148.592C229.253 148.351 229.793 148.222 230.343 148.215C230.892 148.207 231.436 148.321 231.936 148.549C232.436 148.776 232.88 149.111 233.235 149.53C233.591 149.948 233.849 150.441 233.992 150.971C234.183 151.68 234.16 152.431 233.925 153.127C233.689 153.823 233.253 154.434 232.671 154.882C232.09 155.332 231.388 155.599 230.655 155.65C229.921 155.702 229.189 155.534 228.551 155.17C227.912 154.806 227.396 154.262 227.066 153.605C226.846 153.165 226.715 152.686 226.682 152.195C226.648 151.704 226.711 151.212 226.869 150.746C227.026 150.28 227.274 149.85 227.598 149.48C227.923 149.11 228.317 148.808 228.759 148.592Z" fill="#7BB93F"/>
<path d="M231.838 154.589C231.191 154.936 230.455 155.084 229.724 155.015C228.993 154.945 228.299 154.66 227.729 154.197C227.159 153.734 226.739 153.112 226.522 152.41C226.305 151.708 226.302 150.958 226.511 150.254C226.721 149.55 227.135 148.924 227.701 148.455C228.266 147.986 228.958 147.696 229.689 147.62C230.546 147.529 231.407 147.739 232.126 148.214C232.845 148.688 233.377 149.397 233.63 150.22C233.884 151.043 233.844 151.929 233.517 152.726C233.19 153.523 232.597 154.181 231.838 154.589Z" fill="#FF9A6C"/>
<path opacity="0.3" d="M228.013 150.729C228.135 150.319 228.376 149.955 228.706 149.682C229.035 149.409 229.438 149.24 229.863 149.196C230.289 149.152 230.718 149.235 231.096 149.434C231.474 149.634 231.785 149.941 231.989 150.317C232.141 150.598 232.228 150.91 232.245 151.229C232.262 151.548 232.208 151.867 232.087 152.163C231.966 152.459 231.781 152.724 231.546 152.94C231.31 153.156 231.029 153.317 230.724 153.411C230.246 153.558 229.731 153.535 229.268 153.346C228.804 153.158 228.42 152.814 228.181 152.375C228.045 152.125 227.961 151.851 227.932 151.569C227.903 151.286 227.931 151.001 228.013 150.729Z" fill="white"/>
<path d="M230.741 152.559C230.501 152.687 230.228 152.741 229.957 152.714C229.686 152.688 229.429 152.583 229.218 152.411C229.061 152.282 228.934 152.12 228.847 151.937C228.759 151.754 228.714 151.553 228.712 151.35C228.711 151.147 228.755 150.946 228.841 150.762C228.926 150.578 229.051 150.414 229.207 150.284C229.47 150.064 229.806 149.951 230.149 149.965C230.492 149.98 230.817 150.121 231.061 150.363C231.305 150.604 231.45 150.927 231.469 151.269C231.487 151.612 231.377 151.949 231.161 152.215C231.045 152.356 230.902 152.473 230.741 152.559Z" fill="#FF9A6C"/>
<path d="M194.644 174.929C194.551 175.912 194.687 176.904 195.043 177.825C195.399 178.746 195.964 179.572 196.694 180.237C197.384 180.892 198.222 181.371 199.137 181.633C200.051 181.895 201.016 181.931 201.948 181.74C202.025 180.008 201.412 178.317 200.244 177.037C199.076 175.757 197.447 174.992 195.716 174.91C195.358 174.898 195 174.91 194.644 174.948V174.929Z" fill="#455A64"/>
<path d="M196.255 176.301C196.318 176.257 197.44 177.717 199.083 179.284C200.725 180.851 202.218 181.941 202.174 181.997C201.802 181.837 201.454 181.626 201.139 181.371C199.547 180.229 198.128 178.863 196.926 177.316C196.65 177.015 196.424 176.673 196.255 176.301Z" fill="#3D3D3D"/>
<path d="M208.168 125.494C207.506 126.226 207.024 127.102 206.758 128.052C206.493 129.003 206.452 130.002 206.638 130.971C206.8 131.909 207.187 132.795 207.764 133.552C208.341 134.309 209.093 134.915 209.955 135.32C211.053 133.979 211.574 132.256 211.402 130.531C211.23 128.806 210.38 127.219 209.039 126.121C208.761 125.889 208.466 125.679 208.155 125.494H208.168Z" fill="#455A64"/>
<path d="M208.676 127.575C208.757 127.575 208.783 129.417 209.165 131.654C209.547 133.891 210.093 135.658 210.018 135.677C209.818 135.323 209.666 134.943 209.566 134.549C208.978 132.682 208.657 130.741 208.613 128.784C208.574 128.38 208.595 127.973 208.676 127.575Z" fill="#3D3D3D"/>
<path d="M247.074 160.799C246.065 160.021 244.89 159.487 243.64 159.239C242.39 158.991 241.1 159.036 239.87 159.37C238.675 159.673 237.571 160.259 236.65 161.078C235.729 161.897 235.019 162.925 234.578 164.076C235.493 164.716 236.526 165.17 237.617 165.41C238.708 165.65 239.835 165.673 240.935 165.476C242.035 165.279 243.085 164.868 244.026 164.266C244.966 163.663 245.778 162.881 246.416 161.964C246.672 161.593 246.901 161.204 247.099 160.799H247.074Z" fill="#455A64"/>
<path d="M244.459 161.669C244.459 161.776 242.095 161.976 239.249 162.703C236.402 163.43 234.176 164.308 234.139 164.207C234.577 163.913 235.054 163.681 235.556 163.518C237.909 162.573 240.378 161.951 242.898 161.669C243.416 161.597 243.941 161.597 244.459 161.669Z" fill="#3D3D3D"/>
<path d="M204.983 157.377C204.983 158.267 203.584 158.969 201.891 158.944C200.198 158.919 198.838 158.167 198.85 157.29C198.825 157.63 198.825 157.971 198.85 158.311C198.85 159.201 200.198 159.946 201.891 159.972C203.584 159.997 204.97 159.301 204.983 158.405C205.001 158.063 205.001 157.719 204.983 157.377Z" fill="#455A64"/>
<path d="M201.929 156.738C203.284 156.738 204.437 157.239 204.813 157.885C204.918 157.736 204.978 157.559 204.983 157.377C204.983 156.487 203.635 155.742 201.942 155.717C200.249 155.692 198.863 156.387 198.851 157.29C198.85 157.472 198.902 157.65 199.001 157.803C199.421 157.158 200.575 156.713 201.929 156.738Z" fill="#3D3D3D"/>
<path d="M223.066 149.444C223.417 149.782 223.179 150.603 222.533 151.274C221.887 151.944 221.072 152.214 220.721 151.9C220.847 152.041 220.983 152.173 221.128 152.295C221.479 152.634 222.288 152.364 222.94 151.669C223.592 150.973 223.824 150.177 223.473 149.839C223.345 149.7 223.209 149.568 223.066 149.444Z" fill="#455A64"/>
<path d="M221.655 150.428C221.842 150.195 222.08 150.009 222.351 149.883C222.622 149.757 222.918 149.695 223.216 149.701C223.198 149.603 223.15 149.514 223.079 149.444C222.721 149.099 221.912 149.369 221.26 150.039C220.608 150.71 220.376 151.531 220.734 151.875C220.807 151.943 220.898 151.989 220.997 152.007C220.979 151.711 221.029 151.415 221.143 151.141C221.257 150.868 221.432 150.624 221.655 150.428Z" fill="#3D3D3D"/>
<path d="M227.781 117.806C228.026 118.501 227.154 119.429 225.837 119.88C224.521 120.331 223.26 120.143 223.022 119.454C223.091 119.726 223.184 119.993 223.298 120.25C223.536 120.945 224.796 121.133 226.107 120.682C227.417 120.231 228.295 119.297 228.057 118.608C227.984 118.334 227.892 118.066 227.781 117.806Z" fill="#455A64"/>
<path d="M225.241 118.157C226.295 117.787 227.31 117.843 227.8 118.232C227.843 118.089 227.843 117.936 227.8 117.793C227.561 117.104 226.301 116.91 224.99 117.361C223.68 117.812 222.802 118.746 223.04 119.441C223.092 119.583 223.183 119.707 223.304 119.798C223.429 119.184 224.194 118.514 225.241 118.157Z" fill="#3D3D3D"/>
<path d="M230.465 169.032L221.787 176.026C221.719 176.075 221.663 176.137 221.62 176.208C221.555 176.315 221.523 176.439 221.53 176.564C221.536 176.689 221.58 176.809 221.655 176.909C222.36 177.846 223.266 178.613 224.307 179.153C230.577 182.624 234.515 176.126 233.643 172.335C233.275 170.972 232.424 169.789 231.248 169.007C231.134 168.922 230.994 168.878 230.852 168.882C230.71 168.887 230.573 168.94 230.465 169.032Z" fill="#7BB93F"/>
<path opacity="0.3" d="M230.465 169.032L221.787 176.026C221.719 176.075 221.663 176.137 221.62 176.208C221.555 176.315 221.523 176.439 221.53 176.564C221.536 176.689 221.58 176.809 221.655 176.909C222.36 177.846 223.266 178.613 224.307 179.153C230.577 182.624 234.515 176.126 233.643 172.335C233.275 170.972 232.424 169.789 231.248 169.007C231.134 168.922 230.994 168.878 230.852 168.882C230.71 168.887 230.573 168.94 230.465 169.032Z" fill="black"/>
<path d="M230.007 168.613L221.335 175.606C221.206 175.71 221.122 175.859 221.099 176.023C221.075 176.187 221.115 176.353 221.21 176.489C221.914 177.427 222.82 178.194 223.862 178.733C230.132 182.204 234.07 175.706 233.198 171.915C232.827 170.552 231.974 169.37 230.797 168.588C230.682 168.501 230.541 168.456 230.398 168.461C230.254 168.465 230.116 168.519 230.007 168.613Z" fill="#7BB93F"/>
<path opacity="0.3" d="M229.273 169.446C229.499 169.126 232.327 170.142 232.314 172.498C232.302 174.854 231.643 176.615 230.596 176.671C229.549 176.727 228.239 174.791 228.182 173.043C228.179 171.762 228.559 170.509 229.273 169.446ZM222.226 175.487C222.226 175.023 224.627 173.726 226.214 174.02C227.8 174.315 229.624 176.928 229.562 177.623C229.499 178.319 226.54 178.726 225.066 178.25C223.593 177.774 222.207 176.163 222.226 175.487Z" fill="black"/>
<path d="M225.097 174.766C224.903 174.566 223.084 175.775 223.492 176.182C223.9 176.59 225.523 175.205 225.097 174.766ZM227.48 175.737C227.731 175.662 228.628 177.617 227.963 177.617C227.298 177.617 227.223 175.812 227.48 175.737ZM226.401 175.186C226.715 175.249 226.401 177.793 225.574 177.692C224.746 177.592 226.081 175.123 226.401 175.186ZM229.167 172.259C229.01 171.777 231.355 171.2 231.424 171.708C231.493 172.216 229.374 172.905 229.167 172.259ZM229.148 171.326C229.411 171.539 230.609 170.574 230.264 170.273C229.919 169.972 228.891 171.106 229.148 171.326ZM229.029 173.25C229.029 173.444 231.11 173.926 231.042 173.513C230.973 173.099 229.085 172.767 229.029 173.25ZM228.753 174.045C228.521 174.415 229.787 175.825 230.113 175.524C230.439 175.223 229.079 173.525 228.753 174.045Z" fill="#7BB93F"/>
<path d="M228.27 170.311C228.228 170.372 228.179 170.428 228.126 170.48C228.032 170.586 227.887 170.737 227.712 170.919C226.772 171.86 225.747 172.714 224.652 173.469C224.439 173.613 224.27 173.726 224.144 173.801L223.956 173.914C223.956 173.914 224.012 173.857 224.132 173.776L224.621 173.425C225.035 173.124 225.593 172.704 226.188 172.203C226.696 171.779 227.189 171.338 227.668 170.881L228.107 170.461C228.157 170.406 228.211 170.356 228.27 170.311Z" fill="white"/>
<path d="M146.226 119.015C146.226 119.015 154.966 125.958 157.744 130.294C160.521 134.631 182.762 149.72 182.448 150.284C182.135 150.848 168.861 172.73 168.861 172.73L161.481 169.007L146.226 119.805M115.163 199.981C115.163 199.981 98.585 226.118 96.911 236.075L115.163 243.544V199.981Z" fill="#7BB93F"/>
<path d="M104.153 115.399C104.153 116.057 101.018 124.272 101.018 124.272L84.748 142.175L116.135 193.251L119.27 200.971L167.588 198.183C167.588 198.183 160.691 161.557 160.195 155.478C159.7 149.4 146.226 119.015 146.226 119.015L129.923 120.82L125.158 119.178L104.153 115.399Z" fill="#7BB93F"/>
<path d="M114.16 200.232C113.533 199.988 110.398 210.534 105.025 229.822C99.651 249.109 103.332 288.518 103.332 288.518H186.662C186.662 288.518 181.15 244.886 173.946 223.668C166.842 202.732 167.218 189.58 165.638 189.711C164.058 189.843 114.16 200.232 114.16 200.232ZM162.597 170.787C162.575 170.743 162.561 170.697 162.553 170.649L162.459 170.229C162.383 169.866 162.271 169.327 162.108 168.631C161.651 166.679 161.099 164.751 160.452 162.854C159.521 160.031 158.363 157.288 156.991 154.651C155.183 151.489 153.183 148.44 151.003 145.521C147.088 140.178 142.649 135.239 137.754 130.777C135.873 129.066 134.243 127.819 133.121 126.942L131.798 125.983L131.453 125.726C131.378 125.664 131.34 125.632 131.346 125.626L131.472 125.695L131.835 125.927L133.196 126.842C134.829 128.016 136.403 129.27 137.911 130.601C142.867 135.028 147.344 139.963 151.267 145.327C153.456 148.254 155.456 151.319 157.254 154.501C159.519 158.965 161.192 163.704 162.233 168.6C162.377 169.296 162.471 169.853 162.528 170.217C162.528 170.386 162.572 170.524 162.59 170.637C162.603 170.686 162.605 170.737 162.597 170.787Z" fill="#3D3D3D"/>
<path d="M84.76 142.175C84.76 142.175 81.693 145.709 82.816 153.674C83.938 161.638 96.911 197.719 96.911 197.719L125.352 188.138L110.304 158.186L99.858 145.108L84.76 142.175Z" fill="#7BB93F"/>
<path d="M161.481 163.142C161.481 163.142 161.431 163.048 161.38 162.86L161.148 162.039C160.948 161.275 160.672 160.253 160.34 159.019C159.435 155.701 158.448 152.406 157.38 149.137C156.3 145.868 155.125 142.631 153.856 139.431C153.386 138.24 152.997 137.256 152.703 136.523C152.583 136.21 152.477 135.947 152.395 135.727C152.351 135.638 152.322 135.543 152.308 135.445C152.308 135.445 152.37 135.527 152.458 135.702C152.546 135.878 152.678 136.166 152.822 136.473C153.129 137.143 153.562 138.127 154.076 139.349C155.404 142.531 156.611 145.763 157.694 149.037C158.78 152.309 159.744 155.62 160.584 158.963C160.898 160.247 161.142 161.294 161.293 162.014C161.362 162.346 161.412 162.641 161.462 162.854C161.477 162.949 161.483 163.046 161.481 163.142ZM96.911 197.719L97.043 197.663L97.438 197.519L98.993 196.967L104.849 194.95L125.308 187.988L125.221 188.201C122.788 183.414 120.117 178.175 117.327 172.654C115.847 169.734 114.398 166.883 113.006 164.126C112.336 162.729 111.539 161.444 110.818 160.147C110.113 158.882 109.388 157.628 108.642 156.387C107.304 154.065 105.838 151.818 104.253 149.657C103.522 148.692 102.728 147.775 101.877 146.913C101.083 146.129 100.199 145.441 99.244 144.864C97.6044 143.855 95.8162 143.111 93.945 142.658C92.5335 142.309 91.086 142.126 89.632 142.113C88.7134 142.108 87.7955 142.166 86.885 142.288L86.177 142.401C86.0957 142.411 86.0134 142.411 85.932 142.401C86.0086 142.372 86.0886 142.353 86.17 142.344L86.873 142.2C87.785 142.051 88.707 141.972 89.631 141.962C91.099 141.953 92.561 142.12 93.989 142.457C95.8857 142.894 97.7001 143.633 99.363 144.644C100.339 145.221 101.242 145.913 102.053 146.706C102.918 147.572 103.724 148.496 104.467 149.469C106.072 151.63 107.556 153.879 108.912 156.205C109.639 157.425 110.369 158.679 111.1 159.965C111.828 161.262 112.63 162.559 113.295 163.951L117.628 172.479C120.411 177.987 123.076 183.244 125.503 188.038L125.584 188.195L125.415 188.251L104.924 195.094L99.037 197.03L97.469 197.531L97.062 197.657C97.0161 197.686 96.9643 197.707 96.911 197.719ZM123.866 135.934C123.822 136.016 118.7 133.428 112.423 130.226C106.147 127.023 101.093 124.31 101.137 124.229C101.181 124.147 106.304 126.704 112.58 129.937C118.856 133.171 123.904 135.859 123.866 135.934ZM130.042 121.233C130.357 123.235 130.566 125.251 130.669 127.274C130.878 129.289 130.976 131.314 130.964 133.34C130.649 131.339 130.44 129.322 130.337 127.299C130.129 125.284 130.031 123.259 130.042 121.233ZM137.623 132.488L137.422 132.569L136.827 132.757C136.306 132.92 135.535 133.177 134.544 133.515C132.569 134.186 129.735 135.232 126.293 136.648C122.851 138.065 118.769 139.882 114.33 142.012C113.17 142.491 112.04 143.037 110.944 143.648C110.412 143.976 110.002 144.468 109.777 145.051C109.589 145.656 109.629 146.309 109.89 146.887C110.398 148.091 111.452 149.012 112.398 150.021L113.822 151.562L115.201 153.179C116.976 155.322 118.65 157.547 120.217 159.846C121.666 161.988 123.049 164.174 124.362 166.401C126.87 170.662 128.889 174.622 130.525 177.981C131.819 180.631 133.058 183.307 134.243 186.008L135.19 188.213C135.291 188.452 135.372 188.646 135.429 188.79C135.461 188.854 135.486 188.921 135.504 188.99C135.46 188.934 135.426 188.87 135.403 188.802L135.134 188.238L134.093 186.108C132.859 183.433 131.59 180.773 130.287 178.131C128.357 174.212 126.282 170.366 124.067 166.601C122.813 164.483 121.446 162.284 119.923 160.078C118.373 157.784 116.709 155.569 114.938 153.442L113.571 151.825L112.148 150.296C111.232 149.275 110.147 148.354 109.589 147.05C109.304 146.399 109.267 145.666 109.483 144.989C109.719 144.346 110.16 143.797 110.737 143.428C111.849 142.813 112.994 142.261 114.167 141.774C118.118 139.892 122.122 138.124 126.174 136.473C129.641 135.069 132.488 134.054 134.475 133.415C135.239 133.171 136.006 132.939 136.777 132.719L137.404 132.563L137.623 132.488Z" fill="#3D3D3D"/>
<path opacity="0.3" d="M124.004 154.896C124.29 154.896 124.573 154.84 124.837 154.731C125.101 154.621 125.34 154.461 125.542 154.259C125.745 154.057 125.905 153.817 126.014 153.553C126.124 153.29 126.18 153.007 126.18 152.721C126.18 152.435 126.124 152.152 126.015 151.888C125.905 151.624 125.745 151.385 125.543 151.183C125.341 150.98 125.101 150.82 124.837 150.711C124.574 150.601 124.291 150.545 124.005 150.545C123.428 150.545 122.875 150.774 122.467 151.182C122.058 151.59 121.829 152.143 121.829 152.72C121.829 153.297 122.058 153.85 122.466 154.258C122.874 154.667 123.427 154.896 124.004 154.896ZM144.382 146.474C144.668 146.474 144.951 146.418 145.215 146.309C145.479 146.199 145.718 146.039 145.92 145.837C146.123 145.635 146.283 145.395 146.392 145.131C146.502 144.868 146.558 144.585 146.558 144.299C146.558 144.013 146.502 143.73 146.393 143.466C146.283 143.202 146.123 142.963 145.921 142.761C145.719 142.558 145.479 142.398 145.215 142.289C144.952 142.179 144.669 142.123 144.383 142.123C143.806 142.123 143.253 142.352 142.845 142.76C142.436 143.168 142.207 143.721 142.207 144.298C142.207 144.875 142.436 145.428 142.844 145.836C143.252 146.245 143.805 146.474 144.382 146.474ZM137.623 173.807C137.624 174.129 137.554 174.448 137.417 174.739C137.28 175.031 137.08 175.289 136.831 175.494C136.583 175.699 136.292 175.846 135.979 175.925C135.667 176.004 135.341 176.012 135.025 175.95C134.709 175.887 134.41 175.755 134.151 175.563C133.893 175.371 133.679 175.124 133.528 174.84C133.376 174.556 133.289 174.242 133.274 173.92C133.258 173.598 133.314 173.276 133.438 172.979C133.604 172.582 133.884 172.242 134.243 172.004C134.601 171.765 135.022 171.638 135.453 171.639C136.028 171.641 136.578 171.87 136.985 172.276C137.391 172.682 137.621 173.232 137.623 173.807ZM155.612 169.058C156.189 169.058 156.742 168.829 157.15 168.421C157.558 168.013 157.787 167.46 157.787 166.883C157.787 166.306 157.558 165.753 157.15 165.345C156.742 164.937 156.189 164.708 155.612 164.708C155.035 164.708 154.482 164.937 154.074 165.345C153.666 165.753 153.437 166.306 153.437 166.883C153.437 167.46 153.666 168.013 154.074 168.421C154.482 168.829 155.035 169.058 155.612 169.058Z" fill="black"/>
<path d="M170.842 200.715C171.352 200.763 171.854 200.879 172.334 201.059C172.839 201.145 173.331 201.299 173.795 201.517C173.276 201.614 172.74 201.567 172.246 201.379C171.725 201.293 171.239 201.063 170.842 200.715Z" fill="#FF9A6C"/>
<path d="M101.4 196.209C101.507 196.773 110.668 209.744 117.991 209.744C125.315 209.744 161.405 198.935 161.405 198.935L157.229 187.756L121.114 193.183L119.333 190.169L101.4 196.209Z" fill="#FFBF9D"/>
<path d="M157.229 187.756C157.418 187.599 164.127 184.704 167.82 183.896C171.513 183.088 173.939 183.426 176.378 184.711C178.817 185.995 184.16 187.455 185.32 188.646C186.204 189.542 185.395 191.115 183.752 190.952C182.109 190.789 175.802 189.385 175.664 189.398C175.664 189.398 175.607 189.467 175.57 189.573C175.435 189.971 175.418 190.399 175.521 190.806C175.625 191.214 175.844 191.582 176.153 191.867L180.435 195.877C180.435 195.877 180.492 197.669 179.313 198.001C178.573 198.213 177.855 198.494 177.168 198.841C177.168 198.841 176.686 201.26 174.817 201.467C172.949 201.673 167.262 199.856 166.986 199.819L161.405 198.935L157.229 187.756Z" fill="#FFBF9D"/>
<path d="M172.955 197.895C173.667 198.041 174.368 198.231 175.056 198.465C175.771 198.598 176.477 198.778 177.169 199.004C176.43 199.1 175.679 199.025 174.974 198.785C174.242 198.645 173.552 198.341 172.955 197.895Z" fill="#FF9A6C"/>
<path d="M164.942 199.186L171.024 202.012C171.436 202.262 171.917 202.374 172.397 202.331C173.106 202.187 173.494 201.454 173.789 200.796" fill="#FFBF9D"/>
<path d="M105.62 64.975C111.89 60.15 118.273 59.298 126.312 59.423C130.851 59.492 131.553 56.916 134.795 57.869C138.039 58.7535 140.868 60.7498 142.789 63.509C145.003 66.842 146.834 70.558 147.147 74.537C147.467 78.629 147.774 82.746 147.348 86.825V86.945C146.984 90.0687 145.591 92.9826 143.389 95.2276C141.187 97.4726 138.3 98.9211 135.184 99.345L132.607 99.702C126.813 99.702 120.944 99.702 115.345 98.23C109.746 96.757 107.112 111.727 104.999 106.376C97.814 88.236 99.249 69.856 105.62 64.975Z" fill="#3D3D3D"/>
<path d="M128.838 61.159L124.656 60.532L108.354 66.41C107.231 66.4287 106.157 66.8689 105.344 67.6433C104.531 68.4177 104.038 69.4696 103.965 70.59L105.219 115.775L125.283 128.408V135.301L130.418 133.59L128.061 127.706V118.044C128.061 118.044 138.845 117.342 141.962 104.834C143.51 98.612 144.094 88.241 144.294 79.769C144.476 72.112 138.287 61.491 128.838 61.159Z" fill="#FFBF9D"/>
<path d="M138.244 90.165C138.212 90.5899 138.015 90.9855 137.695 91.2668C137.375 91.548 136.957 91.6924 136.532 91.669C136.218 91.6683 135.912 91.5723 135.653 91.3938C135.395 91.2152 135.197 90.9625 135.085 90.669C135.01 90.4746 134.976 90.2671 134.983 90.059C135.016 89.6358 135.213 89.2422 135.531 88.9615C135.85 88.6808 136.265 88.535 136.689 88.555C136.897 88.5565 137.103 88.5996 137.295 88.6817C137.487 88.7639 137.66 88.8834 137.805 89.0333C137.95 89.1833 138.063 89.3606 138.138 89.5549C138.214 89.7492 138.25 89.9566 138.244 90.165ZM141.278 83.918C141.059 84.112 139.905 83.097 138.143 82.947C136.381 82.797 135.008 83.573 134.858 83.335C134.77 83.229 135.014 82.865 135.604 82.508C136.408 82.0491 137.334 81.8501 138.256 81.938C139.166 82.014 140.029 82.376 140.72 82.972C141.234 83.435 141.385 83.836 141.278 83.918ZM129.566 97.315C129.566 97.215 130.676 97.121 132.456 97.045C132.908 97.045 133.341 96.989 133.441 96.688C133.517 96.2309 133.454 95.7615 133.259 95.341L132.231 91.82C130.814 86.807 129.829 82.715 130.036 82.665C130.243 82.615 131.547 86.618 132.964 91.625L133.936 95.153C134.17 95.717 134.196 96.345 134.011 96.926C133.933 97.0788 133.822 97.2119 133.685 97.3152C133.548 97.4184 133.389 97.4892 133.221 97.522C132.967 97.5672 132.708 97.5796 132.45 97.559C130.669 97.503 129.566 97.415 129.566 97.315Z" fill="#3D3D3D"/>
<path d="M128.08 118.05C122.097 117.624 116.349 115.546 111.477 112.047C111.477 112.047 115.239 121.233 128.048 121.146L128.08 118.05Z" fill="#FF9A6C"/>
<path d="M140.877 77.758C140.545 78.165 139.228 77.758 137.648 77.758C136.068 77.758 134.739 78.046 134.425 77.633C134.293 77.433 134.5 77.006 135.052 76.649C135.845 76.1896 136.749 75.9561 137.665 75.9737C138.581 75.9913 139.475 76.2594 140.25 76.749C140.833 77.156 141.021 77.563 140.877 77.758ZM118.756 88.912C118.733 89.3366 118.875 89.7536 119.154 90.075C119.432 90.3965 119.824 90.5973 120.248 90.635C120.455 90.6613 120.664 90.6462 120.865 90.5906C121.066 90.535 121.253 90.4399 121.417 90.311C121.58 90.182 121.716 90.0218 121.817 89.8396C121.918 89.6574 121.981 89.457 122.004 89.25C122.027 88.8254 121.885 88.4084 121.606 88.087C121.328 87.7655 120.936 87.5648 120.512 87.527C120.201 87.4867 119.885 87.5408 119.604 87.6824C119.324 87.824 119.093 88.0465 118.941 88.321C118.841 88.504 118.778 88.705 118.756 88.912ZM117.558 82.49C117.753 82.708 119.032 81.863 120.788 81.95C122.543 82.038 123.785 82.978 123.985 82.777C124.086 82.683 123.897 82.289 123.358 81.857C122.623 81.2926 121.732 80.9685 120.806 80.929C119.894 80.8865 118.991 81.1294 118.223 81.624C117.665 82.013 117.464 82.39 117.558 82.49ZM118.794 76.906C119.12 77.319 120.493 76.975 122.123 77.031C123.753 77.088 125.12 77.451 125.459 77.031C125.603 76.837 125.409 76.405 124.832 76.016C124.03 75.5104 123.102 75.2392 122.154 75.233C121.21 75.1944 120.274 75.4269 119.458 75.903C118.856 76.304 118.649 76.705 118.794 76.906Z" fill="#3D3D3D"/>
<path d="M105.501 92.014C105.582 91.067 104.68 88.743 103.758 88.517C101.3 87.891 96.792 87.721 96.234 94.044C95.424 102.685 105.495 101.563 105.539 101.319C105.582 101.075 105.225 95.247 105.501 92.014Z" fill="#FFBF9D"/>
<path d="M102.203 98.092C102.165 98.092 102.04 98.18 101.777 98.274C101.404 98.394 101 98.364 100.648 98.192C99.764 97.772 99.131 96.25 99.238 94.69C99.2847 93.9459 99.4987 93.2219 99.864 92.572C99.9712 92.3081 100.142 92.0746 100.36 91.892C100.579 91.7094 100.839 91.5834 101.118 91.525C101.296 91.4951 101.478 91.5281 101.634 91.6185C101.79 91.7089 101.909 91.851 101.971 92.02C102.065 92.27 101.971 92.44 102.034 92.459C102.096 92.478 102.234 92.333 102.197 91.97C102.169 91.7508 102.067 91.5477 101.908 91.394C101.688 91.1929 101.398 91.085 101.1 91.093C100.738 91.1313 100.392 91.2614 100.095 91.4708C99.7971 91.6803 99.558 91.9623 99.4 92.29C98.9619 93.0049 98.7038 93.8154 98.648 94.652C98.541 96.394 99.275 98.111 100.498 98.587C100.724 98.675 100.966 98.7117 101.208 98.6944C101.45 98.6771 101.685 98.6063 101.896 98.487C102.153 98.299 102.203 98.111 102.203 98.092Z" fill="#FF9A6C"/>
<path d="M103.407 88.774L105.532 91.124C115.326 82.351 134.632 60.156 133.547 61.478C133.547 61.478 127.12 58.596 120.016 59.598C112.912 60.601 99.388 63.69 99.325 72.025C99.262 80.359 103.407 88.774 103.407 88.774Z" fill="#3D3D3D"/>
<path d="M144.802 68.66C144.069 67.061 144.871 65.119 146.238 63.94C147.605 62.763 149.423 62.174 151.192 61.648C152.96 61.121 154.784 60.614 156.245 59.529C159.136 57.386 159.901 53.508 159.499 50.067C158.728 43.494 154.433 37.535 148.727 33.7C143.022 29.865 136.062 27.947 129.033 27.365C114.486 26.162 101.375 31.194 90.227 40.105C89.3261 40.829 88.5872 41.734 88.0581 42.7615C87.5289 43.789 87.2212 44.9161 87.155 46.07C87.073 47.855 88.127 49.504 89.218 50.97C92.572 55.488 96.51 58.608 101.131 61.992L99.833 69.374L144.802 68.659V68.66Z" fill="#7BB93F"/>
<path d="M155.38 46.884C155.254 47.088 155.1 47.274 154.922 47.436C154.463 47.887 153.973 48.306 153.455 48.689C152.796 49.184 151.981 49.717 151.053 50.28C150.125 50.844 149.11 51.433 148.088 52.16C147.129 52.7975 146.249 53.5464 145.467 54.391C144.839 55.0946 144.325 55.8918 143.943 56.754C143.625 57.5556 143.428 58.4003 143.36 59.26C143.307 59.0259 143.292 58.7848 143.316 58.546C143.355 57.9016 143.495 57.2672 143.73 56.666C144.091 55.7635 144.602 54.9285 145.241 54.196C146.032 53.3112 146.934 52.5321 147.925 51.878C148.959 51.176 149.994 50.588 150.922 50.036C151.85 49.485 152.671 48.983 153.336 48.52C154.652 47.623 155.336 46.846 155.38 46.884ZM148.301 39.509C148.338 39.572 147.273 40.185 145.793 41.476C145.423 41.802 145.022 42.159 144.627 42.579C144.232 42.999 143.811 43.45 143.373 43.939C142.484 45.0301 141.691 46.1958 141.002 47.423C140.336 48.6604 139.78 49.954 139.341 51.289C139.159 51.916 138.965 52.499 138.858 53.063C138.751 53.627 138.626 54.153 138.551 54.642C138.256 56.584 138.306 57.812 138.237 57.812C138.196 57.5259 138.179 57.2369 138.187 56.948C138.166 56.6117 138.166 56.2743 138.187 55.938C138.187 55.55 138.225 55.099 138.3 54.61C138.362 54.072 138.452 53.536 138.57 53.006C138.676 52.43 138.858 51.834 139.034 51.196C139.872 48.4586 141.263 45.9225 143.122 43.745C143.567 43.256 143.974 42.786 144.376 42.385C144.777 41.984 145.203 41.615 145.586 41.301C145.925 41.011 146.279 40.74 146.646 40.486C146.915 40.2812 147.198 40.0951 147.492 39.929C147.746 39.76 148.017 39.619 148.301 39.509ZM131.986 36.15C131.998 36.418 131.983 36.687 131.942 36.952C131.892 37.46 131.829 38.206 131.76 39.114C131.394 43.882 131.56 48.676 132.256 53.407C132.387 54.31 132.506 55.049 132.588 55.551C132.645 55.812 132.679 56.079 132.688 56.346C132.584 56.0986 132.509 55.8403 132.463 55.576C132.295 54.8686 132.151 54.1559 132.03 53.439C131.203 48.7036 131.034 43.8766 131.528 39.095C131.629 38.18 131.729 37.441 131.817 36.933C131.844 36.6665 131.901 36.4039 131.986 36.15ZM121.339 32.935C121.37 33.269 121.37 33.605 121.339 33.938V36.676C121.379 39.681 121.589 42.681 121.966 45.662C122.372 48.6441 122.948 51.6006 123.691 54.517C123.973 55.632 124.217 56.541 124.393 57.161C124.5 57.479 124.578 57.806 124.625 58.138C124.484 57.8334 124.364 57.5193 124.267 57.198C123.976 56.3308 123.711 55.4555 123.471 54.573C121.861 48.7456 121.076 42.7213 121.139 36.676C121.139 35.517 121.189 34.577 121.239 33.932C121.246 33.598 121.28 33.264 121.339 32.935ZM101.237 40.292C101.482 40.496 101.706 40.722 101.908 40.969C102.328 41.414 102.911 42.084 103.614 42.918C107.272 47.2908 110.487 52.0156 113.213 57.023C113.727 57.988 114.135 58.771 114.398 59.329C114.549 59.606 114.677 59.895 114.781 60.194C114.586 59.9436 114.42 59.6723 114.285 59.385C113.86 58.6388 113.442 57.8888 113.031 57.135C111.616 54.6739 110.111 52.2662 108.517 49.917C106.915 47.5704 105.228 45.2838 103.457 43.062L101.839 41.05C101.615 40.8169 101.413 40.5631 101.237 40.292Z" fill="#3D3D3D"/>
<path d="M100.172 83.235C97.777 75.089 99.037 69.374 100.604 63.546C100.604 63.546 119.96 52.004 135.911 55.651C135.911 55.651 145.875 57.65 147.16 62.819L147.442 80.415C147.442 80.415 146.357 73.453 131.848 72.895C117.339 72.338 100.172 83.235 100.172 83.235Z" fill="#7BB93F"/>
<path d="M122.117 101.513C122.241 100.953 122.567 100.458 123.032 100.122C123.457 99.8058 123.974 99.6386 124.504 99.6466C125.034 99.6546 125.546 99.8371 125.961 100.166C126.389 100.547 126.709 101.035 126.886 101.58C127.063 102.125 127.092 102.708 126.97 103.268C126.702 103.59 126.37 103.851 125.993 104.035C125.617 104.218 125.206 104.32 124.788 104.333H124.393C123.735 104.285 123.119 103.989 122.669 103.506C122.429 103.239 122.255 102.92 122.159 102.574C122.063 102.229 122.049 101.865 122.117 101.513Z" fill="#FF9A6C"/>
<path d="M123.402 98.694C123.653 98.694 123.446 100.367 124.719 101.726C125.992 103.086 127.785 103.13 127.766 103.362C127.766 103.468 127.333 103.638 126.581 103.562C125.608 103.457 124.702 103.014 124.023 102.309C123.379 101.634 123.022 100.736 123.026 99.803C123.051 99.057 123.289 98.669 123.402 98.694ZM146.721 62.882C146.62 62.7452 146.534 62.598 146.464 62.443C146.376 62.299 146.301 62.105 146.163 61.905C146.025 61.704 145.868 61.465 145.699 61.203C144.613 59.78 143.217 58.6227 141.617 57.819C139.243 56.626 136.676 55.8622 134.036 55.563C130.811 55.127 127.543 55.127 124.318 55.563C122.648 55.785 120.993 56.111 119.364 56.541C117.784 56.948 116.292 57.456 114.862 57.931C112.34 58.7825 109.843 59.7085 107.376 60.708C105.269 61.56 103.576 62.287 102.404 62.788L101.056 63.365C100.902 63.4384 100.743 63.4989 100.579 63.546C100.721 63.45 100.873 63.369 101.031 63.302L102.354 62.675C103.985 61.9193 105.63 61.1945 107.288 60.501C109.389 59.624 111.915 58.621 114.768 57.65C116.192 57.167 117.69 56.653 119.283 56.24C120.932 55.8002 122.607 55.4672 124.299 55.243C127.552 54.7969 130.852 54.7969 134.105 55.243C136.775 55.566 139.365 56.362 141.755 57.593C143.371 58.4289 144.765 59.6359 145.824 61.115C145.994 61.378 146.138 61.623 146.269 61.835C146.372 62.016 146.464 62.202 146.545 62.393C146.619 62.55 146.678 62.714 146.721 62.882Z" fill="#3D3D3D"/>
</g>
</g>
<defs>
<clipPath id="clip0_3_102">
<rect width="302" height="289" fill="white"/>
</clipPath>
</defs>
</svg>
