<svg width="23" height="17" viewBox="0 0 23 17" fill="none" xmlns="http://www.w3.org/2000/svg">
<g clip-path="url(#clip0_209_3797)">
<path d="M0.625191 0.782715H22.6252V6.11605H0.625191V0.782715Z" fill="#FF9933"/>
<path d="M0.625191 6.11609H22.6252V11.4494H0.625191V6.11609Z" fill="white"/>
<path d="M0.625191 11.4493H22.6252V16.7827H0.625191V11.4493Z" fill="#128807"/>
<path d="M11.6252 10.9161C12.8402 10.9161 13.8252 9.96095 13.8252 8.78275C13.8252 7.60454 12.8402 6.64941 11.6252 6.64941C10.4102 6.64941 9.42519 7.60454 9.42519 8.78275C9.42519 9.96095 10.4102 10.9161 11.6252 10.9161Z" fill="#000088"/>
<path d="M11.6252 10.6495C12.6883 10.6495 13.5502 9.81374 13.5502 8.7828C13.5502 7.75187 12.6883 6.91614 11.6252 6.91614C10.562 6.91614 9.7002 7.75187 9.7002 8.7828C9.7002 9.81374 10.562 10.6495 11.6252 10.6495Z" fill="white"/>
<path d="M11.6252 9.15609C11.8378 9.15609 12.0102 8.98894 12.0102 8.78276C12.0102 8.57657 11.8378 8.40942 11.6252 8.40942C11.4126 8.40942 11.2402 8.57657 11.2402 8.78276C11.2402 8.98894 11.4126 9.15609 11.6252 9.15609Z" fill="#000088"/>
<path d="M13.5208 9.12232C13.575 9.12924 13.6247 9.09224 13.6318 9.03967C13.639 8.98711 13.6008 8.93888 13.5466 8.93196C13.4924 8.92504 13.4427 8.96205 13.4355 9.01461C13.4284 9.06718 13.4666 9.1154 13.5208 9.12232Z" fill="#000088"/>
<path d="M11.6252 10.6494L11.6912 9.52943L11.6252 8.99609L11.5592 9.52943L11.6252 10.6494Z" fill="#000088"/>
<path d="M13.365 9.58692C13.4153 9.60694 13.4732 9.58325 13.4944 9.534C13.5156 9.48475 13.4921 9.42859 13.4418 9.40857C13.3916 9.38855 13.3337 9.41224 13.3125 9.46149C13.2913 9.51074 13.3148 9.5669 13.365 9.58692Z" fill="#000088"/>
<path d="M11.1257 10.5862L11.4888 9.51988L11.5696 8.98831L11.3639 9.4876L11.1257 10.5862Z" fill="#000088"/>
<path d="M13.0912 9.99644C13.1343 10.0284 13.1964 10.02 13.23 9.97769C13.2636 9.93534 13.2559 9.87507 13.2128 9.84308C13.1697 9.81109 13.1076 9.81949 13.074 9.86183C13.0404 9.90418 13.0481 9.96444 13.0912 9.99644Z" fill="#000088"/>
<path d="M10.6618 10.3999L11.2968 9.46071L11.5161 8.96702L11.1842 9.39777L10.6618 10.3999Z" fill="#000088"/>
<path d="M12.7175 10.3231C12.7505 10.3649 12.8127 10.3725 12.8563 10.3399C12.9 10.3074 12.9086 10.2472 12.8755 10.2053C12.8425 10.1635 12.7804 10.156 12.7367 10.1885C12.6931 10.2211 12.6845 10.2813 12.7175 10.3231Z" fill="#000088"/>
<path d="M10.2634 10.1033L11.127 9.35531L11.4702 8.93313L11.0348 9.26591L10.2634 10.1033Z" fill="#000088"/>
<path d="M12.2703 10.5438C12.2916 10.5931 12.3495 10.6169 12.3997 10.5969C12.4499 10.5769 12.4733 10.5208 12.4521 10.4715C12.4308 10.4222 12.3729 10.3984 12.3227 10.4184C12.2726 10.4384 12.2491 10.4945 12.2703 10.5438Z" fill="#000088"/>
<path d="M9.95865 9.71521L10.9917 9.21268L11.4341 8.89028L10.9246 9.10009L9.95865 9.71521Z" fill="#000088"/>
<path d="M11.7782 10.6455C11.7856 10.6984 11.8354 10.7359 11.8893 10.7293C11.9431 10.7227 11.9808 10.6745 11.9733 10.6216C11.9659 10.5687 11.9161 10.5312 11.8622 10.5378C11.8084 10.5444 11.7707 10.5927 11.7782 10.6455Z" fill="#000088"/>
<path d="M9.76623 9.26456L10.8988 9.03956L11.4122 8.83924L10.8637 8.91332L9.76623 9.26456Z" fill="#000088"/>
<path d="M11.2745 10.6204C11.2677 10.6727 11.3063 10.7209 11.3609 10.7282C11.4154 10.7354 11.4652 10.6989 11.472 10.6466C11.4788 10.5944 11.4401 10.5461 11.3855 10.5389C11.331 10.5317 11.2813 10.5682 11.2745 10.6204Z" fill="#000088"/>
<path d="M9.70064 8.77776L10.8555 8.84354L11.4047 8.78776L10.8546 8.72553L9.70064 8.77776Z" fill="#000088"/>
<path d="M10.7961 10.4702C10.7753 10.5191 10.7996 10.5752 10.8502 10.5956C10.9009 10.6161 10.9588 10.593 10.9796 10.5441C11.0003 10.4953 10.9761 10.4391 10.9255 10.4187C10.8748 10.3983 10.8169 10.4213 10.7961 10.4702Z" fill="#000088"/>
<path d="M9.76556 8.29908L10.8647 8.65099L11.4129 8.7282L10.8984 8.52856L9.76556 8.29908Z" fill="#000088"/>
<path d="M10.3747 10.2054C10.3411 10.2477 10.3488 10.308 10.3919 10.34C10.435 10.3719 10.4971 10.3635 10.5307 10.3212C10.5643 10.2788 10.5566 10.2186 10.5135 10.1866C10.4705 10.1546 10.4083 10.163 10.3747 10.2054Z" fill="#000088"/>
<path d="M9.95866 7.85027L10.9246 8.46539L11.4341 8.67519L10.9917 8.35279L9.95866 7.85027Z" fill="#000088"/>
<path d="M10.0378 9.84299C9.99411 9.87555 9.98544 9.93581 10.0184 9.97759C10.0514 10.0194 10.1136 10.0268 10.1572 9.99427C10.2009 9.9617 10.2096 9.90144 10.1766 9.85966C10.1436 9.81789 10.0815 9.81042 10.0378 9.84299Z" fill="#000088"/>
<path d="M10.2647 7.46344L11.0331 8.30042L11.469 8.63123L11.1278 8.20862L10.2647 7.46344Z" fill="#000088"/>
<path d="M9.80892 9.40814C9.75817 9.42865 9.73382 9.48481 9.75451 9.53357C9.7752 9.58234 9.83312 9.60525 9.88386 9.58474C9.9346 9.56423 9.95896 9.50807 9.93827 9.45931C9.91757 9.41054 9.85966 9.38763 9.80892 9.40814Z" fill="#000088"/>
<path d="M10.6633 7.1665L11.1822 8.16831L11.5145 8.59757L11.2978 8.10355L10.6633 7.1665Z" fill="#000088"/>
<path d="M9.704 8.93101C9.64956 8.93815 9.61103 8.98637 9.61794 9.03872C9.62484 9.09107 9.67457 9.12772 9.72901 9.12059C9.78345 9.11345 9.82199 9.06523 9.81508 9.01288C9.80817 8.96053 9.75844 8.92388 9.704 8.93101Z" fill="#000088"/>
<path d="M11.1279 6.98003L11.3609 8.07833L11.5673 8.57643L11.4903 8.0446L11.1279 6.98003Z" fill="#000088"/>
<path d="M9.73023 8.44268C9.67635 8.43606 9.62662 8.47356 9.61915 8.52643C9.61168 8.57931 9.6493 8.62753 9.70318 8.63414C9.75705 8.64076 9.80678 8.60326 9.81425 8.55038C9.82172 8.49751 9.7841 8.44929 9.73023 8.44268Z" fill="#000088"/>
<path d="M11.6306 6.91651L11.5627 8.03636L11.6198 8.56902L11.6839 8.03554L11.6306 6.91651Z" fill="#000088"/>
<path d="M9.88536 7.97864C9.83512 7.95861 9.77721 7.9823 9.75601 8.03155C9.7348 8.0808 9.75833 8.13695 9.80856 8.15698C9.85879 8.177 9.9167 8.15331 9.93791 8.10407C9.95911 8.05482 9.93559 7.99866 9.88536 7.97864Z" fill="#000088"/>
<path d="M12.1247 6.97928L11.7616 8.04554L11.6808 8.57712L11.8865 8.07783L12.1247 6.97928Z" fill="#000088"/>
<path d="M10.1592 7.56911C10.1161 7.53712 10.054 7.54552 10.0204 7.58787C9.98679 7.63022 9.99449 7.69048 10.0376 7.72247C10.0806 7.75446 10.1428 7.74606 10.1764 7.70371C10.21 7.66136 10.2024 7.6011 10.1592 7.56911Z" fill="#000088"/>
<path d="M12.5886 7.16564L11.9536 8.10485L11.7343 8.59854L12.0661 8.16778L12.5886 7.16564Z" fill="#000088"/>
<path d="M10.5329 7.24236C10.5 7.20058 10.4378 7.1931 10.3941 7.22566C10.3505 7.25822 10.3418 7.31848 10.3748 7.36026C10.4078 7.40204 10.4699 7.40952 10.5136 7.37696C10.5573 7.3444 10.5659 7.28414 10.5329 7.24236Z" fill="#000088"/>
<path d="M12.987 7.46216L12.1234 8.21033L11.7801 8.63249L12.2154 8.2996L12.987 7.46216Z" fill="#000088"/>
<path d="M10.98 7.02175C10.9588 6.97245 10.9009 6.94869 10.8507 6.96866C10.8005 6.98864 10.777 7.0448 10.7983 7.09409C10.8195 7.14339 10.8774 7.16715 10.9276 7.14718C10.9778 7.1272 11.0013 7.07104 10.98 7.02175Z" fill="#000088"/>
<path d="M13.2917 7.85035L12.2587 8.35287L11.8163 8.67527L12.3258 8.46546L13.2917 7.85035Z" fill="#000088"/>
<path d="M11.4722 6.92C11.4647 6.86712 11.415 6.82961 11.3611 6.83621C11.3072 6.84282 11.2696 6.89104 11.2771 6.94392C11.2845 6.9968 11.3343 7.03432 11.3881 7.02771C11.442 7.02111 11.4797 6.97288 11.4722 6.92Z" fill="#000088"/>
<path d="M13.4842 8.30099L12.3516 8.526L11.8381 8.72631L12.3866 8.65223L13.4842 8.30099Z" fill="#000088"/>
<path d="M11.976 6.94534C11.9828 6.89313 11.944 6.8449 11.8894 6.83763C11.8348 6.83036 11.7851 6.86679 11.7783 6.91901C11.7716 6.97122 11.8103 7.01944 11.8649 7.02672C11.9195 7.03399 11.9692 6.99756 11.976 6.94534Z" fill="#000088"/>
<path d="M13.5497 8.78849L12.3949 8.72249L11.8457 8.77721L12.3959 8.83921L13.5497 8.78849Z" fill="#000088"/>
<path d="M12.4544 7.09552C12.4751 7.04672 12.4508 6.99056 12.4001 6.97009C12.3494 6.94962 12.2914 6.97258 12.2707 7.02138C12.25 7.07018 12.2743 7.12634 12.325 7.14681C12.3757 7.16728 12.4336 7.14432 12.4544 7.09552Z" fill="#000088"/>
<path d="M13.4849 9.26674L12.3856 8.91474L11.8374 8.83711L12.3521 9.03666L13.4849 9.26674Z" fill="#000088"/>
<path d="M12.8765 7.36096C12.9096 7.31904 12.9012 7.25878 12.8577 7.22636C12.8141 7.19394 12.752 7.20164 12.7188 7.24356C12.6857 7.28548 12.6941 7.34574 12.7377 7.37816C12.7812 7.41058 12.8433 7.40288 12.8765 7.36096Z" fill="#000088"/>
<path d="M13.2926 9.71661L12.3246 9.10104L11.8154 8.88909L12.2592 9.21103L13.2926 9.71661Z" fill="#000088"/>
<path d="M13.2134 7.72346C13.2566 7.69133 13.2646 7.63106 13.2311 7.58885C13.1977 7.54665 13.1356 7.53848 13.0923 7.57061C13.0491 7.60274 13.0412 7.663 13.0746 7.70521C13.1081 7.74742 13.1702 7.75559 13.2134 7.72346Z" fill="#000088"/>
<path d="M12.9867 10.1031L12.2159 9.26574L11.7804 8.93334L12.1232 9.3556L12.9867 10.1031Z" fill="#000088"/>
<path d="M13.4421 8.15813C13.4925 8.13798 13.5163 8.08182 13.4952 8.0327C13.4741 7.98358 13.4162 7.96009 13.3658 7.98024C13.3155 8.00039 13.2917 8.05655 13.3128 8.10567C13.3339 8.15479 13.3918 8.17828 13.4421 8.15813Z" fill="#000088"/>
<path d="M12.5881 10.3997L12.0668 9.39767L11.7348 8.96739L11.9533 9.46118L12.5881 10.3997Z" fill="#000088"/>
<path d="M13.5471 8.63538C13.6011 8.6286 13.639 8.58037 13.6318 8.52767C13.6245 8.47496 13.5747 8.43773 13.5207 8.44451C13.4666 8.45129 13.4287 8.49951 13.436 8.55222C13.4433 8.60493 13.493 8.64216 13.5471 8.63538Z" fill="#000088"/>
<path d="M12.124 10.5861L11.8874 9.48767L11.6815 8.98875L11.7611 9.52041L12.124 10.5861Z" fill="#000088"/>
</g>
<defs>
<clipPath id="clip0_209_3797">
<rect width="22" height="16" fill="white" transform="translate(0.625191 0.782715)"/>
</clipPath>
</defs>
</svg>
