<svg width="209" height="48" viewBox="0 0 209 48" fill="none" xmlns="http://www.w3.org/2000/svg">
<path d="M0.947266 47.0335L2.46511 38.5863L30.7101 11.7932H8.66846L10.7802 1.69622H48.3963L46.7465 10.1433L18.6994 36.9365H41.401L39.2892 47.0335H0.947266Z" fill="#202020"/>
<path d="M68.8614 47.8254C57.1146 47.8254 48.4035 39.0483 48.4035 28.0934C48.4035 13.443 62.724 0.904297 77.3085 0.904297C89.2532 0.904297 97.7663 9.54939 97.7663 20.5702C97.7663 35.2207 83.4458 47.8254 68.8614 47.8254ZM69.7193 37.5964C78.3644 37.5964 86.3495 29.0173 86.3495 20.9662C86.3495 15.3568 82.2579 11.1332 76.5165 11.1332C67.9374 11.1332 59.8863 19.5803 59.8863 27.6975C59.8863 33.3069 64.0439 37.5964 69.7193 37.5964Z" fill="#202020"/>
<path d="M99.6456 47.0335L109.083 1.69622H120.235L128.287 25.3217L146.369 1.69622H157.785L148.348 47.0335H137.064L142.673 20.7682L124.789 44.3937L116.54 20.7682L110.93 47.0335H99.6456Z" fill="#202020"/>
<path d="M180.096 47.8254C168.349 47.8254 159.638 39.0483 159.638 28.0934C159.638 13.443 173.958 0.904297 188.543 0.904297C200.488 0.904297 209.001 9.54939 209.001 20.5702C209.001 35.2207 194.68 47.8254 180.096 47.8254ZM180.954 37.5964C189.599 37.5964 197.584 29.0173 197.584 20.9662C197.584 15.3568 193.492 11.1332 187.751 11.1332C179.172 11.1332 171.121 19.5803 171.121 27.6975C171.121 33.3069 175.278 37.5964 180.954 37.5964Z" fill="#202020"/>
</svg>
