<svg width="209" height="48" viewBox="0 0 209 48" fill="none" xmlns="http://www.w3.org/2000/svg">
<path d="M0.947266 46.5647L2.46511 38.1176L30.7101 11.3244H8.66846L10.7802 1.22747H48.3963L46.7465 9.67458L18.6994 36.4678H41.401L39.2892 46.5647H0.947266Z" fill="white"/>
<path d="M68.8614 47.3566C57.1146 47.3566 48.4035 38.5795 48.4035 27.6247C48.4035 12.9742 62.724 0.435547 77.3085 0.435547C89.2532 0.435547 97.7663 9.08064 97.7663 20.1015C97.7663 34.7519 83.4458 47.3566 68.8614 47.3566ZM69.7193 37.1277C78.3644 37.1277 86.3495 28.5486 86.3495 20.4974C86.3495 14.888 82.2579 10.6645 76.5165 10.6645C67.9374 10.6645 59.8863 19.1116 59.8863 27.2287C59.8863 32.8381 64.0439 37.1277 69.7193 37.1277Z" fill="white"/>
<path d="M99.6456 46.5647L109.083 1.22747H120.235L128.287 24.853L146.369 1.22747H157.785L148.348 46.5647H137.064L142.673 20.2995L124.789 43.925L116.54 20.2995L110.93 46.5647H99.6456Z" fill="white"/>
<path d="M180.096 47.3566C168.349 47.3566 159.638 38.5795 159.638 27.6247C159.638 12.9742 173.958 0.435547 188.543 0.435547C200.488 0.435547 209.001 9.08064 209.001 20.1015C209.001 34.7519 194.68 47.3566 180.096 47.3566ZM180.954 37.1277C189.599 37.1277 197.584 28.5486 197.584 20.4974C197.584 14.888 193.492 10.6645 187.751 10.6645C179.172 10.6645 171.121 19.1116 171.121 27.2287C171.121 32.8381 175.278 37.1277 180.954 37.1277Z" fill="white"/>
</svg>
