<svg width="64" height="64" viewBox="0 0 64 64" fill="none" xmlns="http://www.w3.org/2000/svg">
<path d="M6.10645 20.746V46.6926C6.10645 51.7593 9.70645 53.8393 14.0798 51.3326L20.3464 47.7593C21.7064 46.9859 23.9731 46.9059 25.3864 47.6259L39.3864 54.6393C40.7998 55.3326 43.0664 55.2793 44.4264 54.5059L55.9731 47.8926C57.4398 47.0393 58.6664 44.9593 58.6664 43.2526V17.3059C58.6664 12.2393 55.0664 10.1593 50.6931 12.666L44.4264 16.2393C43.0664 17.0126 40.7998 17.0926 39.3864 16.3726L25.3864 9.38595C23.9731 8.69262 21.7064 8.74595 20.3464 9.51928L8.79978 16.1326C7.30645 16.986 6.10645 19.066 6.10645 20.746Z" stroke="#FC8019" stroke-width="2" stroke-linecap="round" stroke-linejoin="round"/>
<path d="M22.8267 10.666V45.3327" stroke="#FC8019" stroke-width="2" stroke-linecap="round" stroke-linejoin="round"/>
<path d="M41.9468 17.6543V53.3343" stroke="#FC8019" stroke-width="2" stroke-linecap="round" stroke-linejoin="round"/>
</svg>
