<svg width="40" height="40" viewBox="0 0 40 40" fill="none" xmlns="http://www.w3.org/2000/svg">
<path d="M38.8389 22.7401C38.7047 22.6811 38.5539 22.6715 38.4133 22.713C38.2726 22.7545 38.1512 22.8443 38.0704 22.9667C36.5801 25.1781 34.5641 26.9849 32.2033 28.225C29.8425 29.4652 27.2108 30.0999 24.5442 30.0722C20.238 30.0367 16.2109 28.3493 13.2048 25.3211C11.7003 23.8076 10.5155 22.0069 9.72103 20.0261C8.92658 18.0454 8.53867 15.9251 8.58038 13.7913C8.62209 11.6576 9.09258 9.55407 9.96385 7.60589C10.8351 5.6577 12.0894 3.90468 13.652 2.45112C13.7588 2.35154 13.8275 2.21772 13.8461 2.07282C13.8647 1.92793 13.8321 1.78109 13.7538 1.65774C13.6755 1.5344 13.5566 1.44232 13.4176 1.39745C13.2785 1.35258 13.1282 1.35774 12.9926 1.41205C9.41375 2.83144 6.33856 5.28423 4.15891 8.45784C1.60157 12.182 0.437072 16.6877 0.869632 21.1846C1.30219 25.6816 3.3042 29.8827 6.52453 33.0511C10.1818 36.6503 15.0438 38.6324 20.2145 38.6324C24.6808 38.6312 29.0121 37.101 32.488 34.2964C35.889 31.5437 38.2564 27.7194 39.2038 23.4478C39.2362 23.3057 39.2173 23.1568 39.1505 23.0273C39.0838 22.8978 38.9734 22.7961 38.8389 22.7401ZM31.8977 33.5682C28.5889 36.2377 24.4659 37.694 20.2145 37.6949C15.2913 37.6949 10.6629 35.8084 7.18211 32.3828C4.11883 29.369 2.21441 25.3729 1.80284 21.0954C1.39127 16.8178 2.49882 12.5319 4.93125 8.98932C6.69468 6.42155 9.07972 4.34221 11.8639 2.94526C9.03246 6.15398 7.5269 10.3192 7.65235 14.5967C7.77781 18.8743 9.5249 22.9441 12.5395 25.9813C15.7209 29.1861 19.9815 30.9718 24.5364 31.0095C24.5846 31.0095 24.6322 31.0101 24.6803 31.0101C27.2029 31.0152 29.6951 30.4603 31.9772 29.3853C34.2592 28.3102 36.2741 26.742 37.8765 24.7937C36.7862 28.241 34.7072 31.292 31.8977 33.5679V33.5682Z" fill="black"/>
</svg>
