<svg width="64" height="64" viewBox="0 0 64 64" fill="none" xmlns="http://www.w3.org/2000/svg">
<path d="M53.3332 22.0007V48.0007C53.3332 56.0007 48.5598 58.6673 42.6665 58.6673H21.3332C15.4398 58.6673 10.6665 56.0007 10.6665 48.0007V22.0007C10.6665 13.334 15.4398 11.334 21.3332 11.334C21.3332 12.9873 21.9998 14.4806 23.0931 15.574C24.1864 16.6673 25.6798 17.334 27.3332 17.334H36.6665C39.9732 17.334 42.6665 14.6407 42.6665 11.334C48.5598 11.334 53.3332 13.334 53.3332 22.0007Z" stroke="#FC8019" stroke-width="2" stroke-linecap="round" stroke-linejoin="round"/>
<path d="M42.6668 11.334C42.6668 14.6407 39.9735 17.334 36.6668 17.334H27.3335C25.6802 17.334 24.1868 16.6673 23.0934 15.574C22.0001 14.4806 21.3335 12.9873 21.3335 11.334C21.3335 8.02732 24.0268 5.33398 27.3335 5.33398H36.6668C38.3202 5.33398 39.8136 6.00066 40.9069 7.09399C42.0002 8.18733 42.6668 9.68065 42.6668 11.334Z" stroke="#FC8019" stroke-width="2" stroke-linecap="round" stroke-linejoin="round"/>
<path d="M21.3335 34.666H32.0002" stroke="#FC8019" stroke-width="2" stroke-linecap="round" stroke-linejoin="round"/>
<path d="M21.3335 45.334H42.6668" stroke="#FC8019" stroke-width="2" stroke-linecap="round" stroke-linejoin="round"/>
</svg>
