<svg width="24" height="16" viewBox="0 0 24 16" fill="none" xmlns="http://www.w3.org/2000/svg">
<path d="M0 0H5.83622V16H0V0ZM17.5119 0H23.3481V16H17.5152L17.5119 0ZM7.58615 7.73127L7.12852 7.88127L9.23935 9.67813C9.4005 10.1375 9.18459 10.2719 9.04599 10.5156L11.3341 10.2344L11.2793 12.4687L11.7563 12.4562L11.6499 10.2375L13.9444 10.5031C13.8026 10.2125 13.677 10.0594 13.8059 9.59687L15.9135 7.89373L15.5461 7.7625C15.2431 7.5375 15.675 6.67813 15.7395 6.13437C15.7395 6.13437 14.5116 6.54373 14.431 6.32813L14.1152 5.74377L12.997 6.9375C12.8745 6.96563 12.8229 6.91873 12.794 6.81873L13.3096 4.325L12.491 4.77187C12.4233 4.80313 12.3556 4.77813 12.3105 4.7L11.521 3.16873L10.7089 4.7594C10.6477 4.81563 10.5864 4.82187 10.5349 4.7844L9.75497 4.3594L10.2255 6.83123C10.1868 6.93123 10.0966 6.95623 9.99347 6.90313L8.92031 5.725C8.78175 5.94377 8.68828 6.29687 8.50138 6.37813C8.31768 6.45313 7.6957 6.22813 7.27997 6.14063C7.42177 6.6375 7.86651 7.4625 7.58615 7.73437V7.73127Z" fill="#D52B1E"/>
</svg>
