<svg width="40" height="40" viewBox="0 0 40 40" fill="none" xmlns="http://www.w3.org/2000/svg">
<g clip-path="url(#clip0_626_12125)">
<path d="M37.2696 10.0271C37.0681 9.68058 36.6238 9.56301 36.2773 9.76448L32.7331 11.8132C32.3866 12.0147 32.2691 12.459 32.4705 12.8055C32.672 13.152 33.1163 13.2695 33.4628 13.0681L37.007 11.0194C37.3535 10.8178 37.471 10.3736 37.2696 10.0271Z" fill="black"/>
<path d="M37.007 28.9851L33.4628 26.9364C33.1163 26.7349 32.672 26.8525 32.4705 27.199C32.2691 27.5455 32.3866 27.9898 32.7331 28.1912L36.2773 30.24C36.6238 30.4414 37.0681 30.3239 37.2696 29.9774C37.471 29.6308 37.3535 29.1865 37.007 28.9851Z" fill="black"/>
<path d="M20.0562 34.3419C19.6543 34.312 19.3044 34.6136 19.2745 35.0155C19.2718 35.0515 19.2718 35.0876 19.2745 35.1236V39.217C19.2446 39.6189 19.5462 39.9688 19.9482 39.9987C20.3501 40.0286 20.7 39.727 20.7299 39.3251C20.7326 39.2891 20.7326 39.253 20.7299 39.217V35.1236C20.7596 34.7218 20.458 34.3718 20.0562 34.3419Z" fill="black"/>
<path d="M7.26674 11.8132L3.72258 9.76448C3.37608 9.56301 2.93176 9.68058 2.7303 10.0271C2.52883 10.3736 2.6464 10.8179 2.9929 11.0194L6.53706 13.0681C6.88356 13.2695 7.32788 13.152 7.52935 12.8055C7.73081 12.4589 7.61324 12.0147 7.26674 11.8132Z" fill="black"/>
<path d="M20.0562 0.0020403C19.6543 -0.0278285 19.3044 0.273766 19.2745 0.675691C19.2718 0.711674 19.2718 0.747757 19.2745 0.78374V4.87717C19.2767 5.27699 19.6003 5.60063 20.0002 5.60284C20.4032 5.60284 20.7298 5.27618 20.7298 4.87316V0.78384C20.7596 0.381915 20.458 0.0319091 20.0562 0.0020403Z" fill="black"/>
<path d="M13.0641 6.53608L11.0194 2.99192C10.8179 2.64543 10.3736 2.52786 10.0271 2.72932C9.68058 2.93078 9.56301 3.37511 9.76448 3.7216L11.8092 7.26576C12.0106 7.61226 12.455 7.72983 12.8015 7.52837C13.148 7.32681 13.2655 6.88258 13.0641 6.53608Z" fill="black"/>
<path d="M20.1083 13.5255C20.0724 13.5228 20.0363 13.5228 20.0003 13.5255C16.4243 13.5255 13.5254 16.4243 13.5254 20.0004C13.5254 20.4034 13.852 20.7301 14.2551 20.7301C14.6565 20.7279 14.9807 20.4018 14.9807 20.0004C14.9785 17.2304 17.2223 14.983 19.9923 14.9808C19.995 14.9808 19.9976 14.9808 20.0003 14.9808C20.4022 15.0107 20.7521 14.7091 20.782 14.3072C20.8119 13.9052 20.5103 13.5552 20.1083 13.5255Z" fill="black"/>
<path d="M39.8897 19.9433C39.8629 19.5829 39.5765 19.2964 39.216 19.2696H35.1226C34.7207 19.2397 34.3708 19.5413 34.3409 19.9433C34.311 20.3452 34.6126 20.6951 35.0146 20.725C35.0505 20.7277 35.0867 20.7277 35.1227 20.725H39.2161C39.618 20.6952 39.9196 20.3452 39.8897 19.9433Z" fill="black"/>
<path d="M4.98556 19.2735C4.94958 19.2708 4.9135 19.2708 4.87751 19.2735H0.78409C0.382164 19.3034 0.08057 19.6534 0.110439 20.0552C0.1372 20.4155 0.42366 20.7021 0.78409 20.7289H4.87751C5.27944 20.7587 5.62935 20.4571 5.65921 20.0552C5.68908 19.6533 5.38749 19.3033 4.98556 19.2735Z" fill="black"/>
<path d="M20.0031 9.29102C14.0889 9.29021 9.29387 14.084 9.29297 19.9982C9.29257 22.8394 10.4214 25.5644 12.4307 27.5731C14.4362 29.5836 17.1604 30.7119 20.0001 30.7083C25.9143 30.7091 30.7095 25.9154 30.7103 20.0012C30.7111 14.087 25.9173 9.29182 20.0031 9.29102ZM26.5432 26.5548C22.9296 30.1684 17.0707 30.1684 13.4571 26.5548C11.7188 24.8165 10.7436 22.4579 10.7468 19.9997C10.7433 17.5448 11.7188 15.1899 13.4571 13.4566V13.4686C17.0707 9.85501 22.9296 9.85501 26.5432 13.4686C30.1569 17.0823 30.1569 22.9411 26.5432 26.5548Z" fill="black"/>
<path d="M30.237 36.2815C30.2364 36.2804 30.2358 36.2793 30.2351 36.2783L28.1864 32.7341C27.9849 32.3876 27.5406 32.27 27.1941 32.4715C26.8476 32.673 26.73 33.1173 26.9315 33.4638L28.9802 37.008C29.1808 37.3541 29.6239 37.4724 29.9705 37.2726C30.3178 37.0724 30.4371 36.6287 30.237 36.2815Z" fill="black"/>
<path d="M29.9974 2.72932C29.6509 2.52786 29.2065 2.64543 29.0051 2.99192L26.9564 6.53608C26.7535 6.88178 26.8694 7.3264 27.215 7.52917C27.2157 7.52957 27.2163 7.52997 27.217 7.53037C27.5632 7.73224 28.0075 7.61527 28.2094 7.26897C28.21 7.26787 28.2107 7.26677 28.2113 7.26576L30.26 3.7216C30.4614 3.37501 30.3439 2.93078 29.9974 2.72932Z" fill="black"/>
<path d="M12.8055 32.4715C12.459 32.27 12.0147 32.3876 11.8132 32.7341L9.76448 36.2783C9.56301 36.6248 9.68058 37.0691 10.0271 37.2706C10.3736 37.472 10.8179 37.3545 11.0194 37.008L13.0681 33.4638C13.2695 33.1172 13.152 32.673 12.8055 32.4715Z" fill="black"/>
<path d="M7.52935 27.195C7.32788 26.8486 6.88356 26.731 6.53706 26.9324L2.9929 28.9812C2.6464 29.1826 2.52883 29.6269 2.7303 29.9734C2.93176 30.3199 3.37608 30.4375 3.72258 30.2361L7.26674 28.1873C7.61324 27.9858 7.73081 27.5415 7.52935 27.195Z" fill="black"/>
</g>
<defs>
<clipPath id="clip0_626_12125">
<rect width="40" height="40" fill="white"/>
</clipPath>
</defs>
</svg>
