<svg width="22" height="16" viewBox="0 0 22 16" fill="none" xmlns="http://www.w3.org/2000/svg">
<path fill-rule="evenodd" clip-rule="evenodd" d="M0 0H22V1.23127H0V0ZM0 2.4625H22V3.69377H0V2.4625ZM0 4.92187H22V6.15623H0V4.92187ZM0 7.38437H22V8.61563H0V7.38437ZM0 9.84687H22V11.0781H0V9.84687ZM0 12.3062H22V13.5375H0V12.3062ZM0 14.7687H22V16H0V14.7687Z" fill="#BD3D44"/>
<path fill-rule="evenodd" clip-rule="evenodd" d="M0 1.23132H22V2.46256H0V1.23132ZM0 3.69379H22V4.92192H0V3.69379ZM0 6.15319H22V7.38442H0V6.15319ZM0 8.61569H22V9.84692H0V8.61569ZM0 11.0782H22V12.3094H0V11.0782ZM0 13.5376H22V14.7688H0V13.5376Z" fill="white"/>
<path fill-rule="evenodd" clip-rule="evenodd" d="M0 0H8.79954V8.61563H0V0Z" fill="#192F5D"/>
<path fill-rule="evenodd" clip-rule="evenodd" d="M0.732739 0.368774L0.814154 0.709341H1.07198L0.863895 0.918741L0.943066 1.26247L0.732739 1.04997L0.52468 1.25934L0.603827 0.918741L0.393524 0.709341H0.65586L0.732739 0.368774ZM2.20047 0.368774L2.27961 0.709341H2.53968L2.32936 0.918741L2.40853 1.26247L2.20047 1.04997L1.99014 1.25934L2.06929 0.918741L1.86123 0.709341H2.11905L2.20047 0.368774ZM3.66593 0.368774L3.74734 0.709374H4.0029L3.79484 0.918774L3.87396 1.26251L3.66366 1.05001L3.4556 1.25937L3.53475 0.918774L3.32442 0.709374H3.58451L3.66593 0.368774ZM5.13366 0.368774L5.21278 0.709374H5.47287L5.26254 0.918774L5.34396 1.26251L5.13363 1.05001L4.92333 1.25937L5.00474 0.918774L4.79442 0.709374H5.05224L5.13366 0.368774ZM6.59912 0.368774L6.68053 0.709374H6.93833L6.73027 0.918774L6.80942 1.26251L6.59909 1.05001L6.39103 1.25937L6.4702 0.918774L6.26215 0.709374H6.51995L6.59912 0.368774ZM8.06682 0.368774L8.14597 0.709374H8.40606L8.19573 0.918774L8.27715 1.26251L8.06682 1.05001L7.85649 1.25937L7.93791 0.918774L7.72761 0.709374H7.98767L8.06682 0.368774ZM1.46774 1.23121L1.54688 1.57187H1.80695L1.59663 1.78121L1.67353 2.12187L1.46998 1.91247L1.25968 2.12184L1.33429 1.78124L1.13077 1.57184H1.38859L1.46774 1.23121ZM2.9332 1.23121L3.01461 1.57187H3.27241L3.06209 1.78121L3.14352 2.12187L2.93317 1.91247L2.72287 2.12184L2.80429 1.78124L2.59396 1.57184H2.85403L2.9332 1.23121ZM4.40093 1.23121L4.48005 1.57187H4.74014L4.52981 1.78121L4.60896 2.12187L4.4009 1.91247L4.1906 2.12184L4.26975 1.78127L4.06169 1.57187H4.31951L4.40093 1.23121ZM5.86639 1.23121L5.9478 1.57187H6.2056L5.99527 1.78121L6.07669 2.12187L5.86636 1.91247L5.6583 2.12184L5.73747 1.78124L5.52715 1.57184H5.78948L5.86639 1.23121ZM7.33409 1.23121L7.41324 1.57187H7.67333L7.463 1.78121L7.54215 2.12187L7.33409 1.91247L7.12376 2.12184L7.20294 1.78124L6.99488 1.57184H7.25268L7.33409 1.23121ZM0.732739 2.09067L0.814154 2.43754H1.07198L0.863895 2.64691L0.943066 2.98754L0.732739 2.77504L0.52468 2.98754L0.603827 2.64377L0.393524 2.43444H0.65586L0.732739 2.09067ZM2.20047 2.09067L2.27961 2.43434H2.53968L2.32936 2.64371L2.40853 2.98437L2.20047 2.77184L1.99014 2.98434L2.06929 2.64061L1.86123 2.43124H2.11905L2.20047 2.09067ZM3.66593 2.09067L3.74734 2.43441H4.0029L3.79484 2.64377L3.87396 2.98444L3.66366 2.77191L3.4556 2.98441L3.53475 2.64067L3.32442 2.43131H3.58451L3.66593 2.09067ZM5.13366 2.09067L5.21278 2.43441H5.47287L5.26254 2.64377L5.34396 2.98444L5.13363 2.77191L4.92333 2.98441L5.00474 2.64067L4.79442 2.43131H5.05224L5.13366 2.09067ZM6.59912 2.09067L6.68053 2.43441H6.93833L6.73027 2.64374L6.80942 2.98441L6.59909 2.77187L6.39103 2.98437L6.4702 2.64064L6.26215 2.43127H6.51995L6.59912 2.09067ZM8.06682 2.09067L8.14597 2.43441H8.40606L8.19573 2.64377L8.27715 2.98444L8.06682 2.77191L7.85649 2.98441L7.93791 2.64067L7.72761 2.43131H7.98767L8.06682 2.09067ZM1.46774 2.95314L1.54688 3.29377H1.80695L1.59663 3.50311L1.6758 3.84687L1.46774 3.63437L1.25741 3.84374L1.33656 3.50314L1.1285 3.29377H1.38635L1.46774 2.95314ZM2.9332 2.95314L3.01461 3.29377H3.27241L3.06209 3.50311L3.14352 3.84687L2.93317 3.63437L2.72287 3.84374L2.80429 3.50314L2.59396 3.29377H2.85403L2.9332 2.95314ZM4.40093 2.95314L4.48005 3.29377H4.74014L4.52981 3.50311L4.60896 3.84687L4.4009 3.63437L4.1906 3.84374L4.26975 3.50314L4.06169 3.29377H4.31951L4.40093 2.95314ZM5.86639 2.95314L5.9478 3.29377H6.2056L5.99754 3.50311L6.07669 3.84687L5.86636 3.63437L5.6583 3.84374L5.73747 3.50314L5.52715 3.29377H5.78948L5.86639 2.95314ZM7.33409 2.95314L7.41324 3.29377H7.67333L7.463 3.50311L7.54215 3.84687L7.33409 3.63437L7.12376 3.84374L7.20294 3.50314L6.99488 3.29377H7.25268L7.33409 2.95314ZM0.732739 3.81564L0.814154 4.15627H1.07198L0.863895 4.36561L0.943066 4.70937L0.732739 4.49687L0.52468 4.70624L0.603827 4.36564L0.393524 4.15627H0.65586L0.732739 3.81564ZM2.20047 3.81564L2.27961 4.15627H2.53968L2.32936 4.36561L2.40853 4.70627L2.20047 4.49687L1.99014 4.70624L2.06929 4.36564L1.86123 4.15627H2.11905L2.20047 3.81564ZM3.66593 3.81564L3.74734 4.15627H4.0029L3.79484 4.36561L3.87396 4.70937L3.66366 4.49687L3.4556 4.70624L3.53475 4.36564L3.32442 4.15627H3.58451L3.66593 3.81564ZM5.13366 3.81564L5.21278 4.15627H5.47287L5.26254 4.36561L5.34396 4.70937L5.13363 4.49687L4.92333 4.70624L5.00474 4.36564L4.79442 4.15627H5.05224L5.13366 3.81564ZM6.59912 3.81564L6.68053 4.15627H6.93833L6.73027 4.36561L6.80942 4.70937L6.59909 4.49687L6.39103 4.70624L6.4702 4.36564L6.26215 4.15627H6.51995L6.59912 3.81564ZM8.06682 3.81564L8.14597 4.15627H8.40606L8.19573 4.36561L8.27715 4.70937L8.06682 4.49687L7.85649 4.70624L7.93791 4.36564L7.72761 4.15627H7.98767L8.06682 3.81564ZM1.46774 4.67814L1.54688 5.01877H1.80695L1.59663 5.22811L1.6758 5.56877L1.46774 5.35627L1.25741 5.56877L1.33656 5.22501L1.1285 5.01564H1.38635L1.46774 4.67814ZM2.9332 4.67814L3.01461 5.01877H3.27241L3.06209 5.22811L3.14352 5.56877L2.93317 5.35627L2.72287 5.56877L2.80429 5.22501L2.59396 5.01564H2.85403L2.9332 4.67814ZM4.40093 4.67814L4.48005 5.01877H4.74014L4.52981 5.22811L4.60896 5.56877L4.4009 5.35627L4.1906 5.56877L4.26975 5.22501L4.06169 5.01564H4.31951L4.40093 4.67814ZM5.86639 4.67814L5.9478 5.01877H6.2056L5.99754 5.22811L6.07669 5.56877L5.86636 5.35627L5.6583 5.56877L5.73747 5.22501L5.52715 5.01564H5.78948L5.86639 4.67814ZM7.33409 4.67814L7.41324 5.01877H7.67333L7.463 5.22811L7.54215 5.56877L7.33409 5.35627L7.12376 5.56877L7.20294 5.22501L6.99488 5.01564H7.25268L7.33409 4.67814ZM0.732739 5.53751L0.814154 5.88127H1.07198L0.863895 6.09061L0.943066 6.42814L0.732739 6.21877L0.52468 6.42811L0.603827 6.08751L0.393524 5.87814H0.65586L0.732739 5.53751ZM2.20047 5.53751L2.27961 5.88127H2.53968L2.32936 6.09061L2.41079 6.42814L2.20044 6.21877L1.99014 6.42811L2.07155 6.08751L1.86123 5.87814H2.11905L2.20047 5.53751ZM3.66593 5.53751L3.74734 5.88127H4.0029L3.79484 6.09061L3.87396 6.42814L3.66366 6.21877L3.4556 6.42811L3.53475 6.08751L3.32442 5.87814H3.58451L3.66593 5.53751ZM5.13366 5.53751L5.21278 5.88127H5.47287L5.26254 6.09061L5.34396 6.42814L5.13363 6.21877L4.92333 6.42811L5.00474 6.08751L4.79442 5.87814H5.05224L5.13366 5.53751ZM6.59912 5.53751L6.68053 5.88127H6.93833L6.73027 6.09061L6.80942 6.42814L6.59909 6.21877L6.39103 6.42811L6.4702 6.08751L6.26215 5.87814H6.51995L6.59912 5.53751ZM8.06682 5.53751L8.14597 5.88127H8.40606L8.19573 6.09061L8.27715 6.42814L8.06682 6.21877L7.85649 6.42811L7.93791 6.08751L7.72761 5.87814H7.98767L8.06682 5.53751ZM1.46774 6.40001L1.54688 6.74064H1.80695L1.59663 6.95001L1.6758 7.29377L1.46774 7.08127L1.25741 7.29061L1.33656 6.95001L1.1285 6.74064H1.38635L1.46774 6.40001ZM2.9332 6.40001L3.01461 6.74064H3.27241L3.06209 6.95001L3.14352 7.29377L2.93317 7.08127L2.72287 7.29061L2.80429 6.95001L2.59396 6.74064H2.85403L2.9332 6.40001ZM4.40093 6.40001L4.48005 6.74064H4.74014L4.52981 6.95001L4.60896 7.29377L4.4009 7.08127L4.1906 7.29061L4.26975 6.95001L4.06169 6.74064H4.31951L4.40093 6.40001ZM5.86639 6.40001L5.9478 6.74064H6.2056L5.99754 6.95001L6.07669 7.29377L5.86636 7.08127L5.6583 7.29061L5.73747 6.95001L5.52715 6.74064H5.78948L5.86639 6.40001ZM7.33409 6.40001L7.41324 6.74064H7.67333L7.463 6.95001L7.54215 7.29377L7.33409 7.08127L7.12376 7.29061L7.20294 6.95001L6.99488 6.74064H7.25268L7.33409 6.40001ZM0.732739 7.26251L0.814154 7.60314H1.07198L0.863895 7.81251L0.943066 8.15314L0.732739 7.94377L0.52468 8.15311L0.603827 7.80937L0.393524 7.60001H0.65586L0.732739 7.26251ZM2.20047 7.26251L2.27961 7.60314H2.53968L2.32936 7.81251L2.41079 8.15314L2.20044 7.94377L1.99014 8.15311L2.07155 7.80937L1.86123 7.60001H2.11905L2.20047 7.26251ZM3.66593 7.26251L3.74734 7.60314H4.0029L3.79935 7.81251L3.8785 8.15314L3.66817 7.94377L3.46011 8.15311L3.53928 7.80937L3.32896 7.60001H3.58902L3.66593 7.26251ZM5.13366 7.26251L5.21278 7.60314H5.47287L5.26254 7.81251L5.34396 8.15314L5.13363 7.94377L4.92333 8.15311L5.00474 7.80937L4.79442 7.60001H5.05224L5.13366 7.26251ZM6.59912 7.26251L6.68053 7.60314H6.93833L6.73027 7.81251L6.80942 8.15314L6.59909 7.94377L6.39103 8.15311L6.4702 7.80937L6.26215 7.60001H6.51995L6.59912 7.26251ZM8.06682 7.26251L8.14597 7.60314H8.40606L8.19573 7.81251L8.27715 8.15314L8.06682 7.94377L7.85649 8.15311L7.93791 7.80937L7.72761 7.60001H7.98767L8.06682 7.26251Z" fill="white"/>
</svg>
