<svg width="437" height="371" viewBox="0 0 437 371" fill="none" xmlns="http://www.w3.org/2000/svg">
<g clip-path="url(#clip0_3_40)">
<mask id="mask0_3_40" style="mask-type:luminance" maskUnits="userSpaceOnUse" x="0" y="0" width="437" height="371">
<path d="M437 0H0V370.657H437V0Z" fill="white"/>
</mask>
<g mask="url(#mask0_3_40)">
<path d="M367.371 96.6239L333.559 169.021L276.281 157.127L279.225 148.075L326.746 158.661L356.903 96.4096C357.207 95.7706 357.667 95.2184 358.241 94.8043C359.763 93.699 362.946 92.06 366.551 94.1613C366.971 94.3941 367.289 94.7766 367.441 95.2328C367.593 95.6889 367.568 96.1855 367.371 96.6239Z" fill="#7BB93F"/>
<path d="M190.876 370.052H300.487V204.738H190.876V370.052Z" fill="#C6E3A9"/>
<path d="M295.024 271.772L290.579 284.951C290.579 284.951 297.392 292.999 297.068 302.211C297.068 302.211 269.396 288.763 269.758 286.523C270.12 284.283 279.557 263.493 279.557 263.493L295.024 271.772Z" fill="#545454"/>
<path d="M365.608 254.857L373.7 266.174C373.7 266.174 384.213 265.367 391.493 271.024C391.493 271.024 364.393 285.577 362.778 283.959C361.163 282.341 349.834 262.526 349.834 262.526L365.608 254.857Z" fill="#545454"/>
<path d="M330.014 176.442C331.851 172.862 376.437 250.873 375.723 252.432L342.151 269.41L319.5 232.625L330.014 176.442Z" fill="white" stroke="#545454" stroke-width="1.92" stroke-miterlimit="10"/>
<path d="M272.063 154.572C272.063 154.572 340.649 160.683 336.747 189.983C336.747 189.983 338.816 212.012 304.482 276.886L269.75 264.964L298.464 205.141L213.325 203.813C213.325 203.813 183.227 194.118 192.719 153.753L232.136 145.293L272.063 154.572Z" fill="white" stroke="#545454" stroke-width="1.92" stroke-miterlimit="10"/>
<path d="M228.086 83.0751C228.086 83.0751 226.063 94.7959 224.041 96.8173C222.018 98.8387 215.55 98.8387 215.55 98.8387L203.821 89.5428L212.312 77.0151L228.086 83.0751Z" fill="white" stroke="#545454" stroke-width="0.96" stroke-miterlimit="10"/>
<path d="M230.488 83.9899C242.064 82.1122 249.924 71.213 248.045 59.6458C246.166 48.0786 235.259 40.2236 223.684 42.1012C212.109 43.9789 204.248 54.8781 206.127 66.4453C208.006 78.0125 218.913 85.8675 230.488 83.9899Z" fill="white"/>
<path d="M227.077 42.0504C231.236 42.0504 235.301 43.2827 238.759 45.5916C242.217 47.9005 244.912 51.1822 246.504 55.0218C248.095 58.8613 248.511 63.0862 247.7 67.1622C246.889 71.2383 244.886 74.9824 241.945 77.921C239.005 80.8597 235.258 82.8609 231.179 83.6717C227.1 84.4824 222.872 84.0663 219.03 82.4759C215.188 80.8856 211.904 78.1923 209.593 74.7368C207.283 71.2813 206.05 67.2188 206.05 63.0629C206.057 57.4924 208.275 52.1523 212.217 48.2134C216.159 44.2745 221.503 42.0582 227.077 42.0504ZM227.077 41.6301C222.835 41.6301 218.688 42.8871 215.161 45.2422C211.634 47.5973 208.885 50.9446 207.262 54.8609C205.638 58.7773 205.214 63.0867 206.041 67.2442C206.869 71.4018 208.912 75.2207 211.911 78.2182C214.911 81.2156 218.732 83.2569 222.893 84.0838C227.053 84.9108 231.366 84.4864 235.285 82.8642C239.204 81.242 242.553 78.4949 244.91 74.9703C247.267 71.4457 248.525 67.3019 248.525 63.0629C248.525 57.3786 246.265 51.9271 242.243 47.9076C238.221 43.8882 232.765 41.6301 227.077 41.6301Z" fill="#545454"/>
<path d="M305.832 150.378C307.552 151.084 308.692 155.161 310.126 156.547C311.56 157.934 313.642 156.787 311.476 153.58M305.66 154.719C307.826 157.922 306.261 159.401 304.596 158.296C303.86 157.808 302.914 156.358 302.098 154.934C301.438 153.774 300.523 152.779 299.422 152.023C298.322 151.268 297.064 150.771 295.744 150.571C290.575 149.802 280.848 149.605 265.111 153.749C239.458 160.498 223.263 159.884 218.649 133.93L236.136 129.454C236.337 129.941 239.412 142.881 239.412 142.881C239.412 142.881 286.803 137.443 293.868 137.443C301.181 137.443 312.616 147.529 314.02 152.912C314.285 153.929 314.327 156.451 311.476 153.564C310.723 152.803 310.038 150.878 307.91 149.21M308.629 154.316C310.795 157.518 309.285 158.913 307.565 157.888C305.933 156.921 305.677 152.706 303.208 150.891" fill="#FCFCFC"/>
<path d="M305.832 150.378C307.552 151.084 308.692 155.161 310.126 156.547C311.56 157.934 313.642 156.787 311.476 153.58M305.66 154.719C307.826 157.922 306.261 159.401 304.596 158.296C303.86 157.808 302.914 156.358 302.098 154.934C301.438 153.774 300.523 152.779 299.422 152.023C298.322 151.268 297.064 150.771 295.744 150.571C290.575 149.802 280.848 149.605 265.111 153.749C239.458 160.498 223.263 159.884 218.649 133.93L236.136 129.454C236.337 129.941 239.412 142.881 239.412 142.881C239.412 142.881 286.803 137.443 293.868 137.443C301.181 137.443 312.616 147.529 314.02 152.912C314.285 153.929 314.327 156.451 311.476 153.564C310.723 152.803 310.038 150.878 307.91 149.21M308.629 154.316C310.795 157.518 309.285 158.913 307.565 157.888C305.933 156.921 305.677 152.706 303.208 150.891" stroke="#545454" stroke-width="1.92" stroke-miterlimit="10"/>
<path d="M324.353 136.422C327.587 137.229 329.589 141.372 331.633 141.675C333.786 141.999 334.732 139.969 331.212 137.632M333.773 135.703C337.28 138.036 335.661 140.057 333.639 139.25C331.616 138.443 328.785 134.804 326.763 134.804M333.773 135.703C337.28 138.036 335.661 140.057 333.639 139.25C331.616 138.443 328.785 134.804 326.763 134.804M328.382 139.25C331.885 141.587 330.905 143.717 328.802 143.293C327.86 143.104 326.279 142.032 324.904 140.952C323.76 140.056 322.427 139.43 321.006 139.122C319.585 138.814 318.112 138.832 316.699 139.174C311.173 140.532 301.29 144.348 287.139 155.014C264.085 172.395 247.503 178.455 232.132 154.207L247.906 142.482C248.327 142.902 254.379 151.374 254.379 151.374C254.379 151.374 302.266 129.635 309.386 126.718C316.754 123.705 332.44 129.147 336.082 133.997C336.767 134.909 337.852 137.435 333.79 135.703C332.718 135.245 331.229 133.602 328.399 132.782" fill="white"/>
<path d="M324.353 136.422C327.587 137.229 329.589 141.372 331.633 141.675C333.786 141.999 334.732 139.969 331.212 137.632M333.773 135.703C337.28 138.036 335.661 140.057 333.639 139.25C331.616 138.443 328.785 134.804 326.763 134.804M328.382 139.25C331.885 141.587 330.905 143.717 328.802 143.293C327.86 143.104 326.279 142.032 324.904 140.952C323.76 140.056 322.427 139.43 321.006 139.122C319.585 138.814 318.112 138.832 316.699 139.174C311.173 140.532 301.29 144.348 287.139 155.014C264.085 172.395 247.503 178.455 232.132 154.207L247.906 142.482C248.327 142.902 254.379 151.374 254.379 151.374C254.379 151.374 302.266 129.635 309.386 126.718C316.754 123.705 332.44 129.147 336.082 133.997C336.767 134.909 337.852 137.435 333.79 135.703C332.718 135.245 331.229 133.602 328.399 132.782" stroke="#545454" stroke-width="1.92" stroke-miterlimit="10"/>
<path d="M97.2424 369.85H176.115V233.638H97.2424V369.85Z" fill="#C6E3A9"/>
<path d="M133.754 253.999C135.919 253.999 137.673 252.246 137.673 250.083C137.673 247.92 135.919 246.166 133.754 246.166C131.589 246.166 129.834 247.92 129.834 250.083C129.834 252.246 131.589 253.999 133.754 253.999Z" fill="white"/>
<path d="M110.528 260.685C112.058 259.156 112.058 256.676 110.528 255.146C108.997 253.617 106.516 253.617 104.985 255.146C103.454 256.676 103.454 259.156 104.985 260.685C106.515 262.215 108.997 262.215 110.528 260.685Z" fill="white"/>
<path d="M128.413 277.126C130.575 277.126 132.328 275.374 132.328 273.213C132.328 271.052 130.575 269.301 128.413 269.301C126.251 269.301 124.498 271.052 124.498 273.213C124.498 275.374 126.251 277.126 128.413 277.126Z" fill="white"/>
<path d="M124.061 299.117C125.591 297.588 125.591 295.108 124.061 293.578C122.53 292.049 120.048 292.049 118.518 293.578C116.987 295.108 116.987 297.588 118.518 299.117C120.048 300.647 122.53 300.647 124.061 299.117Z" fill="white"/>
<path d="M118.363 325.095C119.894 323.565 119.894 321.085 118.363 319.556C116.833 318.026 114.351 318.026 112.82 319.556C111.29 321.085 111.29 323.565 112.82 325.095C114.351 326.625 116.833 326.625 118.363 325.095Z" fill="white"/>
<path d="M132.333 344.038C134.497 344.038 136.252 342.284 136.252 340.121C136.252 337.958 134.497 336.205 132.333 336.205C130.168 336.205 128.413 337.958 128.413 340.121C128.413 342.284 130.168 344.038 132.333 344.038Z" fill="white"/>
<path d="M117.084 351.268C117.908 349.268 116.953 346.979 114.952 346.155C112.95 345.332 110.659 346.286 109.835 348.287C109.012 350.287 109.966 352.576 111.968 353.399C113.97 354.223 116.261 353.268 117.084 351.268Z" fill="white"/>
<path d="M145.075 318.332C146.606 316.802 146.606 314.322 145.075 312.793C143.545 311.263 141.063 311.263 139.532 312.793C138.002 314.322 138.002 316.802 139.532 318.332C141.063 319.861 143.545 319.861 145.075 318.332Z" fill="white"/>
<path d="M146.219 293.86C148.384 293.86 150.139 292.107 150.139 289.944C150.139 287.78 148.384 286.027 146.219 286.027C144.054 286.027 142.3 287.78 142.3 289.944C142.3 292.107 144.054 293.86 146.219 293.86Z" fill="white"/>
<path d="M167.166 284.132C168.861 282.787 169.145 280.323 167.799 278.629C166.453 276.935 163.988 276.651 162.292 277.996C160.597 279.341 160.313 281.805 161.659 283.499C163.005 285.193 165.47 285.477 167.166 284.132Z" fill="white"/>
<path d="M167.17 312.602C168.865 311.257 169.149 308.793 167.803 307.099C166.457 305.405 163.992 305.122 162.297 306.466C160.601 307.811 160.318 310.275 161.663 311.969C163.009 313.663 165.474 313.947 167.17 312.602Z" fill="white"/>
<path d="M155.122 335.848C157.284 335.848 159.037 334.096 159.037 331.935C159.037 329.774 157.284 328.022 155.122 328.022C152.959 328.022 151.207 329.774 151.207 331.935C151.207 334.096 152.959 335.848 155.122 335.848Z" fill="white"/>
<path d="M165.706 352.834C167.799 352.284 169.05 350.141 168.498 348.05C167.947 345.958 165.804 344.708 163.71 345.259C161.617 345.81 160.367 347.952 160.918 350.044C161.469 352.136 163.613 353.385 165.706 352.834Z" fill="white"/>
<path d="M153.976 267.085C155.507 265.555 155.507 263.075 153.976 261.546C152.446 260.016 149.964 260.016 148.433 261.546C146.903 263.075 146.903 265.555 148.433 267.085C149.964 268.615 152.446 268.615 153.976 267.085Z" fill="white"/>
<path d="M158.722 54.5821C158.722 54.5821 136.475 70.3457 124.746 43.6556C113.017 16.9655 148.347 46.9588 116.621 60.8313C101.902 65.6809 96.2289 46.6856 90.1605 36.9862C84.092 27.2869 74.3859 31.3591 72.771 47.1017C70.7187 65.8533 59.5281 54.8721 53.5269 47.4127C46.5795 38.7765 33.6604 37.7217 25.6112 45.3366L25.0435 45.8913" stroke="#545454" stroke-width="1.92" stroke-miterlimit="10" stroke-linecap="round"/>
<path d="M0.403809 169.974C15.1229 165.125 20.796 184.12 26.8602 193.82C32.9245 203.519 42.6348 199.48 44.2539 183.733C46.3062 164.982 57.4969 175.963 63.498 183.423C70.4454 192.059 83.3603 193.118 91.4138 185.499C91.603 185.318 91.7922 185.137 91.9815 184.948" stroke="#545454" stroke-width="1.92" stroke-miterlimit="10" stroke-linecap="round"/>
<path d="M437 370.052H0.168213" stroke="#545454" stroke-width="2.88" stroke-miterlimit="10"/>
<path d="M161.766 97.1534C177.613 103.226 191.457 104.957 200.179 95.6069L217.976 72.1611C215.954 73.3841 210.709 64.4832 215.954 62.4576C221.198 60.4319 222.426 65.6893 222.426 65.6893C233.36 67.3072 237.797 55.183 237.797 55.183C242.65 63.6721 248.31 62.0541 248.31 62.0541C246.161 40.033 225.264 38.7092 211.723 44.4498C212.627 43.2344 213.119 41.7619 213.127 40.2473C213.127 36.007 209.343 32.5693 204.632 32.5693C199.922 32.5693 196.137 36.007 196.137 40.2473C196.137 44.4876 199.922 47.9295 204.632 47.9295C204.981 47.9297 205.329 47.9086 205.675 47.8665C202.168 50.4804 200.002 53.6407 200.183 56.822C200.469 61.8104 194.926 60.8606 194.926 60.8606C179.551 59.23 179.169 70.1397 179.169 70.1397C177.953 78.6288 172.696 79.0322 172.696 79.0322C162.877 81.3142 159.432 86.3026 158.297 90.2151C157.904 91.5957 158.042 93.0731 158.684 94.357C159.326 95.6409 160.426 96.6384 161.766 97.1534Z" fill="#545454"/>
<path d="M225.635 95.6071C225.958 95.5734 226.299 103.667 226.421 106.861C226.435 107.261 226.53 107.655 226.703 108.016C226.875 108.378 227.12 108.7 227.422 108.963C231.123 112.194 244.664 124.638 251.393 139.086C251.67 139.704 251.725 140.399 251.548 141.053C251.372 141.706 250.976 142.28 250.426 142.675L231.648 156.123C231.173 156.464 230.606 156.656 230.021 156.674L177.949 158.153C177.509 158.161 177.072 158.071 176.672 157.889C176.271 157.706 175.916 157.437 175.634 157.099C175.351 156.761 175.148 156.365 175.04 155.939C174.931 155.512 174.919 155.067 175.005 154.635C177.209 143.957 184.737 112.215 199.607 94.2034C199.726 94.0598 199.83 93.905 199.918 93.7411L201.634 90.5556C202.004 89.8741 202.628 89.366 203.37 89.1417C204.113 88.9174 204.914 88.9951 205.6 89.3579C210.037 91.7407 219.347 96.2038 225.635 95.6071Z" fill="#545454"/>
<path d="M201.798 98.8386V107.029" stroke="white" stroke-width="4.81" stroke-miterlimit="10" stroke-linecap="round"/>
<path d="M221.265 106.979H213.069" stroke="white" stroke-width="4.81" stroke-miterlimit="10" stroke-linecap="round"/>
<path d="M200.448 119.099L206.382 113.451" stroke="white" stroke-width="4.81" stroke-miterlimit="10" stroke-linecap="round"/>
<path d="M219.137 117.448L218.435 125.609" stroke="white" stroke-width="4.81" stroke-miterlimit="10" stroke-linecap="round"/>
<path d="M228.469 117.674L235.795 121.343" stroke="white" stroke-width="4.81" stroke-miterlimit="10" stroke-linecap="round"/>
<path d="M232.973 132.459L241.001 130.807" stroke="white" stroke-width="4.81" stroke-miterlimit="10" stroke-linecap="round"/>
<path d="M228.154 142.431L232.876 149.126" stroke="white" stroke-width="4.81" stroke-miterlimit="10" stroke-linecap="round"/>
<path d="M206.222 95.0396L213.552 98.7083" stroke="white" stroke-width="4.81" stroke-miterlimit="10" stroke-linecap="round"/>
<path d="M188.517 122.953L194.043 128.996" stroke="white" stroke-width="4.81" stroke-miterlimit="10" stroke-linecap="round"/>
<path d="M202.98 128.399L211.134 127.592" stroke="white" stroke-width="4.81" stroke-miterlimit="10" stroke-linecap="round"/>
<path d="M211.778 134.556L218.515 139.216" stroke="white" stroke-width="4.81" stroke-miterlimit="10" stroke-linecap="round"/>
<path d="M187.508 135.77L194.245 140.431" stroke="white" stroke-width="4.81" stroke-miterlimit="10" stroke-linecap="round"/>
<path d="M182.083 140.473L181.873 148.659" stroke="white" stroke-width="4.81" stroke-miterlimit="10" stroke-linecap="round"/>
<path d="M198.207 149.16L190.019 148.87" stroke="white" stroke-width="4.81" stroke-miterlimit="10" stroke-linecap="round"/>
<path d="M214.217 151.992L209.599 145.226" stroke="white" stroke-width="4.81" stroke-miterlimit="10" stroke-linecap="round"/>
<path d="M218.582 65.2649C217.392 66.9459 218.086 68.5387 219.806 69.396C219.869 69.4095 219.928 69.4374 219.979 69.4777C220.03 69.5179 220.071 69.5693 220.098 69.6278C220.126 69.6864 220.14 69.7505 220.138 69.8153C220.137 69.88 220.121 69.9435 220.091 70.001C220.061 70.0584 220.018 70.1081 219.966 70.1463C219.914 70.1845 219.853 70.2101 219.789 70.2211C219.726 70.2321 219.66 70.2282 219.598 70.2097C219.536 70.1913 219.479 70.1587 219.431 70.1146C217.665 68.9085 216.984 66.9333 218.59 65.2649H218.582Z" fill="#545454"/>
<path d="M233.953 83.0751C231.089 82.949 228.322 81.0957 227.645 78.2338C227.645 78.2249 227.648 78.2163 227.655 78.21C227.661 78.2037 227.669 78.2002 227.678 78.2002C227.687 78.2002 227.696 78.2037 227.702 78.21C227.709 78.2163 227.712 78.2249 227.712 78.2338C228.465 80.9654 231.203 82.6801 233.961 82.6885C234.017 82.6885 234.071 82.7106 234.11 82.75C234.149 82.7894 234.172 82.8429 234.172 82.8986C234.172 82.9543 234.149 83.0078 234.11 83.0472C234.071 83.0866 234.017 83.1087 233.961 83.1087L233.953 83.0751Z" fill="#545454"/>
<path d="M397.158 204.536C400.172 204.536 402.616 202.094 402.616 199.081C402.616 196.068 400.172 193.626 397.158 193.626C394.143 193.626 391.699 196.068 391.699 199.081C391.699 202.094 394.143 204.536 397.158 204.536Z" stroke="#545454" stroke-width="1.85" stroke-miterlimit="10" stroke-linecap="round"/>
<path d="M30.3002 19.4156C33.315 19.4156 35.7589 16.9733 35.7589 13.9607C35.7589 10.9481 33.315 8.50586 30.3002 8.50586C27.2855 8.50586 24.8416 10.9481 24.8416 13.9607C24.8416 16.9733 27.2855 19.4156 30.3002 19.4156Z" stroke="#545454" stroke-width="1.85" stroke-miterlimit="10" stroke-linecap="round"/>
<path d="M227.481 86.2145C227.481 86.2145 222.224 86.1095 218.986 82.8735C218.986 82.8735 225.054 84.8949 227.683 84.3234L227.481 86.2145Z" fill="#545454"/>
<path d="M309.016 1.26085C315.221 1.26002 321.286 3.09778 326.446 6.54176C331.605 9.98574 335.627 14.8813 338.003 20.6093C340.378 26.3373 341 32.6406 339.791 38.7221C338.582 44.8036 335.595 50.3901 331.208 54.7754C326.822 59.1606 321.232 62.1475 315.147 63.3585C309.062 64.5695 302.754 63.95 297.021 61.5786C291.288 59.2072 286.388 55.1902 282.939 50.0356C279.491 44.881 277.649 38.8203 277.647 32.6199C277.657 24.3094 280.966 16.3421 286.846 10.4657C292.727 4.58924 300.699 1.28346 309.016 1.27345M309.016 0.0126956C302.561 0.0126956 296.252 1.92544 290.885 5.50902C285.518 9.09259 281.335 14.1861 278.865 20.1453C276.395 26.1045 275.749 32.6618 277.009 38.9879C278.269 45.314 281.377 51.1248 285.941 55.6854C290.506 60.246 296.321 63.3516 302.652 64.6095C308.982 65.8673 315.544 65.2209 321.507 62.752C327.47 60.2831 332.567 56.1025 336.152 50.739C339.738 45.3756 341.651 39.0701 341.65 32.6199C341.65 28.3375 340.806 24.0971 339.166 20.1407C337.526 16.1844 335.122 12.5896 332.091 9.56165C329.061 6.53373 325.463 4.13199 321.504 2.49357C317.545 0.855149 313.301 0.0121437 309.016 0.0126956Z" fill="#C6E3A9"/>
<path d="M309.02 9.09424V32.6115" stroke="#C6E3A9" stroke-width="3" stroke-linecap="round" stroke-linejoin="round"/>
<path d="M320.564 44.143L309.02 32.6113" stroke="#C6E3A9" stroke-width="3" stroke-linecap="round" stroke-linejoin="round"/>
<path d="M311.459 32.6198C311.46 33.1029 311.317 33.5754 311.049 33.9775C310.782 34.3796 310.4 34.6932 309.954 34.8786C309.507 35.0641 309.016 35.113 308.542 35.0193C308.068 34.9255 307.632 34.6933 307.29 34.352C306.948 34.0107 306.714 33.5757 306.62 33.1019C306.525 32.6282 306.573 32.137 306.758 31.6906C306.943 31.2442 307.256 30.8626 307.658 30.5942C308.06 30.3257 308.532 30.1824 309.016 30.1824C309.663 30.1824 310.284 30.439 310.742 30.896C311.2 31.353 311.458 31.973 311.459 32.6198Z" fill="#545454"/>
</g>
</g>
<defs>
<clipPath id="clip0_3_40">
<rect width="437" height="371" fill="white"/>
</clipPath>
</defs>
</svg>
