<svg width="431" height="293" viewBox="0 0 431 293" fill="none" xmlns="http://www.w3.org/2000/svg">
<g clip-path="url(#clip0_3_222)">
<path d="M418.5 186.4C411.5 170.4 397.9 157 381.7 150.4C364.7 143.6 345.3 146.1 327.5 143.8C312 141.8 300.8 134.9 291.5 122.6C282.7 110.8 274.7 97.7 260.2 92.3C248.8 88 235.7 89.2 224.4 93.6C203.4 101.9 187.5 119.5 174.2 137C162 153 152.1 170.5 129.6 171.1C107 171.7 85.5 158.8 62.8 162.2C32.8 166.7 7.90001 191.7 2.60001 221.4C-2.29999 249.3 10 276.3 31.2 292.2H394.8C421.4 263.9 435.4 224.9 418.5 186.4Z" fill="white"/>
<path d="M89.8 292.2H90.8C97.8 284.6 103.2 275.3 106.7 265C112.3 248.4 112.1 230.9 106 215.8C103 208.2 98.6 201.1 94.3 194.3C90 187.3 85.5 180.1 82.5 172.4C81.3 169.2 80.3 165.8 79.8 162.3C79.5333 162.233 79.2667 162.2 79 162.2C79.6 165.8 80.5 169.3 81.8 172.6C84.9 180.4 89.4 187.6 93.7 194.6C97.9 201.5 102.3 208.6 105.3 216.1C111.3 231 111.5 248.3 106 264.8C102.5 275.2 96.9 284.6 89.8 292.2Z" fill="white"/>
<path d="M198.5 45.7C204.9 52.2 207.7 63.2 204.2 73.3C200.8 83.1 193.4 91.2 184.4 96.4C177.2 100.6 167.8 102.9 160.7 98.5C155.4 95.2 152.7 88.8 152.5 82.5C152.4 76.3 154.5 70.2 157 64.6C160.7 56.6 165.6 48.8 172.9 44C183 37.3 192.4 39.4 198.5 45.7Z" fill="white"/>
<path d="M388 52.2C385.4 43.5333 380.8 35.5333 374.2 28.2C367.6 20.9333 358.567 14.9 347.1 10.1C335.7 5.36667 321.2 3 303.6 3C289.6 3 275.333 4.86667 260.8 8.6C246.2 12.4 233.533 17.8 222.8 24.8L236.8 63.2L229.3 69.2L240.1 72.4C250.833 66.8 260.6 62.7333 269.4 60.2C278.2 57.6667 287.567 56.4 297.5 56.4C307.367 56.4 314.833 58.8 319.9 63.6C325.033 68.4 327.6 74.1667 327.6 80.9C327.6 89.0333 324.967 96.2667 319.7 102.6C314.5 108.867 308.733 115.233 302.4 121.7C298 126.167 293.733 130.8 289.6 135.6C285.467 140.4 281.833 145.533 278.7 151C275.5 156.467 272.967 162.367 271.1 168.7C269.167 175.033 268.2 182.1 268.2 189.9C268.2 192.433 268.267 195.467 268.4 199C268.4 199.667 268.433 200.3 268.5 200.9H258.2L269.4 208.5H323.9C323.567 206.767 323.4 204.8 323.4 202.6C323.4 200.333 323.4 198.633 323.4 197.5C323.4 192.767 324.367 188.067 326.3 183.4C328.233 178.8 330.633 174.367 333.5 170.1C336.433 165.9 339.667 161.9 343.2 158.1C346.8 154.367 350.267 150.8 353.6 147.4C357.933 142.933 362.467 138.167 367.2 133.1C371.867 128.033 375.967 122.7 379.5 117.1C383.1 111.5 386.067 105.4 388.4 98.8C390.733 92.2 391.9 84.9667 391.9 77.1C391.9 69.2333 390.6 60.9333 388 52.2Z" fill="#AAAAAA"/>
<path d="M285.9 53.8C276.1 53.8 266.867 55 258.2 57.4C249.533 59.8667 239.9 63.8 229.3 69.2L212.2 23.2C222.733 16.4 235.233 11.1667 249.7 7.5C264.1 3.83333 278.233 2 292.1 2C309.433 2 323.733 4.3 335 8.9C346.333 13.5 355.233 19.3667 361.7 26.5C368.233 33.5667 372.8 41.3 375.4 49.7C378 58.1 379.3 66.1 379.3 73.7C379.3 81.3 378.133 88.3 375.8 94.7C373.467 101.1 370.533 107.033 367 112.5C363.467 117.9 359.4 123.033 354.8 127.9C350.2 132.833 345.733 137.467 341.4 141.8C338.133 145.067 334.733 148.533 331.2 152.2C327.667 155.867 324.467 159.733 321.6 163.8C318.733 167.867 316.367 172.133 314.5 176.6C312.567 181.133 311.6 185.7 311.6 190.3C311.6 191.367 311.6 193 311.6 195.2C311.6 197.4 311.733 199.3 312 200.9H258.2C257.667 198.167 257.333 195.1 257.2 191.7C257.067 188.3 257 185.4 257 183C257 175.4 257.933 168.533 259.8 162.4C261.733 156.267 264.267 150.567 267.4 145.3C270.533 139.967 274.133 135 278.2 130.4C282.267 125.8 286.467 121.3 290.8 116.9C297.067 110.7 302.767 104.533 307.9 98.4C313.1 92.2667 315.7 85.2667 315.7 77.4C315.7 70.8667 313.167 65.3 308.1 60.7C303.1 56.1 295.7 53.8 285.9 53.8Z" fill="#E0E0E0"/>
<path d="M327.6 261.3C327.6 271.1 324.4 278.667 318 284C311.667 289.4 304.5 292.1 296.5 292.1C288.5 292.1 281.3 289.4 274.9 284C268.567 278.667 265.4 271.1 265.4 261.3C265.4 251.5 268.567 243.933 274.9 238.6C284.7 230.3 299.2 228.5 310.6 234.3C320.8 239.4 327.6 249.9 327.6 261.3Z" fill="#AAAAAA"/>
<path d="M316.9 261.3C316.9 271.1 313.733 278.667 307.4 284C301.067 289.4 293.867 292.1 285.8 292.1C277.8 292.1 270.633 289.4 264.3 284C257.967 278.667 254.8 271.1 254.8 261.3C254.8 251.5 257.967 243.933 264.3 238.6C270.633 233.267 277.8 230.6 285.8 230.6C293.867 230.6 301.067 233.267 307.4 238.6C313.733 243.933 316.9 251.5 316.9 261.3Z" fill="#E0E0E0"/>
<path d="M111.2 70.4C112 66.3 109.3 62.3 105.1 61.5C101 60.7 97 63.5 96.2 67.6C95.4 71.8 98.2 75.8 102.3 76.5C106.5 77.3 110.5 74.6 111.2 70.4Z" fill="#D9D9D9"/>
<path d="M114.9 84.8C115.3 82.5 113.8 80.2 111.4 79.8C109.1 79.3 106.8 80.9 106.4 83.2C105.9 85.6 107.5 87.8 109.8 88.2C112.2 88.7 114.5 87.1 114.9 84.8Z" fill="#D9D9D9"/>
<path d="M106.1 51.8C117.9 40.1 117.9 21 106.1 9.19999C94.4 -2.50001 75.3 -2.50001 63.5 9.19999C51.8 21 51.8 40.1 63.5 51.8C75.3 63.6 94.4 63.6 106.1 51.8Z" fill="#D9D9D9"/>
<path d="M73.3 34.3C75.4 34.3 77.1 32.6 77.1 30.5C77.1 28.4 75.4 26.7 73.3 26.7C71.2 26.7 69.5 28.4 69.5 30.5C69.5 32.6 71.2 34.3 73.3 34.3Z" fill="white"/>
<path d="M84.8 34.3C86.9 34.3 88.6 32.6 88.6 30.5C88.6 28.4 86.9 26.7 84.8 26.7C82.7 26.7 81.1 28.4 81.1 30.5C81.1 32.6 82.7 34.3 84.8 34.3Z" fill="white"/>
<path d="M96.4 34.3C98.5 34.3 100.2 32.6 100.2 30.5C100.2 28.4 98.5 26.7 96.4 26.7C94.3 26.7 92.6 28.4 92.6 30.5C92.6 32.6 94.3 34.3 96.4 34.3Z" fill="white"/>
<path d="M63.3 277L66.1 287.8C66.8 290.7 69.6 292.6 72.6 292.4C81.8 291.7 101 289.5 112 281.4L108.8 265.7C93.7 264.9 79.6 265.7 67.3 269.9C64.3 270.9 62.5 274 63.3 277Z" fill="#2B2B2B"/>
<path d="M80.9 285.6C80.7 285.6 80.6 285.5 80.6 285.4L76.8 271.8C76.7 271.6 76.8 271.4 77 271.4C77.2 271.3 77.4 271.4 77.5 271.6L81.3 285.2C81.3 285.4 81.2 285.6 81 285.6C81 285.6 80.9667 285.6 80.9 285.6Z" fill="white"/>
<path d="M89.1 283.8C88.9 283.8 88.8 283.7 88.7 283.5L84.9 270C84.9 269.8 85 269.6 85.2 269.6C85.4 269.5 85.6 269.6 85.6 269.8L89.4 283.3C89.5 283.5 89.4 283.7 89.2 283.8C89.1333 283.8 89.1 283.8 89.1 283.8Z" fill="white"/>
<path d="M98.6 218.4L63.4 228.8L89.5 264.6L127 267.5L178.7 245.7L159 216.1L98.6 218.4Z" fill="#2B2B2B"/>
<path d="M141.9 223.3C219.1 200.5 231.5 268.7 111 281.1C106.8 276.3 101.8 268 99.8 261.1L163.5 231.7L141.9 223.3Z" fill="#3D3D3D"/>
<path d="M145.2 272.2C141.6 271.1 138.1 268.8 138.1 268.8L125.7 272.7L128.5 286.2L141.4 288.8C145.4 281.6 145.6 275.7 145.2 272.2Z" fill="#FFCBA8"/>
<path d="M100.1 261.6L99.6 260.6C112.8 252.9 146.8 234.4 175.8 228.9L176 230C147.2 235.4 113.3 253.9 100.1 261.6Z" fill="#2B2B2B"/>
<path d="M98.6 218.4C26.7 204.7 8.1 273.8 128.5 286.2C132.8 281.4 136.1 275.7 138.1 268.8C119.6 256.4 98.9 244.6 76.2 233.4L98.6 218.4Z" fill="#3D3D3D"/>
<path d="M137.8 269.3C134.4 267.1 130.8 264.8 127.1 262.3C108.1 250.1 86.7 236.3 68.4 228.4L68.9 227.4C87.2 235.3 108.7 249.2 127.6 261.4C131.4 263.9 135 266.2 138.4 268.3L137.8 269.3Z" fill="#2B2B2B"/>
<path d="M45.8 252.6L44.9 252.1C47.6 247.2 51.9 243.9 57.7 242.3L58 243.3C52.4 244.9 48.4 247.9 45.8 252.6Z" fill="#2B2B2B"/>
<path d="M195.8 248.4C193.2 243.8 189.2 240.7 183.6 239.2L183.9 238.1C189.8 239.7 194.1 243 196.8 247.9L195.8 248.4Z" fill="#2B2B2B"/>
<path d="M121.8 285.6L121 284.8C126.8 278.7 130.3 272.2 131.8 265L132.9 265.2C131.3 272.6 127.7 279.3 121.8 285.6Z" fill="#2B2B2B"/>
<path d="M181 268.2C171.8 262.5 154 272.4 149.5 272.8C148.2 273 146.7 272.7 145.2 272.2C145.6 275.7 145.3 281.6 141.4 288.8L143.6 289.2C143.6 289.2 158.7 294.8 174.8 291.6C189.6 288.6 188.2 272.7 181 268.2Z" fill="#2B2B2B"/>
<path d="M168.5 286.8C168.433 286.8 168.367 286.8 168.3 286.8C168.2 286.7 168 286.5 168.1 286.3C169.2 282.9 169.7 276.1 166.5 271.5C166.4 271.3 166.4 271.1 166.6 271C166.8 270.9 167 270.9 167.1 271.1C170.4 275.9 169.9 283 168.8 286.6C168.8 286.7 168.6 286.8 168.5 286.8Z" fill="white"/>
<path d="M161.2 288.2C161.2 288.2 161.167 288.2 161.1 288.2C160.9 288.1 160.8 287.9 160.9 287.7C162 284.2 162.5 277.4 159.3 272.9C159.2 272.7 159.2 272.5 159.4 272.4C159.6 272.2 159.8 272.3 159.9 272.4C163.2 277.2 162.7 284.3 161.6 287.9C161.5 288.1 161.4 288.2 161.2 288.2Z" fill="white"/>
<path d="M85.8 129.3C85.8 129.3 103.9 113.9 103.3 111C102.8 108.9 97.7 112 97.7 112C97.7 112 104.8 103.4 104.5 102.4C103.8 100.6 98.9 104 98.9 104C98.9 104 102.2 99.2 100.6 98.4C99 97.6 95.5 100.6 95.5 100.6C95.5 100.6 97.5 97.9 96.6 97.2C95.6 96.5 91.5 99.4 91.5 99.4C91.5 99.4 93 96 89.8 97.3C86.6 98.6 64.5 118.9 64.5 118.9L85.8 129.3Z" fill="#FFCBA8"/>
<path d="M93.2 111.1C93.1333 111.1 93.0667 111.067 93 111C89.9 108.1 88.5 107.4 85.1 106.4C84.9 106.3 84.8 106.1 84.8 105.9C84.9 105.7 85.1 105.6 85.3 105.7C88.9 106.8 90.3 107.5 93.5 110.4C93.6 110.6 93.6 110.8 93.5 110.9C93.4333 111.033 93.3333 111.1 93.2 111.1Z" fill="#E28B6D"/>
<path d="M87.8 119.4C87.8 119.4 87.7667 119.4 87.7 119.4C87.5 119.4 87.4 119.2 87.4 119C87.8 116.4 88.6 114.9 89.9 114.1C90.9667 113.5 92.3667 113.567 94.1 114.3C94.3 114.4 94.4 114.6 94.3 114.8C94.3 115 94 115.1 93.9 115C92.3667 114.333 91.1333 114.267 90.2 114.8C89.1333 115.4 88.4667 116.833 88.2 119.1C88.1 119.3 88 119.4 87.8 119.4Z" fill="#E28B6D"/>
<path d="M86.9 104C86.8333 104 86.7667 103.967 86.7 103.9C86.5 103.8 86.5 103.5 86.7 103.4L91.2 99.1C91.4 99 91.6 99 91.7 99.1C91.9 99.3 91.9 99.5 91.7 99.6L87.2 103.9C87.1333 103.967 87.0333 104 86.9 104Z" fill="#E28B6D"/>
<path d="M91.1 105.5C91.0333 105.5 90.9667 105.467 90.9 105.4C90.7 105.2 90.7 105 90.9 104.9L95.2 100.3C95.4 100.2 95.6 100.2 95.8 100.3C95.9 100.5 95.9 100.7 95.8 100.8L91.4 105.4C91.3333 105.467 91.2333 105.5 91.1 105.5Z" fill="#E28B6D"/>
<path d="M95.4 108C95.3333 108 95.2667 107.967 95.2 107.9C95 107.8 95 107.6 95.2 107.4L98.6 103.8C98.7 103.6 99 103.6 99.1 103.7C99.3 103.9 99.3 104.1 99.1 104.3L95.7 107.9C95.6333 107.967 95.5333 108 95.4 108Z" fill="#E28B6D"/>
<path d="M154.2 232.3L88 234.8L80.7 174.5C80.7 174.5 102.9 153.5 111.4 145.7L125.8 145C170.4 165.3 163.1 190.6 154.2 232.3Z" fill="#7BB93F"/>
<path d="M125.8 145C125.8 145 176.9 149.4 193 184.4C208.7 218.6 144 230.8 144 230.8L125.8 145Z" fill="#7BB93F"/>
<path d="M67.4 152.5L88.5 126.8L68.8 114.9C60.5 120.6 44.6 133.5 31.1 148.2C28.2 151.5 25.8 155.3 24.7 159.4C23.7 163 23.5 166.5 24 169.9C25.5 178.9 32.6 185.8 42 186.9C50 187.9 80.7 185.5 105.6 178.1L112.9 149.9C109.1 147.8 81.2 147.4 67.4 152.5Z" fill="#7BB93F"/>
<g opacity="0.8">
<path d="M168.4 158.9C168.533 158.9 168.633 158.867 168.7 158.8C168.5 158.667 168.267 158.533 168 158.4C164.3 159.3 160.4 160.2 156.6 160.6C154.3 160.9 146.7 161.4 144.5 156.3C143.4 153.8 144.2 150.9 145.5 149C145.3 148.933 145.1 148.867 144.9 148.8C143.6 150.9 142.8 153.8 144 156.5C146.3 162 154.3 161.4 156.7 161.2C160.6 160.7 164.6 159.8 168.4 158.9Z" fill="white"/>
<path d="M192.2 198.4C189.8 197.4 187.3 196.4 184.6 196.7C180 197.1 176 201.7 175.8 206.9C175.6 210.5 177 214.2 179.5 217.5C179.7 217.367 179.867 217.267 180 217.2C177.5 214 176.2 210.4 176.3 207C176.5 202 180.3 197.6 184.7 197.2C187.2 197 189.6 197.9 192 198.9C192.933 199.233 193.867 199.533 194.8 199.8C194.8 199.667 194.833 199.5 194.9 199.3C193.967 199.033 193.067 198.733 192.2 198.4Z" fill="white"/>
<path d="M63.3 180.9C60.1 178.3 55.2 177.6 49.7 179C44.9 180.2 40.7 182.7 37.9 186C38.0333 186.067 38.2 186.133 38.4 186.2C41.2 183.1 45.2 180.7 49.9 179.5C55.2 178.1 59.9 178.8 63 181.3C64.4 182.5 65.5 184.1 66.2 185.8C66.4 185.733 66.6 185.7 66.8 185.7C66 183.9 64.9 182.2 63.3 180.9Z" fill="white"/>
<path d="M34.5 144.6C40.5 143.2 46.3 141.1 51.7 138C53.7 136.8 56 135.3 57.6 133.1C59.4 130.8 59.9 128 59.2 125.7C58.9 124.8 58.3 124 57.7 123.4C57.5667 123.467 57.4333 123.567 57.3 123.7C57.9 124.3 58.4 125 58.6 125.9C59.3 128 58.8 130.6 57.2 132.8C55.6 134.9 53.4 136.4 51.4 137.5C46.3 140.4 40.9 142.4 35.2 143.9C35 144.167 34.7667 144.4 34.5 144.6Z" fill="white"/>
</g>
<path d="M130.5 131.6V132.5L130.3 147.1V148.6C130.3 151.1 129.2 153.3 127.6 155C126 156.6 123.8 157.6 121.3 157.6C116.3 157.6 112.2 153.6 112.2 148.6L112 130.7L130.5 131.6Z" fill="#FFCBA8"/>
<path d="M130.4 132.5L130.3 147.1C122.2 143.8 118.9 135 118.9 135L130.4 132.5Z" fill="#3D3D3D"/>
<path d="M133.6 107.1C136.5 110.6 145 130.3 136.4 137C126.8 144.6 112.1 132.2 112.1 132.2L110.1 109.2L122.9 105.9L133.6 107.1Z" fill="#FFCBA8"/>
<path d="M103.6 105.9C103.6 105.9 75.4 120.6 98.4 163.1C101.4 168.6 107.9 171 113.5 168.3C119.6 165.5 121.8 158.1 118.6 152.3C114.8 145.6 111.2 137 112.7 130.6L103.6 105.9Z" fill="#3D3D3D"/>
<path d="M111.7 118.3C114.7 115.3 114.7 110.4 111.7 107.5C108.7 104.5 103.9 104.5 100.9 107.5C97.9 110.4 97.9 115.3 100.9 118.3C103.9 121.3 108.7 121.3 111.7 118.3Z" fill="#7BB93F"/>
<path d="M115.7 122.1C114.9 117.3 114.4 114 119.2 111.6C119.2 111.6 136.2 114.6 139.4 108.2C142.7 101.8 137.7 91.7 127.4 98.7C100.9 93.6 97.3 118.3 105.4 126.6L113.3 125.4C114.9 125.2 116 123.6 115.7 122.1Z" fill="#3D3D3D"/>
<path d="M128.9 123.2C129.5 123.2 130 122.7 130 122.1C130 121.4 129.5 120.9 128.9 120.9C128.2 120.9 127.7 121.4 127.7 122.1C127.7 122.7 128.2 123.2 128.9 123.2Z" fill="#3D3D3D"/>
<path d="M136.5 119.4C137.1 119.4 137.6 118.9 137.6 118.3C137.6 117.7 137.1 117.2 136.5 117.2C135.9 117.2 135.4 117.7 135.4 118.3C135.4 118.9 135.9 119.4 136.5 119.4Z" fill="#3D3D3D"/>
<path d="M135.7 125.5C135.633 125.5 135.567 125.5 135.5 125.5C135.4 125.3 135.4 125.1 135.5 125C136 124.5 136.4 123.9 136.2 123.4C136 122.9 135.1 122.6 134.7 122.6C133.8 122.6 133.4 121 133.3 120.7C133.2 120.6 133.3 120.4 133.5 120.3C133.7 120.3 133.9 120.4 133.9 120.6C134.1 121.2 134.4 122 134.7 122C135.1 122 136.4 122.2 136.8 123.1C137.067 123.767 136.8 124.533 136 125.4C135.933 125.467 135.833 125.5 135.7 125.5Z" fill="#3D3D3D"/>
<path d="M135.8 129.8C135.733 129.8 135.667 129.8 135.6 129.8C133.5 128.3 131.3 129.5 131.3 129.6C131.2 129.6 131 129.6 130.9 129.4C130.8 129.3 130.8 129.1 131 129C131.1 128.9 133.5 127.6 136 129.2C136.1 129.3 136.2 129.5 136.1 129.7C136.033 129.767 135.933 129.8 135.8 129.8Z" fill="#3D3D3D"/>
<path d="M128.4 117.2C129 118.4 127.9 118.6 126.6 119.3C125.3 120 123.9 120.3 123.6 119.7C123.3 119.1 124.1 118.1 125.4 117.4C126.8 116.7 127.9 116.2 128.4 117.2Z" fill="#3D3D3D"/>
<path d="M133.2 115C133.4 116.1 134.2 115.6 135.4 115.3C136.6 115 137.5 114.4 137.4 113.9C137.3 113.4 136.2 113.2 135 113.5C133.9 113.8 132.9 114.2 133.2 115Z" fill="#3D3D3D"/>
<path d="M115.1 130.5C116.6 128.5 116 125.5 113.8 123.8C111.5 122 108.5 122.2 106.9 124.2C105.4 126.2 106 129.2 108.2 130.9C110.5 132.6 113.5 132.4 115.1 130.5Z" fill="#FFCBA8"/>
<path d="M113 129C112.8 129 112.7 128.9 112.7 128.7C112.7 127.8 112.2 126.9 111.4 126.4C110.8 125.9 110 125.8 109.3 126.1C109.2 126.2 109 126.1 108.9 125.9C108.8 125.7 108.9 125.6 109.1 125.5C109.9 125.1 111 125.3 111.8 125.8C112.7 126.5 113.3 127.5 113.3 128.7C113.3 128.9 113.2 129 113 129Z" fill="#3D3D3D"/>
<path d="M67.1 152.2L55.6 164.7L56.1 165.2L67.7 152.7L67.1 152.2Z" fill="#3D3D3D"/>
<path d="M148.5 205.9L148.2 205.2C156.7 202.7 164.8 199.6 172.2 190.3L172.8 190.8C165.3 200.2 157 203.3 148.5 205.9Z" fill="#3D3D3D"/>
<path d="M153.6 177.6H82.1C79.5 177.6 77.4 179.9 77.4 182.6V233.7C77.4 236.5 79.5 238.7 82.1 238.7H153.6C156.1 238.7 158.2 236.5 158.2 233.7V182.6C158.2 179.9 156.1 177.6 153.6 177.6Z" fill="#E0E3EB"/>
<path fill-rule="evenodd" clip-rule="evenodd" d="M123.6 205.5V210.9C123.6 211.9 122.7 212.8 121.6 212.8H114.1C113 212.8 112.1 211.9 112.1 210.9V205.5C112.1 204.4 113 203.5 114.1 203.5H121.6C122.7 203.5 123.6 204.4 123.6 205.5ZM114.1 204.9C113.8 204.9 113.6 205.2 113.6 205.5V210.9C113.6 211.1 113.8 211.4 114.1 211.4H121.6C121.9 211.4 122.1 211.1 122.1 210.9V205.5C122.1 205.2 121.9 204.9 121.6 204.9H114.1Z" fill="#7BB93F"/>
<path d="M431 291.5H0V292.9H431V291.5Z" fill="#3D3D3D"/>
</g>
<defs>
<clipPath id="clip0_3_222">
<rect width="431" height="293" fill="white"/>
</clipPath>
</defs>
</svg>
