<svg width="20" height="20" fill="none" xmlns="http://www.w3.org/2000/svg"><path fill-rule="evenodd" clip-rule="evenodd" d="M19.6 10.227c0-.709-.064-1.39-.182-2.045H10v3.868h5.382a4.6 4.6 0 0 1-1.996 3.018v2.51h3.232c1.891-1.742 2.982-4.305 2.982-7.35Z" fill="#4285F4"/><path fill-rule="evenodd" clip-rule="evenodd" d="M9.999 20c2.7 0 4.963-.896 6.618-2.423l-3.232-2.509c-.895.6-2.04.955-3.386.955-2.605 0-4.81-1.76-5.596-4.123h-3.34v2.59A9.996 9.996 0 0 0 9.998 20Z" fill="#34A853"/><path fill-rule="evenodd" clip-rule="evenodd" d="M4.405 11.9c-.2-.6-.314-1.241-.314-1.9 0-.66.114-1.3.314-1.9V5.509H1.064A9.996 9.996 0 0 0 0 9.999c0 1.615.386 3.142 1.064 4.492l3.34-2.591Z" fill="#FBBC05"/><path fill-rule="evenodd" clip-rule="evenodd" d="M9.999 3.977c1.468 0 2.786.505 3.823 1.496l2.868-2.868C14.958.99 12.694 0 9.999 0c-3.91 0-7.291 2.24-8.937 5.51L4.404 8.1C5.19 5.736 7.394 3.977 10 3.977Z" fill="#EA4335"/></svg>