<svg width="16" height="16" fill="none" xmlns="http://www.w3.org/2000/svg"><path d="m14.167 12.313-1.1.26a.654.654 0 0 0-.494.494l-.233.98a.668.668 0 0 1-1.16.28l-1.993-2.294a.332.332 0 0 1 .166-.54 5.661 5.661 0 0 0 3.02-1.886.333.333 0 0 1 .494-.034l1.48 1.48c.507.507.327 1.14-.18 1.26ZM1.798 12.313l1.1.26c.247.06.44.247.493.494l.234.98c.126.533.806.7 1.16.28l1.993-2.294a.332.332 0 0 0-.167-.54 5.661 5.661 0 0 1-3.02-1.886.333.333 0 0 0-.493-.034l-1.48 1.48c-.507.507-.327 1.14.18 1.26ZM7.999 1.333A4.663 4.663 0 0 0 3.332 6c0 .967.287 1.853.78 2.593a4.657 4.657 0 0 0 3.187 2.014c.226.04.46.06.7.06.24 0 .473-.02.7-.06a4.657 4.657 0 0 0 3.186-2.014c.494-.74.78-1.626.78-2.593A4.663 4.663 0 0 0 8 1.333Zm2.04 4.52-.554.554a.472.472 0 0 0-.113.406l.16.687c.127.54-.16.753-.64.467l-.667-.394a.468.468 0 0 0-.44 0l-.666.394c-.48.28-.767.073-.64-.467l.16-.687a.5.5 0 0 0-.114-.406l-.566-.554c-.327-.326-.22-.653.233-.726l.713-.12c.12-.02.26-.127.314-.234l.393-.786c.213-.427.56-.427.773 0l.394.786a.483.483 0 0 0 .32.234l.713.12c.447.073.553.4.227.726Z" fill="#3A6DE5"/></svg>